<?xml version="1.0" encoding="utf-8"?>
<!DOCTYPE svg PUBLIC "-//W3C//DTD SVG 20010904//EN" "http://www.w3.org/TR/2001/REC-SVG-20010904/DTD/svg10.dtd">
<svg height="900.000000pt" preserveAspectRatio="xMidYMid meet" version="1.0" viewBox="0 0 737.000000 900.000000" width="737.000000pt" xmlns="http://www.w3.org/2000/svg">
<g fill="#ffffff" stroke="none" transform="translate(0.000000,900.000000) scale(0.100000,-0.100000)">
<path d="M0 4500 l0 -4500 2045 0 c1579 0 2045 3 2045 12 0 7 -11 23 -24 37 -23 23 -26 39 -36 161 -6 74 -15 156 -21 181 -13 57 -17 214 -6 252 5 20 4 27 -7 27 -11 0 -15 23 -20 98 -3 53 -5 104 -5 112 0 8 -1 41 -2 74 -2 56 11 83 33 70 20 -13 5 13 -19 32 -25 20 -26 24 -16 58 9 29 9 38 0 42 -10 3 -12 81 -11 314 1 170 5 322 8 337 3 15 8 84 11 153 3 68 8 127 11 129 15 16 23 -38 21 -142 -1 -65 1 -123 5 -130 3 -6 2 -20 -4 -30 -7 -14 -7 -31 2 -58 11 -32 10 -43 -3 -71 -22 -47 -23 -258 -1 -258 12 0 15 10 13 45 -2 24 0 47 3 50 11 11 22 -78 20 -165 -1 -47 2 -94 7 -105 11 -24 33 -353 25 -367 -3 -5 -1 -30 5 -56 20 -89 34 -266 22 -270 -16 -5 -14 -29 4 -36 8 -3 15 -10 15 -16 0 -5 -7 -10 -15 -10 -19 0 -19 -9 1 -49 9 -18 20 -65 25 -104 4 -40 11 -80 14 -89 4 -11 3 -18 -4 -18 -13 0 -15 -32 -2 -46 4 -5 14 -44 21 -87 l13 -77 1598 0 1599 0 0 4500 0 4500 -3685 0 -3685 0 0 -4500z m3764 3604 c3 -8 2 -13 -2 -11 -4 3 -16 1 -27 -4 -17 -7 -16 -8 8 -8 16 -1 37 -6 48 -11 14 -8 19 -7 19 2 0 24 23 -11 25 -37 0 -14 0 -25 -2 -25 -1 0 -19 11 -39 25 -39 27 -73 31 -105 15 -19 -11 -24 -4 -11 16 5 9 71 54 78 54 1 0 5 -7 8 -16z m22 -501 c-8 -15 -15 -25 -16 -21 0 12 23 58 27 54 3 -2 -2 -17 -11 -33z m924 -1066 c-1 -24 -37 -90 -42 -76 -3 8 2 23 11 33 12 14 13 20 4 23 -9 3 -10 9 -1 23 12 19 28 18 28 -3z m57 1 c-3 -8 -6 -5 -6 6 -1 11 2 17 5 13 3 -3 4 -12 1 -19z m-17 -110 c0 -45 -24 -185 -33 -195 -11 -10 -19 68 -12 115 16 115 45 166 45 80z m-90 -8 c0 -5 -4 -10 -10 -10 -5 0 -10 5 -10 10 0 6 5 10 10 10 6 0 10 -4 10 -10z m-45 -74 c-32 -32 -38 -33 -23 -1 9 20 35 37 46 29 2 -1 -9 -14 -23 -28z m-565 -100 c0 -3 -4 -8 -10 -11 -5 -3 -10 -1 -10 4 0 6 5 11 10 11 6 0 10 -2 10 -4z m630 -111 c0 -14 4 -25 9 -25 14 0 4 -51 -16 -72 -22 -25 -73 -52 -73 -39 0 5 5 13 10 16 6 3 10 13 10 22 0 14 -3 14 -20 -2 -11 -10 -23 -15 -26 -12 -9 9 15 37 31 37 7 0 22 23 33 50 22 54 42 65 42 25z m-127 -104 c5 -5 3 -19 -4 -32 -11 -20 -14 -21 -17 -7 -2 9 -9 15 -17 12 -12 -5 -35 23 -35 42 0 9 62 -4 73 -15z m-2392 -34 c-10 -9 -11 -8 -5 6 3 10 9 15 12 12 3 -3 0 -11 -7 -18z m2298 -57 c27 0 0 -97 -98 -356 -64 -170 -99 -244 -116 -244 -16 0 -29 -35 -20 -51 7 -10 -37 -6 -87 7 -9 3 -19 0 -23 -6 -12 -19 -35 10 -29 35 4 17 -1 27 -25 42 l-31 19 35 0 c28 0 35 -4 35 -19 0 -11 5 -17 13 -14 6 2 11 12 9 22 -3 14 1 16 15 10 47 -19 49 -18 67 47 27 97 140 358 159 366 4 2 7 8 7 14 0 5 9 21 20 35 22 29 26 59 8 65 -7 3 -9 12 -5 22 5 13 14 17 30 12 12 -3 28 -6 36 -6z m-2378 -83 c-10 -9 -11 -8 -5 6 3 10 9 15 12 12 3 -3 0 -11 -7 -18z m2680 -414 c13 -17 13 -17 -6 -3 -11 8 -22 16 -24 17 -2 2 0 3 6 3 6 0 17 -8 24 -17z m-28 -38 c-10 -7 -22 -10 -28 -7 -5 4 -2 8 8 10 12 2 16 9 13 19 -5 13 -4 14 9 3 14 -11 13 -14 -2 -25z m37 -19 c0 -24 -17 -28 -23 -6 -3 13 0 20 9 20 8 0 14 -6 14 -14z m59 -51 c0 -5 -6 1 -14 15 -8 14 -14 30 -14 35 0 6 6 -1 14 -15 8 -14 14 -29 14 -35z m10 -48 c0 -21 -1 -21 -9 -2 -12 28 -12 37 0 30 6 -3 10 -16 9 -28z m21 -42 c0 -19 -4 -35 -10 -35 -5 0 -8 10 -6 23 3 12 5 28 5 35 2 28 11 9 11 -23z m-753 19 c-3 -3 -12 -4 -19 -1 -8 3 -5 6 6 6 11 1 17 -2 13 -5z m945 -357 c77 -84 126 -155 138 -197 9 -30 7 -37 -11 -52 -12 -10 -16 -18 -9 -18 22 0 3 -106 -32 -173 -18 -34 -31 -68 -30 -74 2 -7 -3 -10 -11 -7 -8 3 -17 -2 -20 -10 -4 -11 -1 -13 10 -9 13 5 12 1 -3 -28 -14 -26 -19 -30 -22 -17 -3 15 -7 14 -26 -10 -12 -15 -37 -58 -55 -95 -26 -55 -30 -71 -21 -82 10 -11 10 -15 1 -15 -7 0 -9 -4 -6 -10 9 -14 -39 -12 -53 2 -9 9 -12 9 -12 1 0 -7 5 -15 10 -18 15 -9 12 -19 -9 -44 -11 -13 -17 -29 -15 -36 8 -19 -31 -28 -54 -14 -24 15 -19 26 56 119 52 65 61 83 42 95 -6 4 -8 11 -4 16 3 5 10 6 16 3 6 -4 8 -2 5 4 -8 11 67 112 83 112 6 0 10 6 10 13 0 7 8 22 18 33 9 10 24 32 32 47 8 16 28 42 44 58 28 27 28 29 8 29 -11 0 -24 -5 -27 -10 -4 -6 -15 -8 -24 -5 -14 4 -26 -8 -52 -49 -18 -31 -35 -54 -37 -51 -2 2 10 34 27 70 32 67 34 88 8 67 -17 -15 -30 -3 -16 14 8 10 1 19 -30 40 -24 15 -41 35 -41 45 0 24 5 24 43 -5 38 -27 67 -39 67 -26 0 5 -8 11 -17 14 -32 11 -97 72 -89 84 5 9 21 3 54 -20 26 -17 50 -36 54 -42 4 -6 10 -7 14 -3 4 4 -3 15 -16 24 -14 10 -38 29 -54 44 -26 23 -28 29 -17 43 17 21 55 3 46 -23 -3 -11 5 -24 25 -39 22 -17 30 -19 30 -8 0 7 -7 16 -15 20 -8 3 -15 14 -15 24 0 25 -76 96 -127 118 -71 30 -53 54 39 54 49 0 50 1 35 18 -18 19 -23 42 -9 42 4 0 33 -28 64 -63z m8 -616 c0 -6 -4 -13 -10 -16 -5 -3 -10 1 -10 9 0 9 5 16 10 16 6 0 10 -4 10 -9z m-264 -346 c13 -14 32 -25 43 -25 30 0 36 -20 11 -37 -12 -8 -19 -21 -16 -28 2 -7 -6 -23 -20 -36 -13 -13 -40 -52 -60 -87 -20 -35 -41 -61 -47 -59 -28 9 -15 49 46 141 l65 96 -29 24 c-16 14 -29 27 -29 30 0 12 14 5 36 -19z m153 -169 c9 -8 45 -30 81 -48 94 -49 300 -186 300 -199 0 -7 -9 -5 -22 5 -40 29 -49 29 -76 4 -29 -28 -52 -27 -52 2 0 13 -5 17 -19 13 -10 -2 -26 4 -36 13 -22 23 -66 46 -73 39 -3 -3 -1 -5 5 -5 11 0 73 -54 73 -64 0 -4 -4 -4 -10 -1 -5 3 -10 0 -10 -7 0 -8 -5 -6 -11 5 -5 9 -18 17 -27 17 -15 0 -15 2 -2 10 11 7 11 10 2 10 -7 0 -30 11 -50 25 -20 14 -46 25 -57 25 -15 0 -17 2 -6 9 9 6 10 11 2 15 -6 4 -11 13 -11 19 0 7 4 6 10 -3 8 -13 10 -13 10 1 0 37 -73 84 -90 58 -9 -13 -41 18 -35 33 13 33 78 48 104 24z m199 -55 c12 -6 22 -16 22 -21 0 -6 -10 -5 -22 2 -26 15 -38 28 -38 43 0 6 3 5 8 -1 4 -6 17 -16 30 -23z m80 -59 c2 -7 -3 -12 -12 -12 -9 0 -16 7 -16 16 0 17 22 14 28 -4z m87 -66 c22 -19 36 -38 32 -42 -5 -5 -16 1 -25 12 -9 12 -32 30 -49 40 -18 10 -33 24 -33 32 0 16 21 5 75 -42z m-468 -11 c20 -19 41 -35 46 -35 5 0 46 -27 92 -60 46 -33 86 -60 89 -60 9 0 155 -100 162 -111 3 -5 1 -9 -4 -9 -11 0 -275 172 -327 214 -22 18 -55 38 -72 45 -21 9 -33 20 -33 32 0 26 4 24 47 -16z m68 15 c-3 -5 -10 -10 -16 -10 -5 0 -9 5 -9 10 0 6 7 10 16 10 8 0 12 -4 9 -10z m-310 -38 c-8 -51 -9 -114 -1 -139 4 -13 -8 -59 -30 -119 -60 -165 -103 -309 -104 -347 0 -20 -102 -229 -144 -296 -16 -24 -30 -53 -32 -65 -21 -128 -85 -276 -120 -276 -8 0 -14 -6 -14 -14 0 -7 -7 -20 -17 -27 -15 -13 -15 -12 -4 9 16 31 8 28 -54 -19 -30 -22 -58 -38 -64 -35 -5 3 -14 -7 -19 -23 -5 -15 -24 -38 -42 -51 l-31 -22 6 33 c4 22 1 41 -8 53 -17 24 -10 64 14 77 11 5 19 14 19 20 0 14 52 71 147 162 51 49 80 84 76 93 -3 8 1 14 9 14 22 0 52 36 38 45 -7 4 -14 -2 -17 -14 -3 -12 -12 -21 -19 -21 -12 0 -12 4 0 29 15 29 43 36 58 16 5 -6 8 -5 8 3 0 7 13 32 28 55 53 79 62 117 37 157 -12 20 -27 10 -23 -15 3 -14 2 -28 -2 -30 -5 -3 -11 -23 -15 -45 -5 -31 -10 -38 -19 -31 -7 6 -16 8 -19 4 -6 -5 -12 28 -8 50 0 4 -3 7 -7 7 -15 0 -33 48 -21 56 6 4 15 0 20 -7 5 -9 9 9 9 48 0 34 5 65 10 68 6 3 10 14 10 24 0 10 10 26 23 34 17 13 19 18 9 25 -11 7 -10 10 3 16 9 3 13 11 9 18 -5 7 -1 9 13 6 17 -4 22 0 26 21 3 14 0 35 -6 46 -6 11 -11 42 -12 69 0 41 4 50 23 59 12 6 22 17 22 26 -1 14 -2 14 -10 -1 -10 -16 -48 -19 -41 -2 1 5 7 8 12 6 5 -1 12 4 15 11 3 9 14 12 28 10 19 -4 25 1 30 21 3 14 11 26 16 26 5 0 14 9 20 20 9 16 7 26 -10 49 -30 44 -24 57 10 19 22 -24 30 -28 30 -15 0 9 7 17 15 17 11 0 12 5 5 25 -11 28 -8 30 21 15 25 -14 54 12 64 58 4 19 13 32 22 32 12 0 13 -8 8 -38z m365 -14 c0 -6 -6 -5 -15 2 -8 7 -15 14 -15 16 0 2 7 1 15 -2 8 -4 15 -11 15 -16z m110 -30 c0 -4 -8 -12 -18 -17 -24 -13 -42 4 -42 37 0 23 0 23 30 5 17 -9 30 -21 30 -25z m337 -20 c-8 -6 -5 -10 11 -14 12 -4 22 -10 22 -15 0 -4 31 -28 69 -53 80 -52 86 -58 70 -87 -10 -20 -12 -20 -21 -6 -5 10 -16 17 -24 17 -8 0 -13 -4 -10 -9 4 -5 0 -11 -6 -14 -7 -2 -1 -8 15 -12 27 -7 36 -28 16 -40 -5 -4 -15 -19 -20 -33 -10 -25 -12 -26 -23 -9 -7 9 -16 17 -20 17 -8 0 -68 42 -77 53 -3 4 -12 1 -19 -7 -15 -19 -34 -10 -26 11 9 23 -3 34 -24 21 -15 -10 -23 -9 -39 6 -25 23 -26 41 -6 90 18 43 13 56 -21 56 -14 0 -27 6 -30 14 -3 8 -12 12 -20 9 -21 -8 -17 10 6 24 16 11 21 9 34 -8 25 -37 56 -46 93 -29 38 18 40 25 13 40 -11 6 -20 17 -20 26 0 11 9 7 35 -13 24 -19 30 -30 22 -35z m-287 -3 c14 -17 40 -20 40 -5 0 6 5 10 10 10 7 0 7 -6 1 -17 -5 -10 -12 -26 -15 -35 -3 -10 -11 -18 -19 -18 -21 0 -60 47 -54 64 8 20 21 20 37 1z m64 -60 c-6 -16 -24 -21 -24 -7 0 11 11 22 21 22 5 0 6 -7 3 -15z m-895 -167 c11 -30 4 -36 -14 -12 -17 23 -19 34 -5 34 6 0 14 -10 19 -22z m1002 5 c13 -17 13 -17 -6 -3 -11 8 -22 16 -24 17 -2 2 0 3 6 3 6 0 17 -8 24 -17z m484 -11 c-3 -3 -11 0 -18 7 -9 10 -8 11 6 5 10 -3 15 -9 12 -12z m-431 -21 c4 -5 -3 -7 -14 -4 -23 6 -26 13 -6 13 8 0 17 -4 20 -9z m496 -32 c0 -6 -4 -7 -10 -4 -5 3 -10 11 -10 16 0 6 5 7 10 4 6 -3 10 -11 10 -16z m-42 -12 c-6 -8 24 -37 33 -31 13 7 58 -48 52 -63 -8 -20 -22 -16 -74 24 -49 37 -63 63 -34 63 8 0 15 5 15 12 0 6 3 9 6 6 3 -4 4 -8 2 -11z m-53 -46 c8 -14 94 -71 106 -71 11 0 12 -20 0 -39 -7 -11 -17 -7 -52 18 -73 51 -92 70 -85 86 6 17 22 20 31 6z m30 -92 c30 -23 55 -45 55 -50 0 -21 -25 -19 -60 5 -22 14 -44 26 -49 26 -16 0 -31 27 -25 44 9 23 17 21 79 -25z m145 -21 c0 -7 30 -31 66 -53 36 -22 83 -53 104 -70 21 -16 57 -41 79 -54 21 -13 41 -31 44 -40 2 -9 5 -20 6 -26 1 -5 -2 -11 -8 -13 -6 -2 -11 5 -12 15 0 13 -5 9 -15 -12 l-14 -30 6 33 c4 21 1 39 -8 49 -7 9 -67 52 -133 96 -66 43 -123 84 -127 91 -11 16 -10 26 2 26 6 0 10 -6 10 -12z m300 -289 c-7 -11 -14 -18 -17 -15 -3 3 0 12 7 21 18 21 23 19 10 -6z m-2066 -77 c3 -5 2 -19 -1 -32 -6 -22 -7 -23 -14 -4 -4 10 -8 25 -8 32 -1 14 15 16 23 4z m-24 -77 c0 -1 -7 -17 -16 -35 -14 -26 -18 -30 -25 -17 -13 23 6 68 26 61 8 -3 15 -7 15 -9z m-51 -91 c-14 -18 -24 -11 -15 11 3 9 11 13 16 10 8 -5 7 -11 -1 -21z m-379 -34 c0 -5 -4 -10 -10 -10 -5 0 -10 5 -10 10 0 6 5 10 10 10 6 0 10 -4 10 -10z m35 0 c3 -5 2 -10 -4 -10 -5 0 -13 5 -16 10 -3 6 -2 10 4 10 5 0 13 -4 16 -10z m-55 -30 c0 -5 -5 -10 -11 -10 -5 0 -7 5 -4 10 3 6 8 10 11 10 2 0 4 -4 4 -10z m319 -30 c-10 -27 -13 -29 -32 -18 l-22 12 25 7 c14 4 19 7 13 8 -21 2 -15 21 6 21 18 0 19 -3 10 -30z m-251 -117 c5 -18 -28 -29 -38 -13 -5 7 -17 10 -30 7 -18 -5 -19 -3 -9 9 15 18 71 15 77 -3z"/>
<path d="M5140 4605 c0 -8 2 -15 4 -15 2 0 6 7 10 15 3 8 1 15 -4 15 -6 0 -10 -7 -10 -15z"/>
<path d="M5001 4311 c-7 -5 -11 -15 -9 -22 3 -10 8 -7 17 9 13 24 12 26 -8 13z"/>
<path d="M3999 1379 c-4 -88 -2 -149 6 -153 11 -4 13 150 2 161 -4 3 -7 0 -8 -8z"/>
<path d="M4002 1185 c0 -16 2 -22 5 -12 2 9 2 23 0 30 -3 6 -5 -1 -5 -18z"/>
<path d="M3998 1123 c5 -21 7 -23 10 -9 2 10 0 22 -6 28 -6 6 -7 0 -4 -19z"/>
<path d="M4011 904 c0 -11 3 -14 6 -6 3 7 2 16 -1 19 -3 4 -6 -2 -5 -13z"/>
</g>
</svg>