<?xml version="1.0" standalone="no"?>
<!DOCTYPE svg PUBLIC "-//W3C//DTD SVG 20010904//EN"
 "http://www.w3.org/TR/2001/REC-SVG-20010904/DTD/svg10.dtd">
<svg version="1.0" xmlns="http://www.w3.org/2000/svg"
 width="841.000000pt" height="1050.000000pt" viewBox="0 0 841.000000 1050.000000"
 preserveAspectRatio="xMidYMid meet">

<g transform="translate(0.000000,1050.000000) scale(0.100000,-0.100000)"
fill="#000000" stroke="none">
<path d="M0 9165 c1 -735 4 -1334 8 -1331 4 2 16 -3 27 -11 13 -10 15 -14 4
-10 -9 3 -22 1 -30 -4 -11 -7 -10 -9 6 -9 18 -1 19 -1 3 -11 -10 -5 -18 -19
-18 -30 0 -11 5 -17 10 -14 6 3 10 -1 10 -9 0 -9 7 -16 15 -16 18 0 20 16 2
23 -7 3 -5 6 6 6 9 1 17 9 17 19 0 14 -2 15 -10 2 -5 -8 -10 -11 -10 -6 0 5 7
17 15 27 14 15 14 18 0 33 -15 15 -14 16 12 17 23 2 24 2 6 6 -34 7 -28 23 7
18 17 -2 28 0 24 6 -3 5 -9 7 -14 4 -4 -3 -13 2 -19 9 -15 18 1 29 32 22 12
-3 16 -3 10 0 -7 3 -13 13 -14 22 0 11 -2 12 -6 5 -7 -20 -19 -15 -20 8 -1 14
3 19 12 15 9 -3 12 0 8 10 -3 9 2 15 13 16 11 0 24 2 31 2 7 1 17 6 23 12 8 8
0 10 -31 7 -35 -4 -41 -2 -35 12 3 9 6 26 6 38 0 18 2 19 10 7 7 -11 10 -6 10
20 0 33 1 33 17 17 16 -16 16 -19 3 -27 -8 -5 -10 -10 -4 -10 5 0 19 7 30 15
18 14 18 14 0 15 -15 0 -17 5 -11 28 5 22 4 25 -6 15 -7 -7 -17 -13 -23 -13
-5 0 1 9 13 19 12 11 22 23 22 28 1 4 3 10 6 13 4 3 3 -1 -1 -7 -4 -8 -1 -13
8 -13 8 0 18 -5 22 -12 5 -8 2 -9 -12 -4 -10 4 -15 4 -12 0 4 -4 3 -15 -3 -25
-6 -13 -6 -19 1 -19 5 0 10 6 10 14 0 7 10 17 23 21 13 4 17 8 10 12 -7 2 -13
11 -13 18 0 7 6 16 13 19 6 3 1 3 -13 0 -22 -5 -23 -4 -9 7 23 20 32 49 14 49
-7 0 -17 5 -21 11 -4 7 0 9 14 5 19 -6 20 -3 19 41 -2 43 0 48 20 48 12 0 26
5 30 9 4 5 3 6 -3 3 -14 -8 -48 28 -39 42 3 6 12 11 19 11 7 0 23 12 37 27 13
14 18 23 10 18 -9 -5 -12 -3 -9 6 3 8 11 13 17 11 7 -1 10 2 6 8 -3 6 -11 7
-17 4 -6 -4 -6 1 1 14 9 17 8 23 -6 31 -10 5 -15 13 -11 17 5 4 3 13 -4 21 -9
11 -7 12 8 7 13 -5 10 2 -11 22 -28 26 -28 29 -10 32 25 5 45 29 45 55 0 10
10 32 23 47 12 15 29 37 37 49 8 11 25 21 37 21 15 0 21 5 17 14 -4 11 0 13
14 9 11 -3 29 0 39 5 16 9 15 11 -9 17 -15 4 -32 4 -37 0 -6 -3 -11 -1 -11 5
0 6 -6 8 -12 5 -7 -4 -4 1 6 9 13 11 23 13 31 6 7 -6 21 -7 30 -3 14 5 16 3
10 -8 -5 -8 -5 -11 1 -6 5 5 9 30 10 55 0 39 4 49 25 59 13 7 25 8 27 3 2 -5
11 -6 20 -3 15 6 15 5 3 -10 -12 -15 -12 -17 3 -11 9 3 16 12 16 20 0 17 20
19 21 2 0 -7 5 -3 11 8 5 12 21 27 34 35 17 9 24 21 25 43 0 17 3 25 6 19 8
-20 22 -15 16 6 -3 13 2 20 19 25 17 4 20 8 10 15 -11 6 -10 10 3 15 25 9 28
8 21 -10 -3 -8 -2 -12 4 -9 14 9 13 32 -2 37 -14 5 -2 28 15 28 8 0 12 -18 11
-51 0 -30 4 -53 11 -55 6 -3 12 -17 13 -32 7 -101 7 -144 0 -148 -5 -3 -4 -12
2 -19 7 -9 7 -21 0 -39 -6 -16 -6 -25 -1 -21 6 3 9 -4 8 -15 -1 -10 -8 -22
-16 -25 -11 -5 -11 -8 5 -21 13 -11 15 -17 7 -20 -10 -4 -10 -11 -2 -25 7 -14
7 -24 0 -33 -6 -7 -8 -16 -5 -19 3 -3 2 -12 -2 -19 -5 -7 -9 -17 -10 -23 0 -5
-2 -16 -2 -23 -1 -7 -6 -10 -12 -7 -5 3 -10 -3 -10 -14 0 -12 -4 -21 -9 -21
-5 0 -18 -3 -28 -7 -14 -5 -16 -4 -8 8 6 8 1 5 -10 -7 -11 -12 -27 -24 -35
-27 -9 -3 -4 -6 12 -6 15 -1 30 -5 33 -11 8 -13 -45 -91 -58 -83 -6 3 -7 1 -3
-5 3 -6 -2 -15 -11 -21 -17 -9 -17 -10 -1 -16 16 -6 16 -9 1 -31 -8 -13 -11
-24 -5 -24 14 0 9 -44 -7 -51 -11 -4 -10 -9 5 -24 18 -18 18 -19 0 -12 -14 6
-17 4 -12 -9 3 -8 6 -22 6 -30 0 -9 4 -12 10 -9 6 3 7 -1 4 -9 -3 -9 -1 -16 6
-16 6 0 9 -4 5 -9 -3 -5 -1 -13 5 -16 8 -5 7 -11 -1 -21 -9 -11 -8 -14 5 -14
19 0 21 -16 4 -23 -8 -3 -6 -6 5 -6 9 -1 18 -8 18 -16 1 -8 3 -19 4 -25 1 -5
3 -13 4 -17 1 -5 6 -1 11 7 6 9 10 10 10 3 0 -6 -4 -15 -10 -18 -5 -3 -10 -11
-10 -16 0 -6 6 -7 13 -3 7 5 6 1 -3 -10 -13 -17 -15 -16 -26 15 -8 20 -13 26
-13 15 -1 -12 -6 -16 -16 -12 -12 4 -13 2 -3 -14 7 -10 16 -16 22 -13 5 3 6 1
2 -6 -6 -9 -11 -9 -22 0 -8 6 -14 7 -14 2 0 -6 10 -15 23 -21 l22 -11 -22 0
c-16 -1 -21 -5 -16 -17 3 -9 0 -20 -8 -25 -9 -6 1 -9 30 -9 56 0 49 -9 -9 -12
-36 -1 -40 -3 -26 -13 24 -18 19 -28 -6 -14 -22 12 -22 11 -8 -6 13 -16 13
-18 0 -13 -8 3 -19 -1 -25 -9 -13 -17 -58 -27 -48 -10 4 7 -1 6 -11 -2 -13
-11 -20 -11 -28 -3 -7 7 -17 12 -23 12 -5 0 -3 -5 5 -11 13 -9 13 -10 0 -6 -8
2 -20 13 -26 25 -16 33 -19 33 -19 1 0 -16 4 -29 9 -29 4 0 6 -9 3 -20 -3 -11
0 -23 6 -27 7 -4 -5 -14 -28 -24 -22 -10 -44 -15 -50 -11 -5 4 -14 7 -20 7 -5
0 -9 9 -7 20 2 16 1 17 -7 5 -5 -8 -7 -18 -5 -22 3 -4 1 -8 -5 -8 -5 0 -12 6
-15 13 -2 6 -4 2 -3 -10 1 -12 -2 -21 -8 -20 -5 1 -9 6 -7 12 2 5 -6 1 -17 -9
-11 -10 -17 -25 -14 -34 4 -10 3 -14 -2 -10 -4 4 -15 3 -22 -4 -19 -15 -53
-18 -77 -6 -12 7 -16 7 -12 0 3 -5 -2 -19 -12 -30 -16 -18 -20 -19 -46 -5 -16
8 -26 10 -22 5 4 -6 -8 -8 -33 -5 -24 3 -41 1 -46 -7 -11 -17 2 -25 19 -11 11
9 20 10 36 1 11 -6 29 -9 38 -6 10 4 27 -1 38 -9 18 -14 17 -15 -18 -11 -21 2
-35 -1 -32 -6 3 -5 12 -7 18 -5 7 3 18 -4 24 -14 13 -21 3 -26 -16 -7 -9 9
-12 8 -12 -5 0 -10 7 -20 15 -23 22 -9 18 -27 -5 -21 -11 3 -22 1 -25 -4 -3
-4 -13 -5 -23 -2 -9 3 -14 2 -9 -2 6 -7 17 -10 60 -14 5 -1 5 -6 2 -12 -4 -6
-14 -8 -23 -4 -9 3 -13 2 -8 -2 4 -4 19 -8 32 -8 20 -1 24 3 20 18 -3 11 0 17
7 14 7 -2 21 3 31 12 11 9 17 11 13 5 -4 -7 6 -10 28 -10 26 1 31 4 23 14 -14
16 -11 18 42 26 34 5 41 4 30 -5 -12 -8 -7 -9 18 -5 40 7 83 -11 61 -25 -9 -6
0 -7 25 -3 27 5 41 3 47 -7 7 -11 10 -9 15 9 7 23 28 30 39 11 4 -6 21 -9 38
-7 22 2 31 -1 33 -14 1 -11 -4 -18 -14 -18 -15 0 -15 -2 -2 -10 21 -13 43 -12
34 2 -4 7 -3 8 4 4 6 -4 9 -13 5 -22 -4 -11 -14 -13 -33 -9 -17 4 -31 1 -36
-6 -4 -8 -3 -9 5 -5 6 4 22 1 35 -7 17 -12 26 -13 35 -4 6 6 11 7 11 3 0 -5 8
-2 17 5 11 10 14 10 9 2 -4 -7 -2 -13 3 -13 6 0 11 7 11 16 0 8 5 12 10 9 6
-4 8 -11 5 -16 -4 -5 -2 -9 3 -9 19 0 21 14 5 33 -17 20 -17 20 1 14 14 -6 17
-4 12 9 -4 10 -1 14 6 12 7 -3 13 -11 13 -19 0 -8 6 -14 14 -14 8 0 16 -6 19
-13 3 -11 0 -12 -17 -3 -19 10 -21 9 -20 -11 0 -13 3 -18 5 -11 3 7 12 9 20 6
11 -4 9 -9 -9 -25 -12 -11 -17 -17 -10 -14 15 8 44 -4 38 -15 -3 -4 -13 -5
-22 -2 -11 4 -14 3 -9 -6 4 -7 17 -9 29 -6 21 6 20 5 -3 -15 -23 -20 -23 -20
-2 -10 19 9 22 8 22 -7 0 -11 3 -14 8 -7 8 11 52 14 52 3 0 -4 8 -9 18 -11 12
-4 18 1 18 13 0 10 -4 15 -8 13 -4 -3 -8 -1 -8 4 0 12 24 22 52 22 14 0 18 -5
14 -16 -3 -8 -2 -12 4 -9 6 3 10 13 10 20 0 18 41 99 53 104 4 1 0 9 -10 16
-17 13 -17 15 6 36 l23 22 -6 -24 -7 -24 22 25 c13 15 20 18 16 8 -3 -9 1 -22
10 -30 14 -11 16 -11 10 4 -3 10 -1 20 5 24 6 4 8 3 4 -4 -3 -6 -1 -14 6 -18
7 -4 10 -4 6 1 -4 4 -2 15 5 23 9 13 9 14 0 8 -7 -4 -13 -3 -13 2 0 5 9 12 20
15 11 3 20 1 20 -4 0 -4 7 -6 16 -2 13 5 13 7 2 14 -7 5 -11 9 -8 9 111 12
155 21 141 29 -10 6 -8 10 5 15 10 4 21 1 26 -6 6 -10 8 -8 8 5 0 10 8 17 21
17 13 0 18 -4 13 -12 -6 -10 -4 -10 8 0 8 7 24 9 33 5 13 -4 16 -3 11 5 -4 7
-1 12 8 12 21 0 66 21 62 29 -2 3 7 7 21 7 17 2 23 -2 19 -13 -3 -8 -1 -11 5
-8 14 9 -1 -46 -18 -63 -18 -18 -17 -27 2 -12 13 11 14 10 9 -3 -3 -9 -15 -17
-27 -19 -18 -2 -22 -9 -21 -34 1 -27 -2 -31 -19 -26 -11 3 -18 1 -14 -4 3 -6
-7 -35 -22 -67 -17 -35 -23 -58 -17 -61 7 -3 6 -5 -1 -5 -7 -1 -13 -6 -13 -12
0 -7 -10 -20 -22 -30 -11 -11 -17 -19 -12 -19 5 0 -2 -7 -15 -16 -14 -10 -21
-23 -18 -35 3 -12 -2 -20 -15 -25 -13 -4 -18 -12 -15 -25 3 -10 2 -18 -2 -17
-14 4 -51 -14 -46 -22 3 -5 12 -7 20 -3 20 7 19 -2 -2 -27 -10 -11 -27 -21
-38 -21 -17 -1 -17 -2 -2 -6 9 -2 17 -9 17 -15 0 -6 -9 -8 -20 -5 -11 3 -18 1
-15 -4 3 -4 -1 -22 -10 -38 -13 -26 -19 -30 -44 -25 -16 4 -32 1 -35 -5 -5 -7
-1 -9 9 -5 17 7 48 -14 39 -27 -3 -5 -16 -9 -30 -9 -13 0 -24 -5 -24 -11 0 -5
5 -7 10 -4 6 3 10 -1 10 -9 0 -9 -4 -16 -10 -16 -5 0 -12 -11 -16 -25 -3 -14
-11 -25 -16 -25 -6 0 -7 -7 -4 -16 3 -8 2 -13 -3 -10 -5 3 -11 -1 -15 -9 -3
-8 0 -15 6 -15 6 0 8 -3 5 -6 -4 -4 -18 1 -33 10 -14 10 -28 16 -30 13 -3 -2
7 -12 21 -21 l26 -17 -23 -20 c-13 -11 -17 -18 -11 -14 22 11 14 -9 -8 -24
-19 -11 -21 -11 -16 3 4 10 1 16 -9 16 -9 0 -12 -5 -8 -12 4 -6 3 -8 -3 -5 -6
4 -16 1 -22 -7 -9 -11 -7 -12 12 -9 14 3 29 -2 37 -11 11 -14 10 -16 -5 -10
-12 5 -16 4 -12 -3 6 -9 -43 -28 -64 -25 -3 1 -6 -5 -6 -13 0 -12 4 -11 21 1
11 8 25 14 30 14 6 0 0 -7 -12 -16 -12 -8 -19 -20 -16 -26 5 -7 1 -9 -9 -5 -8
3 -21 -1 -28 -9 -7 -8 -8 -14 -3 -13 24 4 54 -2 54 -12 0 -6 -9 -9 -20 -6 -14
3 -21 -1 -27 -17 -4 -11 -6 -24 -5 -28 1 -5 -5 -8 -13 -8 -13 0 -20 -18 -16
-42 0 -5 -6 -8 -14 -8 -8 0 -15 -4 -15 -10 0 -5 6 -7 14 -4 8 3 17 1 21 -5 11
-18 -41 -12 -56 6 -10 11 -10 14 -1 9 6 -4 12 -3 12 3 0 5 -4 12 -9 15 -5 4
-8 17 -6 31 2 22 -2 25 -29 25 -24 0 -27 -3 -16 -10 12 -8 12 -10 1 -10 -11 0
-11 -3 -1 -15 9 -11 10 -15 1 -15 -8 0 -10 -8 -6 -22 5 -20 4 -21 -5 -5 -6 9
-18 17 -27 17 -14 0 -14 -2 2 -14 13 -9 19 -25 18 -50 -1 -20 3 -33 8 -30 5 3
9 0 9 -6 0 -8 -9 -10 -25 -6 -23 6 -25 4 -21 -18 4 -22 1 -25 -22 -22 -15 2
-21 1 -14 -1 13 -5 18 -25 5 -21 -12 4 -54 -28 -46 -35 3 -4 0 -7 -8 -7 -10
-1 -8 -5 5 -15 11 -8 14 -15 8 -15 -7 0 -12 -15 -12 -39 0 -42 -23 -74 -34
-46 -3 9 -10 13 -16 10 -6 -4 -8 -9 -6 -13 2 -4 -6 -7 -19 -7 -15 0 -20 4 -15
10 5 6 7 20 5 30 -2 11 -4 26 -4 33 -1 6 -6 12 -12 12 -5 0 -7 -5 -3 -11 5 -9
-1 -10 -22 -5 -21 5 -25 4 -14 -4 11 -7 11 -10 2 -10 -8 0 -10 -5 -6 -12 4 -7
4 -10 -1 -6 -4 4 -15 2 -24 -5 -14 -10 -14 -10 -3 5 9 11 10 18 2 23 -5 3 -10
1 -10 -4 0 -6 -10 -11 -22 -11 l-21 0 21 -19 c12 -10 22 -23 22 -30 0 -6 6
-11 14 -11 8 0 17 -4 20 -8 3 -5 -8 -9 -24 -9 -17 0 -30 5 -29 11 3 26 -2 38
-15 33 -7 -3 -18 -1 -23 4 -5 5 -9 1 -9 -11 0 -15 5 -18 18 -14 25 8 23 -15
-4 -44 l-23 -24 23 6 c14 5 22 3 22 -5 0 -7 -10 -9 -29 -6 -19 4 -31 2 -34 -6
-2 -7 -8 -8 -13 -4 -5 5 -1 15 10 23 11 7 18 16 15 18 -2 2 -17 -7 -32 -20
-23 -20 -25 -24 -10 -25 12 -1 10 -3 -7 -8 -21 -6 -27 -3 -36 17 -11 24 -11
24 -17 3 -3 -11 -1 -21 4 -21 14 0 11 -48 -3 -53 -21 -7 -6 -14 45 -20 38 -4
47 -2 43 9 -3 8 -1 14 4 14 6 0 10 -4 10 -10 0 -5 7 -10 15 -10 8 0 15 -4 15
-10 0 -5 -8 -6 -17 -3 -14 5 -16 4 -7 -8 13 -17 -5 -58 -24 -51 -6 2 -12 -1
-12 -6 0 -5 -12 -8 -27 -5 -27 3 -27 3 -5 -7 13 -5 20 -14 17 -20 -4 -6 -11
-8 -16 -5 -5 4 -9 2 -9 -4 0 -5 -9 -9 -20 -8 -22 1 -27 26 -9 44 7 7 2 9 -18
7 -25 -4 -24 -3 7 9 31 13 33 15 14 21 -12 3 -30 17 -40 29 l-19 22 24 -20 23
-20 -6 35 c-12 57 -17 70 -27 70 -5 0 -9 -7 -9 -16 0 -8 -4 -13 -9 -10 -11 7
-2 46 10 46 5 0 9 6 9 13 0 7 13 14 30 15 21 2 30 -2 30 -13 0 -13 2 -13 14
-3 11 11 9 15 -13 24 -14 6 -29 9 -33 7 -4 -2 -5 4 -1 13 4 11 3 15 -4 11 -6
-4 -13 -2 -15 4 -3 9 -12 7 -29 -5 -14 -9 -29 -13 -32 -10 -4 4 -9 -1 -13 -10
-4 -11 -13 -15 -28 -11 -14 4 -17 3 -8 -3 11 -7 11 -11 0 -19 -16 -13 -70 -14
-62 -1 4 5 17 7 30 4 14 -4 24 -2 24 4 0 5 -10 10 -22 11 -16 0 -11 5 17 14
22 7 33 14 25 14 -12 1 -11 5 4 16 13 10 23 11 31 5 16 -13 37 -5 54 22 9 15
10 23 2 28 -7 3 -15 24 -18 45 -6 35 -4 38 13 31 16 -6 17 -5 6 6 -11 11 -16
10 -27 -6 -8 -10 -12 -22 -10 -27 3 -4 1 -10 -5 -14 -13 -8 -13 -55 0 -55 6 0
10 5 10 10 0 6 5 10 10 10 6 0 10 -6 10 -14 0 -19 -40 -32 -50 -16 -5 9 -9 9
-14 1 -4 -6 -12 -11 -18 -11 -6 0 -1 12 13 27 13 14 17 23 9 18 -12 -6 -13 -5
-3 6 19 20 16 25 -17 24 -17 0 -35 -7 -40 -15 -9 -13 -10 -13 -10 0 0 9 9 23
20 33 11 9 20 23 20 31 0 8 5 18 12 22 8 5 9 2 5 -10 -4 -10 -3 -15 3 -11 6 3
10 13 10 21 0 9 6 14 13 11 6 -2 10 -11 8 -18 -2 -8 -5 -23 -8 -34 -3 -16 -2
-15 6 3 6 12 17 25 26 28 13 5 12 10 -7 26 l-23 20 25 -7 c14 -4 22 -4 18 0
-4 4 0 14 8 23 12 12 20 12 40 3 31 -14 34 -14 34 -1 0 5 -3 9 -8 8 -4 -1 -20
2 -35 7 -26 7 -26 8 -10 21 10 7 26 14 36 14 10 0 16 4 13 9 -4 5 3 7 14 4 12
-3 20 0 20 6 0 7 4 10 8 7 4 -2 14 0 22 6 13 8 13 9 0 6 -18 -5 -54 29 -40 37
23 14 7 22 -30 15 -26 -5 -41 -3 -43 4 -3 8 -10 7 -26 -1 -27 -17 -41 -16 -41
1 0 7 14 17 32 22 17 5 33 15 36 23 3 10 0 11 -16 2 -35 -19 -39 -12 -5 9 40
24 42 31 5 21 -15 -4 -33 -19 -40 -34 -7 -15 -18 -27 -24 -27 -5 0 -7 -7 -4
-16 5 -14 4 -15 -9 -4 -12 10 -15 10 -16 -1 -1 -8 -4 -3 -8 11 -4 14 -15 26
-26 27 -17 2 -17 2 -3 -5 15 -6 14 -10 -7 -34 -31 -36 -38 -36 -20 0 10 18 11
28 4 31 -6 2 -1 9 9 17 11 8 28 11 38 7 11 -4 15 -3 11 4 -4 6 0 19 10 28 15
16 18 16 29 1 10 -14 13 -14 17 -2 4 9 -3 16 -19 20 -13 4 -24 11 -24 17 0 6
7 6 20 -1 16 -8 18 -8 14 4 -3 8 -15 17 -27 20 -31 8 -44 7 -29 -3 10 -6 9
-11 -4 -22 -13 -10 -16 -10 -10 -1 4 7 2 19 -4 27 -10 11 -7 15 14 21 14 3 32
19 40 36 14 27 14 29 -7 37 -23 9 -40 5 -33 -8 3 -4 -1 -8 -9 -8 -10 0 -11 5
-5 17 5 10 6 21 2 25 -4 5 -1 5 5 1 8 -5 13 -1 14 11 0 10 3 13 6 6 6 -15 29
-17 38 -4 3 5 0 13 -6 17 -8 4 -9 3 -5 -4 4 -7 2 -12 -3 -12 -17 0 -13 58 5
85 9 14 12 25 8 26 -5 0 -16 2 -25 4 -13 2 -16 -6 -14 -41 1 -25 -3 -45 -10
-48 -11 -4 -14 5 -16 49 -1 11 -3 14 -6 7 -3 -6 -10 -9 -16 -5 -7 4 -6 -1 2
-10 18 -23 6 -35 -19 -19 -11 6 -27 9 -37 6 -17 -5 -17 -5 0 9 12 10 14 17 8
22 -19 11 -12 27 9 20 11 -3 25 -3 32 1 9 6 5 10 -12 14 -22 5 -25 11 -23 45
1 21 6 41 11 44 4 3 11 14 15 24 5 13 1 17 -18 17 -25 0 -37 20 -12 20 7 1 6
5 -5 14 -16 12 -16 14 3 32 20 20 20 20 -4 31 l-24 11 -1 -101 c-1 -67 2 -95
8 -82 8 18 9 17 9 -8 1 -16 -3 -26 -9 -22 -7 4 -10 -1161 -10 -3449 l0 -3456
4205 0 4205 0 0 5250 0 5250 -4205 0 -4205 0 0 -1335z m6863 1265 c-4 -16 -2
-19 13 -14 16 5 16 4 4 -5 -25 -18 -40 -12 -40 14 0 15 6 25 14 25 9 0 12 -7
9 -20z m22 -49 c3 -5 1 -12 -5 -16 -5 -3 -10 1 -10 9 0 18 6 21 15 7z m15 -82
c-7 -11 -14 -18 -17 -15 -3 3 0 12 7 21 18 21 23 19 10 -6z m1107 15 c-3 -3
-12 -4 -19 -1 -8 3 -5 6 6 6 11 1 17 -2 13 -5z m-34 -38 c4 -10 1 -13 -9 -9
-15 6 -19 23 -5 23 5 0 11 -7 14 -14z m-46 -2 c-3 -3 -12 -4 -19 -1 -8 3 -5 6
6 6 11 1 17 -2 13 -5z m297 -19 c-4 -17 -2 -25 7 -25 11 0 11 -2 -1 -10 -20
-12 -31 18 -16 43 15 23 18 21 10 -8z m-71 -6 c4 -15 2 -18 -7 -10 -8 7 -17 6
-26 -1 -12 -8 -11 -9 4 -4 15 5 17 2 13 -14 -3 -11 0 -23 5 -27 6 -3 8 -1 4 5
-3 6 -2 13 3 17 5 3 14 -3 20 -12 6 -10 11 -13 11 -6 0 7 7 10 15 7 8 -4 12
-10 9 -15 -3 -5 1 -9 8 -9 19 0 17 -52 -2 -57 -13 -4 -13 -3 0 6 8 6 12 11 8
12 -27 5 -35 4 -47 -5 -11 -8 -13 -8 -8 0 4 7 -2 9 -21 6 -24 -5 -24 -6 -7
-13 17 -6 17 -8 3 -8 -20 -1 -24 -16 -8 -26 6 -4 7 -12 3 -18 -3 -7 3 -4 14 6
16 14 20 15 20 2 0 -8 -5 -15 -10 -15 -5 0 -4 -6 2 -14 9 -11 7 -15 -11 -19
-12 -4 -24 -4 -27 -2 -2 3 1 5 7 5 7 0 12 5 12 10 0 14 -13 12 -36 -6 -10 -8
-13 -13 -6 -9 6 3 12 1 12 -4 0 -6 -7 -11 -15 -11 -8 0 -15 -5 -15 -11 0 -5 5
-7 10 -4 6 3 10 0 10 -9 0 -8 -6 -17 -12 -19 -10 -4 -9 -8 2 -16 12 -9 11 -11
-10 -12 -14 -1 -29 -1 -33 0 -5 1 -6 -3 -2 -8 3 -6 12 -8 19 -5 8 3 17 0 21
-6 5 -8 11 -8 21 1 11 9 18 9 26 1 9 -9 7 -12 -8 -12 -24 0 -49 -36 -32 -46 6
-4 8 -3 5 3 -4 6 0 16 9 23 12 10 17 11 27 1 9 -10 8 -11 -6 -5 -16 6 -17 3
-10 -22 4 -16 8 -43 7 -60 0 -22 4 -30 13 -27 7 3 13 0 13 -7 0 -9 -10 -11
-32 -6 -25 5 -30 4 -21 -5 7 -7 23 -13 35 -15 34 -4 34 -4 18 -14 -9 -6 -19
-5 -29 3 -11 10 -13 9 -9 -3 2 -8 11 -16 19 -16 8 -1 20 -2 27 -3 17 -1 15
-18 -4 -25 -10 -4 -13 -2 -8 6 4 7 3 8 -4 4 -7 -4 -12 -17 -11 -29 0 -12 3
-16 6 -10 3 10 8 10 19 -1 17 -18 18 -27 2 -23 -7 1 -12 -4 -10 -10 1 -7 -2
-13 -7 -13 -5 0 -12 6 -14 13 -3 6 -6 2 -6 -10 -1 -12 6 -23 15 -25 17 -3 30
-58 14 -58 -5 0 -16 -3 -24 -6 -12 -5 -15 -2 -10 12 5 16 4 16 -5 4 -18 -25
-13 -33 16 -27 24 4 25 4 10 -7 -9 -7 -14 -16 -10 -20 4 -4 1 -11 -7 -16 -12
-8 -10 -10 7 -10 16 0 21 -4 17 -15 -4 -9 0 -15 7 -15 9 0 10 -3 4 -8 -14 -10
-19 -46 -6 -37 6 3 11 2 11 -4 0 -5 -5 -13 -11 -16 -6 -4 -8 -14 -5 -22 3 -8
2 -12 -2 -9 -13 8 -41 -31 -31 -41 6 -6 0 -14 -16 -21 -14 -6 -25 -7 -25 -2 0
5 -15 10 -32 12 -24 2 -39 -3 -55 -21 -21 -21 -24 -22 -38 -7 -9 9 -20 14 -25
11 -4 -3 -10 7 -13 20 -2 14 0 28 6 32 6 4 7 1 2 -8 -5 -8 -4 -11 0 -6 13 11
16 47 5 47 -20 0 -10 49 12 61 19 10 19 12 5 21 -10 5 -17 14 -17 19 0 6 5 7
11 3 7 -4 7 1 -1 16 -7 13 -8 20 -2 16 6 -3 13 -2 17 4 3 5 2 10 -3 10 -6 0
-9 8 -8 18 0 9 -5 16 -11 14 -22 -4 -14 15 8 21 12 3 18 10 14 17 -4 6 1 18
11 26 17 12 17 13 2 8 -14 -5 -18 -1 -18 15 0 12 5 21 12 21 6 0 8 3 5 6 -4 4
-13 2 -20 -4 -21 -18 -29 -1 -8 17 12 10 18 27 16 44 -2 15 2 27 8 27 7 0 4 5
-6 11 -9 5 -23 7 -30 3 -7 -5 -6 0 3 11 8 10 10 16 3 12 -6 -4 -14 -3 -18 3
-4 6 6 10 25 10 17 0 29 4 25 10 -3 5 -12 7 -20 3 -8 -3 -15 0 -15 6 0 6 8 11
18 11 10 0 19 7 19 15 0 18 -13 20 -20 3 -3 -8 -6 -6 -6 5 -1 9 -7 17 -13 18
-7 1 -2 5 12 9 17 5 19 8 8 9 -22 1 -24 21 -3 21 8 0 15 5 15 11 0 5 -4 8 -9
5 -4 -3 -17 1 -27 9 -18 14 -18 14 -1 15 10 0 15 5 12 11 -4 6 2 20 13 32 17
18 18 25 9 38 -7 9 -20 15 -29 13 -20 -2 -24 11 -8 21 6 4 8 15 5 25 -5 16 -2
18 20 14 31 -5 33 11 3 21 -15 4 -18 8 -10 12 7 3 23 -2 36 -10 16 -11 27 -12
37 -5 11 8 11 9 -3 4 -11 -3 -26 6 -43 26 -24 28 -25 32 -9 49 9 10 22 15 29
13 7 -3 16 -1 19 5 4 6 13 8 20 5 7 -3 19 2 26 11 16 19 31 20 24 1 -4 -10 1
-14 14 -13 12 0 19 4 16 8 -3 6 42 49 51 49 2 0 5 -9 8 -21z m-1303 -114 c0
-8 -4 -15 -10 -15 -5 0 -10 7 -10 15 0 8 5 15 10 15 6 0 10 -7 10 -15z m90 6
c0 -5 14 -7 30 -5 19 3 30 1 30 -6 0 -7 7 -10 15 -7 21 9 58 -25 50 -46 -4 -9
-12 -14 -19 -11 -6 3 0 -4 13 -15 19 -17 20 -21 6 -21 -15 0 -15 -1 -1 -16 9
-8 20 -13 25 -9 5 3 12 1 15 -4 4 -5 2 -13 -4 -16 -6 -4 -8 -15 -5 -26 4 -11
2 -19 -5 -19 -8 0 -8 -6 1 -21 9 -17 8 -20 -2 -14 -9 6 -11 3 -6 -8 4 -11 2
-14 -7 -11 -15 6 -17 -41 -3 -63 4 -6 4 -13 0 -16 -5 -2 -3 -2 4 -1 23 6 23
-14 0 -20 -21 -7 -21 -7 -2 -16 11 -5 16 -9 10 -10 -5 0 -2 -6 7 -13 11 -9 14
-18 7 -28 -7 -11 -11 -12 -18 -1 -6 10 -10 8 -16 -10 -14 -46 -15 -54 -1 -35
14 18 42 25 31 7 -3 -5 -1 -10 4 -10 6 0 11 -5 11 -11 0 -6 -7 -8 -16 -5 -16
6 -37 -10 -42 -33 -2 -11 0 -12 10 -4 27 21 46 22 51 2 3 -10 1 -17 -3 -14
-13 8 -41 -6 -34 -17 3 -5 16 -14 28 -19 21 -10 21 -10 -1 -5 -20 3 -21 1 -12
-15 6 -13 6 -19 -1 -19 -5 0 -10 -5 -10 -11 0 -8 4 -8 14 0 10 9 16 8 26 -4
11 -13 9 -15 -12 -15 -13 0 -28 -4 -34 -10 -6 -6 -15 -6 -24 0 -13 9 -13 11 0
20 12 7 11 9 -5 8 -11 0 -24 0 -30 2 -5 1 -25 -1 -42 -5 -24 -5 -33 -13 -34
-29 0 -11 -3 -15 -6 -8 -4 9 -8 10 -18 2 -9 -8 -17 -6 -29 5 -14 15 -16 15
-16 1 0 -9 1 -18 3 -21 4 -7 -37 -34 -53 -34 -12 0 -11 3 3 13 14 11 15 15 5
19 -8 4 -7 6 5 6 21 1 21 2 2 37 -10 20 -15 23 -15 12 0 -10 -5 -18 -11 -18
-6 0 -9 7 -5 15 3 8 1 15 -4 15 -6 0 -10 -4 -10 -10 0 -5 -5 -10 -10 -10 -7 0
-7 6 0 19 13 25 -7 41 -24 20 -6 -8 -16 -15 -21 -15 -6 -1 -21 -5 -34 -9 -21
-6 -23 -4 -19 13 10 35 -5 45 -48 33 -46 -13 -58 -6 -18 10 l29 11 -35 15
c-23 10 -36 11 -38 4 -2 -6 -13 -11 -25 -11 -20 0 -19 2 7 15 15 8 32 12 37 9
5 -2 18 0 30 7 20 10 21 12 5 21 -9 5 -25 7 -35 3 -12 -3 -21 0 -25 11 -4 11
-2 15 8 11 16 -6 46 22 46 44 0 8 6 21 13 28 10 11 7 12 -18 7 -22 -5 -26 -4
-15 4 13 8 13 11 1 19 -10 7 -7 9 12 8 15 -1 27 -6 27 -11 0 -5 9 -1 19 8 11
10 25 15 32 10 7 -4 10 -3 6 3 -4 6 1 14 10 17 15 6 15 8 3 16 -13 8 -13 10
-1 10 8 0 11 3 8 7 -4 3 -20 -8 -36 -25 -24 -28 -32 -31 -52 -23 -23 9 -23 10
-3 10 12 1 28 9 35 19 12 15 12 16 -1 6 -20 -15 -77 1 -77 21 0 17 9 19 23 5
14 -14 55 6 79 38 17 23 17 26 1 37 -15 12 -15 13 1 19 15 6 15 9 3 17 -12 8
-10 10 8 6 12 -3 20 -1 17 3 -3 5 5 11 17 13 13 2 8 3 -10 1 -27 -2 -31 0 -23
10 6 7 9 15 6 18 -3 2 2 5 10 5 8 0 12 -4 9 -9 -7 -10 15 -9 41 2 14 6 15 9 5
10 -24 2 20 18 53 19 19 1 27 -4 28 -16 1 -12 4 -10 9 7 7 22 8 22 9 4 1 -11
8 -21 16 -21 11 0 12 4 4 13 -7 9 -4 14 12 19 17 6 19 9 8 16 -20 13 -31 11
-23 -3 4 -8 3 -10 -2 -5 -5 5 -9 14 -9 20 -1 7 -7 11 -14 9 -7 -1 -11 3 -9 10
3 7 14 14 26 16 12 2 22 10 22 18 0 8 9 14 20 14 11 0 20 -4 20 -9z m1210 -41
c0 -5 -2 -10 -4 -10 -3 0 -8 5 -11 10 -3 6 -1 10 4 10 6 0 11 -4 11 -10z
m-1069 -37 c-12 -20 -14 -14 -5 12 4 9 9 14 11 11 3 -2 0 -13 -6 -23z m43 -7
c-6 -16 -8 -17 -16 -2 -11 19 0 42 13 29 6 -6 7 -18 3 -27z m1029 -41 c-3 -9
-8 -14 -10 -11 -3 3 -2 9 2 15 9 16 15 13 8 -4z m-6773 -115 c-6 -12 -9 -28
-6 -35 6 -16 -17 -38 -28 -28 -4 4 -4 0 0 -10 3 -9 11 -17 17 -17 6 0 7 -3 4
-6 -4 -4 -13 -2 -21 5 -11 9 -13 6 -11 -19 1 -16 -1 -30 -5 -30 -4 0 -10 -9
-13 -21 -3 -12 -10 -18 -15 -15 -12 7 -22 -16 -22 -49 0 -12 -7 -26 -16 -29
-11 -4 -14 -13 -10 -30 4 -16 0 -28 -11 -37 -9 -8 -22 -28 -30 -46 -9 -24 -18
-31 -31 -27 -14 5 -15 4 -2 -5 13 -9 13 -12 1 -20 -8 -5 -11 -16 -8 -25 3 -8
2 -18 -4 -21 -5 -4 -7 -11 -4 -16 4 -5 -1 -9 -9 -9 -8 0 -17 -9 -21 -19 -3
-10 -14 -21 -25 -24 -17 -4 -18 -2 -9 15 17 32 5 30 -13 -3 -16 -28 -16 -29 2
-29 11 0 20 -7 20 -15 0 -8 -5 -15 -11 -15 -5 0 -7 -4 -4 -10 4 -6 -13 -11
-42 -11 -47 -2 -47 -2 -11 -8 36 -6 37 -7 25 -31 -7 -14 -21 -25 -31 -25 -9 0
-22 -9 -28 -20 -9 -17 -8 -18 3 -7 13 12 38 18 26 5 -4 -3 -2 -12 4 -20 7 -8
8 -13 1 -13 -16 0 -23 -30 -12 -51 9 -15 7 -19 -7 -19 -11 0 -1 -12 27 -32 52
-39 119 -50 182 -31 24 7 63 18 88 23 65 14 123 32 137 42 7 6 14 2 18 -12 l7
-22 23 22 c32 30 128 54 156 40 11 -7 18 -14 15 -17 -3 -4 1 -14 10 -24 10
-11 12 -19 5 -24 -6 -3 -11 -11 -11 -16 0 -6 5 -7 10 -4 6 3 10 2 10 -4 0 -18
-45 -17 -62 3 -10 10 -19 14 -19 8 -4 -38 -2 -47 11 -43 22 5 69 5 75 -1 3 -3
3 -13 -1 -22 -5 -13 -14 -15 -39 -10 -20 3 -35 1 -40 -6 -4 -7 -2 -10 6 -9 8
2 25 0 40 -4 22 -6 25 -11 21 -43 -4 -30 -8 -35 -24 -31 -16 4 -17 3 -7 -9 6
-8 18 -14 26 -14 8 0 11 -5 7 -12 -4 -6 -8 -35 -9 -64 -2 -29 -6 -57 -9 -63
-4 -6 -1 -11 7 -11 11 0 13 -11 9 -47 -2 -27 -8 -55 -12 -62 -5 -8 -4 -25 1
-38 6 -15 5 -23 -2 -23 -8 0 -8 -4 0 -14 7 -8 10 -35 8 -65 -2 -28 0 -51 5
-51 11 0 -2 -53 -16 -62 -6 -4 0 -8 14 -8 l25 -1 -22 -18 c-15 -12 -18 -22
-12 -32 12 -19 11 -32 -1 -24 -5 3 -10 1 -10 -4 0 -6 7 -11 15 -11 8 0 15 -7
15 -16 0 -8 -5 -12 -11 -9 -7 5 -9 -5 -7 -26 2 -23 8 -33 17 -31 11 2 10 -2
-3 -22 -9 -14 -16 -38 -16 -54 0 -21 -5 -28 -21 -29 -31 -3 -50 -23 -21 -23
12 0 22 -4 22 -10 0 -5 -7 -10 -15 -10 -8 0 -15 -4 -15 -10 0 -5 6 -7 13 -4 8
3 20 -2 27 -11 7 -8 20 -15 29 -16 11 0 9 -3 -6 -9 -13 -5 -23 -14 -23 -20 0
-6 5 -8 10 -5 6 3 10 3 10 -2 -1 -10 -30 -49 -30 -39 0 4 -7 0 -16 -8 -8 -9
-12 -21 -8 -28 6 -9 3 -9 -9 1 -9 7 -14 17 -11 22 3 5 0 9 -6 9 -7 0 -9 -8 -5
-21 5 -14 3 -19 -3 -15 -6 4 -11 -5 -11 -21 -2 -60 -4 -65 -23 -60 -15 4 -18
1 -13 -14 4 -11 2 -19 -5 -19 -6 0 -8 -4 -5 -10 3 -5 1 -18 -4 -27 -10 -17
-10 -16 -11 2 -1 20 -1 20 -16 0 -13 -17 -16 -18 -24 -5 -5 8 -10 18 -10 21 0
17 -34 18 -45 2 -8 -10 -17 -15 -21 -10 -4 4 -2 7 4 7 7 0 12 5 12 11 0 6 -6
9 -12 6 -7 -2 -24 0 -38 4 -24 9 -24 8 -6 -6 11 -8 15 -15 9 -15 -6 0 -16 7
-23 15 -7 8 -21 15 -32 15 -10 0 -21 7 -24 15 -4 8 -11 12 -18 8 -6 -4 -15 -8
-21 -10 -5 -1 -20 -4 -32 -7 -13 -3 -25 0 -28 5 -4 5 -11 6 -17 3 -7 -4 -8 -2
-4 4 4 7 2 12 -4 12 -6 0 -8 4 -5 10 3 6 -1 7 -10 3 -13 -5 -14 -7 -3 -14 9
-6 7 -9 -9 -9 -12 0 -25 5 -28 10 -5 8 -11 8 -19 1 -16 -14 -70 -6 -98 13 -12
9 -17 16 -10 16 6 0 12 5 12 11 0 6 -6 9 -14 6 -10 -4 -12 3 -9 29 3 28 0 34
-15 34 -15 0 -18 7 -17 34 0 18 7 42 15 51 12 14 12 19 3 22 -7 3 -13 9 -13
14 0 5 6 8 13 7 8 -2 12 9 11 34 -1 23 4 39 12 42 8 3 14 16 14 30 0 14 5 28
11 31 6 4 8 13 5 21 -3 8 1 14 11 14 13 0 14 2 2 17 -12 15 -12 16 1 8 12 -7
13 -6 4 6 -7 8 -12 36 -13 63 0 26 -4 53 -9 60 -4 6 -8 23 -7 39 0 15 -3 27
-8 27 -5 0 -7 7 -4 15 4 8 1 17 -4 21 -6 3 -9 15 -6 25 3 11 -1 20 -12 24 -9
2 -22 15 -30 27 l-14 23 23 -20 23 -20 -18 28 c-9 15 -21 27 -25 27 -19 0 -40
33 -35 54 5 15 4 17 -3 7 -6 -8 -12 -10 -16 -3 -4 6 1 15 9 20 15 8 15 10 1
21 -18 15 -21 66 -5 76 7 5 5 12 -4 23 -12 14 -15 44 -13 147 1 72 6 136 10
143 4 7 2 12 -6 12 -9 0 -9 3 -2 8 6 4 11 44 12 92 1 102 4 130 14 130 4 0 5
6 2 14 -3 8 0 17 5 21 6 3 9 11 6 16 -4 5 1 12 9 15 9 3 13 10 10 15 -3 6 12
27 33 47 32 32 65 84 65 102 0 3 6 9 14 13 8 5 12 12 9 17 -3 5 2 17 10 27 9
10 37 49 61 88 25 38 49 72 54 75 5 3 11 16 13 28 2 12 20 38 40 57 20 19 37
39 37 44 0 5 7 11 14 14 11 4 13 1 9 -10 -5 -12 2 -10 25 7 17 13 37 20 46 17
9 -4 16 -1 16 5 0 6 3 9 6 6 3 -4 0 -16 -6 -28z m5310 20 c0 -5 -4 -10 -10
-10 -5 0 -10 5 -10 10 0 6 5 10 10 10 6 0 10 -4 10 -10z m-84 -17 c-2 -9 -9
-19 -17 -21 -8 -3 -17 -10 -21 -16 -5 -7 -8 -7 -8 2 0 7 -4 10 -10 7 -5 -3
-10 -1 -10 5 0 7 7 10 15 6 9 -3 23 3 32 14 21 24 22 24 19 3z m54 -6 c0 -1
-9 -10 -20 -20 -16 -13 -20 -14 -20 -3 0 8 8 17 18 19 9 3 18 5 20 6 1 0 2 0
2 -2z m-203 -23 c-3 -3 -12 -4 -19 -1 -8 3 -5 6 6 6 11 1 17 -2 13 -5z m48
-74 c3 -5 1 -10 -4 -10 -6 0 -11 5 -11 10 0 6 2 10 4 10 3 0 8 -4 11 -10z
m1432 -65 c0 -8 -4 -12 -9 -9 -5 3 -6 10 -3 15 9 13 12 11 12 -6z m-6292 -65
c-4 -7 2 -9 19 -4 14 3 26 2 26 -3 0 -7 -44 -10 -58 -4 -5 2 8 21 14 21 3 0 2
-5 -1 -10z m-10 -60 c-3 -5 -13 -10 -21 -10 -8 0 -12 5 -9 10 3 6 13 10 21 10
8 0 12 -4 9 -10z m25 -20 c0 -5 -9 -10 -21 -10 -12 0 -23 -8 -26 -20 -6 -21
-28 -27 -38 -10 -3 6 2 10 12 11 13 0 14 2 4 6 -10 4 -5 10 15 19 36 16 54 17
54 4z m4855 -16 c-20 -15 -37 -14 -42 2 -2 5 11 10 29 10 29 1 30 0 13 -12z
m1420 6 c3 -6 -1 -7 -9 -4 -18 7 -21 14 -7 14 6 0 13 -4 16 -10z m-1465 -30
c0 -5 -4 -10 -10 -10 -5 0 -10 5 -10 10 0 6 5 10 10 10 6 0 10 -4 10 -10z
m-14 -27 c-3 -3 -17 -2 -33 1 -20 6 -23 10 -13 16 14 9 57 -7 46 -17z m-4844
0 c-18 -2 -30 -9 -26 -14 3 -5 9 -7 14 -4 4 3 11 -2 14 -11 4 -10 2 -13 -6 -8
-7 5 -9 2 -5 -8 6 -16 -4 -17 -35 -4 -9 4 -22 5 -28 1 -5 -3 -10 -2 -10 4 0 5
9 12 19 16 11 3 18 12 15 19 -3 8 8 12 38 13 33 0 36 -1 10 -4z m4898 -3 c8
-5 11 -10 5 -10 -5 0 -17 5 -25 10 -8 5 -10 10 -5 10 6 0 17 -5 25 -10z m247
-22 c-3 -8 -6 -5 -6 6 -1 11 2 17 5 13 3 -3 4 -12 1 -19z m273 1 c0 -5 -4 -8
-9 -5 -5 4 -11 0 -14 -6 -2 -7 -8 -10 -12 -6 -4 4 -4 11 0 17 8 14 35 14 35 0z
m1126 -16 c-10 -10 -19 5 -10 18 6 11 8 11 12 0 2 -7 1 -15 -2 -18z m-1428
-10 c-8 -10 1 -11 36 -8 25 3 46 2 46 -3 0 -4 -10 -8 -22 -9 -11 -1 -25 -8
-29 -15 -6 -8 -9 -9 -9 -2 0 8 -31 11 -100 10 -55 -1 -100 1 -100 5 0 3 -12 5
-27 3 l-28 -4 30 14 c17 8 32 10 33 5 6 -14 79 -11 85 4 3 9 21 14 50 13 34
-1 43 -4 35 -13z m380 -1 c-21 -4 -19 -40 3 -47 11 -4 15 -13 12 -24 -5 -21
28 -38 48 -25 8 4 9 3 5 -4 -4 -7 -16 -12 -28 -12 -17 0 -18 -2 -8 -15 11 -13
10 -15 -6 -10 -14 4 -13 2 3 -6 41 -21 36 -39 -10 -40 -23 -1 -32 -4 -20 -6
20 -4 63 -53 45 -53 -4 0 -8 -8 -8 -17 -1 -10 -5 -26 -9 -37 -6 -14 -5 -18 5
-14 7 2 15 17 17 34 2 16 11 36 20 44 14 13 15 13 9 -5 -6 -16 -5 -18 5 -7 7
6 17 12 21 12 14 0 9 -37 -7 -50 -12 -10 -15 -9 -15 6 0 16 -2 17 -10 4 -5 -8
-7 -23 -4 -32 4 -13 0 -18 -16 -18 -12 0 -30 -5 -41 -10 -14 -8 -19 -7 -19 1
0 8 -5 7 -17 -2 -15 -12 -16 -12 -10 3 4 12 2 15 -9 11 -7 -3 -14 -1 -14 5 0
6 6 12 13 15 7 3 1 9 -14 15 -21 8 -26 16 -24 37 3 20 0 25 -11 21 -16 -6 -20
34 -4 50 6 6 3 10 -10 11 -11 1 -18 -2 -15 -7 3 -4 -1 -11 -7 -14 -10 -5 -10
-7 0 -12 6 -3 12 -12 12 -19 0 -9 -18 -14 -60 -17 -33 -1 -61 0 -63 3 -1 4
-13 10 -27 14 -25 7 -25 7 4 -18 l28 -25 -26 5 c-15 3 -31 14 -36 24 -6 10
-17 16 -25 13 -8 -4 -15 -1 -15 5 0 6 -8 8 -17 4 -16 -6 -16 -5 -4 11 11 13
16 14 23 4 8 -10 11 -10 15 0 2 6 9 9 15 6 5 -3 4 3 -3 14 -7 11 -18 18 -25
15 -7 -2 -13 8 -16 26 -5 36 6 61 16 36 3 -9 4 -21 0 -26 -3 -5 -1 -9 4 -9 18
0 20 50 3 60 -23 13 -11 17 29 9 19 -3 26 -7 15 -8 -15 -1 -20 -8 -20 -26 2
-27 15 -48 15 -23 0 23 26 42 36 27 4 -8 3 -9 -4 -5 -7 4 -12 1 -12 -8 0 -9 2
-16 4 -16 2 0 12 -3 20 -6 12 -4 15 -2 10 9 -3 8 -1 18 5 22 6 3 11 -2 12 -12
0 -16 1 -16 9 2 7 17 9 17 9 3 1 -10 6 -18 12 -18 6 0 9 7 5 15 -3 8 -1 15 4
15 6 0 10 -9 10 -21 0 -16 4 -19 20 -14 11 4 20 2 20 -4 0 -6 7 -11 15 -11 8
0 15 5 15 11 0 5 -4 7 -10 4 -6 -3 -10 5 -10 19 0 14 -4 28 -10 31 -5 3 -10
11 -10 17 0 7 5 7 14 -1 11 -9 15 -7 18 7 5 18 -14 45 -26 36 -3 -2 -4 -1 -1
3 3 4 11 8 18 10 65 15 70 15 63 4 -4 -6 -12 -9 -17 -6 -5 4 -9 1 -9 -5 0 -7
6 -10 14 -7 7 3 18 1 24 -5 7 -7 10 -5 8 8 -5 27 1 33 27 26 17 -5 18 -7 5
-10z m-1175 -19 c-7 -2 -19 -2 -25 0 -7 3 -2 5 12 5 14 0 19 -2 13 -5z m1204
-8 c0 -7 -6 -12 -13 -12 -7 0 -11 4 -8 8 2 4 -2 9 -8 12 -7 3 -4 5 8 4 11 -1
21 -6 21 -12z m-902 -5 c3 -5 -1 -10 -10 -10 -9 0 -13 5 -10 10 3 6 8 10 10
10 2 0 7 -4 10 -10z m265 -26 c-19 -7 -46 -13 -60 -13 -24 0 -24 1 -4 9 12 5
24 13 28 18 3 5 20 6 38 4 l33 -5 -35 -13z m388 1 c-3 -3 -9 2 -12 12 -6 14
-5 15 5 6 7 -7 10 -15 7 -18z m-323 5 c-3 -5 -10 -10 -16 -10 -5 0 -9 5 -9 10
0 6 7 10 16 10 8 0 12 -4 9 -10z m115 0 c0 -5 -3 -10 -7 -10 -5 0 -19 -3 -32
-7 -17 -4 -22 -3 -17 6 4 6 12 9 17 6 5 -4 9 -1 9 4 0 6 7 11 15 11 8 0 15 -4
15 -10z m177 -12 c-3 -8 -6 -5 -6 6 -1 11 2 17 5 13 3 -3 4 -12 1 -19z m-897
-14 c0 -12 -2 -12 -14 -2 -8 7 -12 16 -9 21 7 11 23 -2 23 -19z m609 -15 c-36
-46 -55 -57 -72 -40 -6 6 -15 11 -21 11 -6 0 -5 -5 2 -12 15 -15 15 -28 1 -28
-5 0 -8 4 -5 9 4 5 -6 14 -21 19 -24 9 -25 11 -7 11 23 1 47 23 39 34 -3 4 -2
5 2 2 3 -3 12 0 19 6 8 6 20 9 28 6 8 -3 22 1 33 8 34 26 35 15 2 -26z m-752
16 c0 -8 -4 -12 -9 -9 -5 3 -6 10 -3 15 9 13 12 11 12 -6z m1145 -2 c20 -18
24 -33 8 -33 -5 0 -10 7 -10 15 0 7 -8 19 -17 24 -10 6 -14 11 -9 11 5 0 18
-7 28 -17z m-1327 -2 c3 -5 2 -12 -3 -15 -5 -3 -9 1 -9 9 0 17 3 19 12 6z
m119 -6 c-4 -9 -14 -13 -23 -11 -9 3 -22 2 -30 -3 -9 -6 -5 -8 15 -7 16 1 34
5 40 9 7 4 14 -2 17 -16 4 -15 14 -22 31 -22 14 0 28 6 31 13 2 6 -3 12 -13
12 -14 0 -15 2 -2 10 15 9 33 -7 24 -22 -3 -4 6 -8 20 -8 33 0 57 -10 50 -21
-8 -13 -58 -11 -72 3 -9 9 -12 9 -12 -2 0 -12 -2 -12 -8 -2 -6 9 -16 10 -33 4
-13 -4 -35 -6 -49 -4 -14 2 -35 3 -47 4 -24 0 -33 17 -10 19 10 0 10 2 0 6
-14 5 -18 35 -6 46 3 4 23 7 44 7 30 0 37 -3 33 -15z m125 5 c-10 -7 -49 -2
-49 5 0 2 14 3 31 3 17 -1 25 -4 18 -8z m591 -10 c0 -5 -4 -10 -10 -10 -5 0
-10 5 -10 10 0 6 5 10 10 10 6 0 10 -4 10 -10z m-577 -17 c-7 -2 -19 -2 -25 0
-7 3 -2 5 12 5 14 0 19 -2 13 -5z m1294 -19 c-3 -3 -12 -4 -19 -1 -8 3 -5 6 6
6 11 1 17 -2 13 -5z m-597 -14 c0 -14 -28 -19 -33 -6 -3 6 4 13 14 13 10 1 19
-2 19 -7z m-797 -46 c-3 -8 -12 -14 -20 -14 -8 0 -12 4 -8 9 3 5 -3 11 -12 14
-10 2 -4 4 14 4 22 0 30 -4 26 -13z m115 10 c-3 -3 -25 -7 -49 -9 -30 -3 -39
-1 -29 5 16 10 87 14 78 4z m747 -4 c-3 -5 -1 -10 4 -10 6 0 11 -4 11 -9 0 -8
-19 -8 -60 -2 -3 1 6 8 20 15 32 18 32 18 25 6z m-905 -30 c0 -11 -4 -20 -10
-20 -5 0 -10 6 -10 14 0 8 -8 17 -17 19 -11 3 -7 5 10 6 21 1 27 -4 27 -19z
m2295 9 c16 -7 13 -8 -12 -4 -21 3 -33 0 -33 -7 0 -6 -3 -9 -6 -5 -9 8 5 27
19 26 7 0 21 -5 32 -10z m83 -4 c-2 -1 -16 -5 -33 -9 l-30 -6 25 14 c14 8 28
12 33 9 5 -3 7 -6 5 -8z m-6112 -9 c14 -15 20 -41 7 -33 -5 3 -6 -42 -5 -99 2
-58 0 -112 -4 -122 -4 -9 -6 -23 -5 -31 4 -23 -21 -64 -30 -49 -4 7 -3 18 3
25 6 7 7 13 2 13 -10 0 -16 273 -7 296 7 18 21 18 39 0z m4585 -3 c13 -17 13
-17 -6 -3 -11 8 -22 16 -24 17 -2 2 0 3 6 3 6 0 17 -8 24 -17z m49 -3 c0 -5
-7 -10 -16 -10 -8 0 -12 5 -9 10 3 6 10 10 16 10 5 0 9 -4 9 -10z m-750 -10
c0 -5 -2 -10 -4 -10 -3 0 -8 5 -11 10 -3 6 -1 10 4 10 6 0 11 -4 11 -10z m796
-4 c16 5 16 4 4 -5 -13 -9 -11 -12 8 -17 18 -5 20 -9 10 -15 -9 -6 -7 -9 10
-9 13 0 22 -6 22 -15 0 -8 -5 -15 -11 -15 -5 0 -8 4 -5 9 3 5 -6 9 -19 9 -14
0 -25 -5 -25 -11 0 -7 -4 -7 -12 1 -15 15 -32 16 -23 2 8 -12 -5 -13 -24 -1
-11 7 -9 10 8 16 11 3 21 11 21 16 0 6 -5 7 -12 3 -6 -4 -8 -3 -4 4 3 5 3 12
-1 15 -5 2 -2 2 5 1 6 -2 12 4 12 14 0 13 2 14 8 4 5 -7 17 -10 28 -6z m-843
-10 c3 3 14 1 24 -5 14 -8 6 -10 -34 -7 -29 1 -53 -1 -53 -6 0 -4 12 -8 28 -8
21 0 24 -2 12 -10 -10 -6 -11 -10 -2 -10 6 0 12 -4 12 -10 0 -19 -76 -11 -95
10 -27 29 -26 45 0 45 13 0 21 -3 18 -7 -6 -11 1 -10 33 7 18 9 32 11 39 5 7
-6 14 -7 18 -4z m767 -11 c9 -10 9 -15 1 -15 -6 0 -11 -12 -11 -27 0 -20 -3
-24 -9 -14 -5 7 -14 10 -20 7 -7 -4 -11 0 -11 11 0 11 -6 25 -12 32 -11 10
-10 11 5 6 9 -4 17 -11 17 -16 0 -5 5 -9 11 -9 6 0 8 9 4 20 -7 24 7 26 25 5z
m373 1 c4 -9 -3 -16 -18 -18 -21 -4 -23 -3 -14 13 12 22 25 24 32 5z m-463
-11 c0 -7 8 -19 18 -24 15 -9 13 -10 -9 -11 -21 0 -28 6 -31 25 -4 17 -1 25 8
25 8 0 14 -7 14 -15z m250 1 c0 -3 -4 -8 -10 -11 -5 -3 -10 -1 -10 4 0 6 5 11
10 11 6 0 10 -2 10 -4z m-90 -77 c0 -5 -4 -9 -10 -9 -5 0 -10 7 -10 16 0 8 5
12 10 9 6 -3 10 -10 10 -16z m35 11 c-3 -5 -10 -10 -16 -10 -5 0 -9 5 -9 10 0
6 7 10 16 10 8 0 12 -4 9 -10z m-421 -32 c7 -5 5 -8 -5 -8 -9 0 -19 -9 -22
-20 -6 -23 11 -27 19 -5 4 8 10 15 15 15 6 0 5 -9 -1 -20 -9 -18 -20 -20 -70
-18 -32 1 -56 6 -54 10 3 4 12 8 20 8 8 0 17 7 20 15 4 8 11 12 17 8 6 -4 3
-11 -8 -19 -16 -12 -16 -13 4 -11 22 1 39 29 22 35 -6 2 -11 11 -11 20 0 15 2
15 10 2 7 -12 10 -11 16 5 6 14 9 16 12 4 3 -7 10 -17 16 -21z m213 17 c5 -4
2 -5 -4 -1 -7 4 -13 2 -13 -4 0 -6 -4 -8 -10 -5 -6 3 -7 -1 -4 -9 5 -12 0 -16
-22 -15 -17 1 -22 3 -11 6 15 4 21 14 19 34 -1 9 36 4 45 -6z m152 -27 c1 -5
-7 -8 -16 -8 -15 0 -16 2 -3 10 9 6 11 10 3 10 -7 0 -10 7 -6 17 6 15 7 15 14
-3 4 -10 8 -22 8 -26z m71 22 c-8 -5 -19 -10 -25 -10 -5 0 -3 5 5 10 8 5 20
10 25 10 6 0 3 -5 -5 -10z m-196 -13 c-3 -9 7 -18 28 -25 18 -6 24 -10 13 -8
-11 1 -35 -6 -52 -16 -21 -13 -33 -15 -33 -8 0 7 9 14 20 17 11 3 20 8 20 12
0 4 -9 7 -20 7 -11 0 -20 -4 -20 -8 0 -4 -7 -8 -15 -8 -12 0 -12 3 3 18 9 10
22 17 28 15 7 -3 15 0 19 6 9 15 15 14 9 -2z m419 0 c6 -15 -29 -21 -38 -6 -3
5 1 6 9 3 9 -3 16 -1 16 5 0 15 7 14 13 -2z m108 -4 c1 -17 2 -17 6 0 4 17 33
25 33 9 0 -16 -49 -51 -54 -39 -2 7 -5 4 -5 -7 -1 -15 -4 -16 -15 -7 -18 15
-17 53 1 47 7 -3 13 -1 13 4 0 18 20 10 21 -7z m-461 -3 c0 -5 -4 -10 -10 -10
-5 0 -10 5 -10 10 0 6 5 10 10 10 6 0 10 -4 10 -10z m110 -6 c0 -2 -7 -4 -15
-4 -8 0 -15 4 -15 10 0 5 7 7 15 4 8 -4 15 -8 15 -10z m-93 -31 c-3 -10 -5 -4
-5 12 0 17 2 24 5 18 2 -7 2 -21 0 -30z m-541 2 c0 -14 -5 -25 -9 -25 -5 0 -5
-5 -1 -12 5 -7 3 -8 -5 -4 -7 5 -10 14 -7 22 3 8 0 11 -10 7 -18 -7 -18 -17 1
-33 17 -14 20 -30 4 -30 -5 0 -8 4 -4 9 3 6 -7 9 -22 8 -18 -1 -27 3 -25 11 1
6 -3 12 -8 12 -6 0 -10 -8 -8 -17 2 -14 -5 -19 -30 -21 -52 -5 -16 -27 44 -27
41 1 51 -2 46 -14 -4 -10 -1 -12 8 -6 8 5 11 4 7 -2 -4 -6 0 -16 8 -23 12 -10
16 -9 21 3 3 8 13 14 22 12 9 -2 24 -4 32 -5 10 -1 11 -3 3 -7 -7 -2 -13 -8
-13 -13 0 -13 48 -18 62 -6 10 9 11 8 1 -3 -10 -11 -8 -20 8 -43 11 -15 25
-25 31 -22 7 4 8 2 4 -5 -6 -9 -11 -9 -21 -1 -8 7 -15 7 -19 1 -4 -5 -2 -12 4
-16 5 -3 10 -11 10 -18 0 -6 -7 -4 -17 5 -12 13 -13 20 -5 30 7 10 7 18 -4 32
-12 17 -14 18 -20 2 -5 -12 -10 -14 -19 -6 -9 7 -22 5 -45 -7 -25 -14 -34 -15
-37 -5 -3 6 -9 12 -14 12 -6 0 -7 -4 -4 -10 3 -6 -1 -7 -10 -3 -13 4 -14 8 -4
13 9 6 8 12 -5 25 -11 12 -14 21 -8 27 11 11 32 2 32 -13 0 -6 -6 -7 -12 -3
-9 5 -9 3 1 -9 21 -27 34 -8 15 21 -25 38 -44 56 -44 42 0 -6 -4 -9 -9 -5 -5
3 -13 0 -16 -6 -11 -17 3 -23 20 -9 18 15 19 1 1 -22 -9 -12 -16 -14 -23 -7
-12 12 -43 -14 -43 -36 0 -18 -85 -32 -103 -16 -39 32 -72 158 -36 135 8 -4 9
1 5 17 l-6 24 11 -22 c8 -16 21 -23 41 -23 18 0 27 -4 23 -11 -4 -6 2 -5 14 3
12 7 17 14 11 16 -5 2 -10 8 -10 13 0 6 4 7 10 4 6 -3 7 1 4 9 -4 9 -1 16 6
16 7 0 10 6 7 13 -3 7 3 13 12 14 45 3 71 8 71 15 0 4 7 8 16 8 13 0 14 -3 4
-14 -10 -13 -7 -13 19 -3 17 6 31 15 31 19 0 4 2 8 4 8 2 0 3 -11 2 -25z m41
-7 c-4 -13 -1 -18 7 -15 6 3 13 -3 13 -13 2 -18 -24 -36 -35 -25 -3 3 0 5 6 5
7 0 12 5 12 10 0 6 -7 10 -16 8 -20 -4 -28 30 -12 49 14 18 31 5 25 -19z m246
18 c22 -17 22 -43 -2 -55 -25 -14 -64 13 -41 29 11 7 16 6 18 -5 3 -15 32 -9
32 7 0 5 -5 6 -12 2 -7 -4 -8 -3 -4 4 5 8 0 12 -13 12 -12 0 -21 5 -21 10 0
14 22 12 43 -4z m61 5 c3 -5 -3 -11 -15 -14 -16 -4 -18 -3 -8 9 13 16 16 17
23 5z m292 -6 c-11 -8 -28 -15 -37 -15 -10 0 -25 -3 -35 -7 -12 -4 -15 -2 -12
8 3 8 15 13 31 11 15 -2 34 1 44 7 26 15 31 13 9 -4z m-266 -16 c0 -5 5 -7 12
-3 6 4 8 3 5 -4 -4 -5 -17 -8 -30 -6 l-22 5 23 -12 c12 -7 22 -16 22 -21 0
-11 -36 8 -46 23 -3 6 0 15 7 20 19 12 29 11 29 -2z m685 1 c3 -6 -1 -7 -9 -4
-18 7 -21 14 -7 14 6 0 13 -4 16 -10z m-145 -10 c0 -5 -2 -10 -4 -10 -3 0 -8
5 -11 10 -3 6 -1 10 4 10 6 0 11 -4 11 -10z m-5365 -9 c3 -5 2 -12 -3 -15 -5
-3 -9 1 -9 9 0 17 3 19 12 6z m4945 -7 c0 -2 -7 -4 -15 -4 -8 0 -15 4 -15 10
0 5 7 7 15 4 8 -4 15 -8 15 -10z m-273 0 c-3 -3 -12 -4 -19 -1 -8 3 -5 6 6 6
11 1 17 -2 13 -5z m356 -7 c6 -17 -3 -32 -24 -39 -11 -5 -15 -15 -13 -35 2
-15 1 -21 -2 -13 -4 8 -13 21 -22 28 -14 11 -14 12 1 12 9 0 17 5 17 10 0 6
-9 10 -20 10 -11 0 -20 -2 -20 -4 0 -2 -3 -11 -6 -19 -3 -9 3 -16 16 -20 13
-3 19 -10 15 -16 -3 -6 -10 -9 -15 -6 -5 3 -11 1 -15 -5 -3 -5 -11 -10 -17
-10 -7 0 -6 5 1 14 8 10 9 16 1 21 -5 3 -10 1 -10 -4 0 -6 -9 -11 -20 -11 -12
0 -20 7 -20 16 0 13 3 14 14 5 11 -9 15 -8 20 4 3 9 2 13 -3 10 -5 -3 -12 -1
-16 4 -3 6 -13 8 -23 5 -14 -5 -14 -3 2 6 10 7 21 8 25 4 3 -5 14 -10 23 -12
12 -2 16 3 14 15 -3 15 3 18 34 18 21 0 36 -3 33 -7 -2 -5 1 -8 6 -8 17 0 13
18 -6 29 -16 9 -16 10 3 11 12 0 24 -6 27 -13z m-128 -7 c3 -6 -1 -7 -9 -4
-18 7 -21 14 -7 14 6 0 13 -4 16 -10z m442 -16 c-2 -2 -12 -1 -22 3 -18 6 -18
7 1 13 17 7 33 -5 21 -16z m-1087 -1 c0 -3 -7 -3 -15 1 -8 3 -15 1 -15 -4 0
-6 -5 -10 -11 -10 -8 0 -8 4 1 14 10 13 40 12 40 -1z m425 7 c17 -7 14 -9 -13
-9 -20 -1 -31 3 -27 9 7 12 13 12 40 0z m375 -25 c-7 -8 -17 -15 -22 -15 -11
0 14 29 26 30 5 0 3 -7 -4 -15z m-215 -7 c5 4 5 2 1 -5 -3 -6 2 -16 11 -22 10
-6 13 -11 6 -11 -6 0 -15 5 -18 10 -4 6 -12 7 -18 4 -7 -4 -9 -4 -5 1 4 4 2
15 -5 24 -10 14 -10 14 4 4 9 -7 20 -9 24 -5z m-161 -13 c-4 -8 -11 -12 -16
-9 -6 4 -5 10 3 15 19 12 19 11 13 -6z m-217 -1 c-3 -3 -12 -4 -19 -1 -8 3 -5
6 6 6 11 1 17 -2 13 -5z m802 -43 c10 -7 9 -11 -8 -23 -11 -8 -18 -18 -14 -21
3 -4 1 -7 -5 -7 -6 0 -14 5 -17 10 -3 6 -1 10 5 10 6 0 8 4 5 10 -3 6 1 7 9 4
9 -3 16 -1 16 4 0 6 -8 13 -17 15 -13 3 -14 5 -3 6 8 0 21 -3 29 -8z m-309
-16 c0 -8 -4 -15 -10 -15 -5 0 -7 7 -4 15 4 8 8 15 10 15 2 0 4 -7 4 -15z
m-6124 -13 c-3 -6 -16 -7 -29 -4 -22 6 -22 6 3 12 28 8 35 6 26 -8z m6364 14
c0 -2 -7 -6 -15 -10 -8 -3 -15 -1 -15 4 0 6 7 10 15 10 8 0 15 -2 15 -4z
m-4510 -31 c0 -14 -4 -25 -10 -25 -5 0 -10 11 -10 25 0 14 5 25 10 25 6 0 10
-11 10 -25z m3674 9 c3 -8 2 -12 -4 -9 -6 3 -10 10 -10 16 0 14 7 11 14 -7z
m575 -41 c-6 -7 -14 -13 -16 -13 -3 0 0 6 6 13 14 18 4 27 -28 27 -24 0 -24 1
-6 14 17 12 22 12 37 -7 14 -15 15 -23 7 -34z m171 47 c-8 -5 -19 -10 -25 -10
-5 0 -3 5 5 10 8 5 20 10 25 10 6 0 3 -5 -5 -10z m-4379 -11 c11 -5 17 -14 14
-20 -4 -5 0 -9 8 -9 30 0 91 -87 77 -110 -8 -13 -11 -12 -23 4 -13 17 -14 17
-30 1 -10 -9 -15 -20 -12 -25 6 -10 -1 -15 -38 -24 -19 -4 -26 -3 -22 4 3 5
18 11 33 11 l27 1 -25 7 c-15 4 -26 14 -26 26 -1 11 -4 32 -7 48 -3 15 -2 27
3 27 4 0 4 16 0 35 -9 38 -8 40 21 24z m4482 -1 c3 -9 -9 -14 -37 -15 -28 -2
-36 0 -26 7 8 5 17 7 21 4 4 -2 10 0 14 6 8 14 22 13 28 -2z m-349 -14 c5 -13
3 -14 -6 -6 -7 5 -26 12 -43 15 -28 4 -28 4 6 6 26 1 39 -4 43 -15z m146 6 c8
-5 11 -10 5 -10 -5 0 -17 5 -25 10 -8 5 -10 10 -5 10 6 0 17 -5 25 -10z m47 4
c-3 -3 -12 -4 -19 -1 -8 3 -5 6 6 6 11 1 17 -2 13 -5z m-220 -30 c-3 -3 -12
-4 -19 -1 -8 3 -5 6 6 6 11 1 17 -2 13 -5z m523 -4 c0 -5 -2 -10 -4 -10 -3 0
-8 5 -11 10 -3 6 -1 10 4 10 6 0 11 -4 11 -10z m-1094 -62 c22 -43 28 -49 36
-35 5 9 15 17 22 17 15 0 30 29 20 39 -3 3 -10 -2 -15 -12 -10 -17 -29 -15
-29 4 0 6 5 7 10 4 6 -3 10 -2 10 3 0 6 15 10 34 9 19 0 34 -3 34 -6 -2 -18 3
-31 11 -31 5 0 7 9 4 20 -6 22 12 28 21 8 5 -10 7 -10 12 0 3 6 10 9 16 6 6
-4 5 -10 -3 -15 -26 -15 3 -24 82 -24 48 0 78 -4 76 -10 -2 -5 -14 -12 -27
-13 -23 -4 -22 -4 6 -22 l28 -19 -28 -11 c-18 -6 -34 -7 -44 -1 -15 9 -14 11
8 19 22 9 23 11 7 17 -17 7 -17 8 0 22 17 13 16 13 -7 6 -14 -4 -59 -7 -100
-5 -58 2 -71 0 -57 -9 10 -6 25 -8 33 -5 8 3 14 1 14 -3 0 -5 15 -7 33 -4 17
3 29 2 25 -2 -9 -10 -78 -24 -78 -16 0 3 -14 14 -30 23 -17 9 -30 13 -30 8 0
-5 -7 -7 -15 -4 -9 4 -15 0 -15 -9 0 -8 -6 -18 -12 -21 -7 -3 1 -4 17 -3 17 1
33 7 37 12 4 6 8 2 8 -8 0 -14 -5 -17 -19 -12 -16 5 -18 2 -14 -14 3 -12 2
-28 -1 -37 -6 -15 -8 -15 -24 -1 -10 9 -29 43 -42 74 -13 32 -27 60 -30 63
-15 11 -31 50 -21 50 6 0 22 -23 37 -52z m608 37 c-4 -8 -16 -15 -27 -15 -20
0 -20 0 -1 15 25 19 35 19 28 0z m349 8 c-7 -2 -19 -2 -25 0 -7 3 -2 5 12 5
14 0 19 -2 13 -5z m-588 -13 c3 -5 1 -10 -4 -10 -6 0 -11 5 -11 10 0 6 2 10 4
10 3 0 8 -4 11 -10z m65 6 c0 -2 -7 -7 -16 -10 -8 -3 -12 -2 -9 4 6 10 25 14
25 6z m120 -6 c0 -5 -8 -10 -17 -10 -15 0 -16 2 -3 10 19 12 20 12 20 0z
m-4453 -22 c-3 -8 -6 -5 -6 6 -1 11 2 17 5 13 3 -3 4 -12 1 -19z m4378 2 c14
12 18 9 13 -7 -2 -4 -9 -8 -17 -10 -8 -1 -18 -8 -23 -15 -6 -9 -8 -7 -6 7 2
12 -2 19 -10 17 -8 -1 -11 2 -7 8 5 8 11 7 21 -1 11 -9 17 -9 29 1z m306 -13
c-7 -7 -18 -7 -33 0 -20 9 -20 10 10 10 22 0 29 -4 23 -10z m46 -3 c-3 -3 -12
-4 -19 -1 -8 3 -5 6 6 6 11 1 17 -2 13 -5z m83 2 c0 -2 -7 -7 -16 -10 -8 -3
-12 -2 -9 4 6 10 25 14 25 6z m-515 -16 c3 -6 -1 -7 -9 -4 -18 7 -21 14 -7 14
6 0 13 -4 16 -10z m170 -9 c-3 -6 -11 -11 -16 -11 -5 0 -4 6 3 14 14 16 24 13
13 -3z m110 9 c-3 -5 -12 -10 -18 -10 -7 0 -6 4 3 10 19 12 23 12 15 0z m70 0
c3 -5 1 -10 -4 -10 -6 0 -11 5 -11 10 0 6 2 10 4 10 3 0 8 -4 11 -10z m-305
-30 c0 -5 -5 -10 -11 -10 -5 0 -7 5 -4 10 3 6 8 10 11 10 2 0 4 -4 4 -10z
m165 -10 c-3 -5 -12 -10 -18 -10 -7 0 -6 4 3 10 19 12 23 12 15 0z m-360 -10
c-3 -5 -12 -10 -18 -10 -7 0 -6 4 3 10 19 12 23 12 15 0z m325 4 c0 0 -10 -9
-22 -20 -12 -10 -18 -13 -13 -5 4 8 2 16 -5 21 -8 5 -3 8 13 7 15 -1 27 -2 27
-3z m82 -6 c-20 -20 -13 -31 16 -24 20 5 23 4 12 -4 -21 -14 -50 -12 -50 3 0
13 19 37 29 37 3 0 0 -5 -7 -12z m-522 -17 c-15 -29 -13 -46 3 -32 11 8 14 5
14 -18 0 -22 -5 -29 -19 -28 -11 1 -14 5 -9 10 6 6 4 19 -6 33 -9 15 -11 24
-4 24 6 0 11 7 11 15 0 8 5 15 10 15 7 0 7 -6 0 -19z m308 -1 c2 -5 9 -7 15
-4 7 2 12 -6 12 -21 0 -16 -5 -23 -12 -20 -7 2 -13 -1 -13 -7 0 -7 -6 -6 -16
3 -17 14 -66 20 -58 7 3 -4 1 -8 -4 -8 -6 0 -13 8 -16 17 -5 12 -9 14 -18 5
-15 -15 -48 -16 -48 -2 0 6 6 10 13 9 17 -3 67 19 67 29 0 12 74 4 78 -8z
m179 5 c0 -8 -7 -17 -14 -19 -24 -10 -3 -28 24 -21 16 4 22 2 18 -5 -8 -13
-31 -13 -56 1 -20 10 -20 11 3 34 13 14 23 25 24 25 0 0 1 -7 1 -15z m-99 -30
c-3 -3 -9 2 -12 12 -6 14 -5 15 5 6 7 -7 10 -15 7 -18z m-4418 -4 c0 -11 -4
-23 -10 -26 -6 -4 -10 5 -10 19 0 14 5 26 10 26 6 0 10 -9 10 -19z m4135 9 c3
-5 2 -10 -4 -10 -5 0 -13 5 -16 10 -3 6 -2 10 4 10 5 0 13 -4 16 -10z m500
-10 c4 6 14 10 23 9 12 0 11 -3 -5 -9 -13 -5 -23 -14 -23 -20 0 -5 -8 -10 -17
-10 -15 0 -16 2 -3 10 12 8 9 10 -13 10 -16 0 -26 4 -22 10 3 6 15 6 30 0 15
-6 27 -6 30 0z m-428 -26 c-3 -3 -12 -4 -19 -1 -8 3 -5 6 6 6 11 1 17 -2 13
-5z m73 -9 c-14 -8 -38 -14 -55 -14 -26 1 -24 2 15 13 61 18 70 18 40 1z m220
7 c0 -11 32 -12 46 0 14 11 46 -1 38 -14 -4 -6 -10 -5 -15 3 -7 11 -9 10 -9
-3 0 -9 -5 -20 -12 -24 -8 -5 -9 -2 -5 9 5 14 2 15 -18 7 -16 -6 -25 -6 -25 0
0 6 -7 10 -16 10 -8 0 -12 5 -9 10 7 12 25 13 25 2z m-500 -22 c0 -5 -5 -10
-11 -10 -5 0 -7 5 -4 10 3 6 8 10 11 10 2 0 4 -4 4 -10z m76 -5 c-8 -8 -18
-15 -22 -15 -3 0 -1 7 6 15 7 8 17 15 22 15 5 0 3 -7 -6 -15z m539 5 c-3 -5
-11 -10 -16 -10 -6 0 -7 5 -4 10 3 6 11 10 16 10 6 0 7 -4 4 -10z m42 -6 c-3
-3 -12 -4 -19 -1 -8 3 -5 6 6 6 11 1 17 -2 13 -5z m47 -9 c-4 -8 -17 -18 -30
-21 -13 -3 -24 -13 -24 -21 0 -8 5 -11 10 -8 6 3 10 2 10 -3 0 -6 -7 -13 -16
-16 -8 -3 -13 -2 -11 2 3 4 1 16 -3 27 -7 18 -8 18 -15 -7 -4 -14 -15 -28 -26
-31 -20 -5 -27 -27 -8 -27 5 0 7 5 4 10 -7 11 13 14 58 11 20 -2 27 2 27 15 0
19 13 11 16 -9 1 -7 -8 -14 -19 -14 -33 -3 -46 -43 -14 -43 7 0 6 4 -3 10 -13
8 -12 10 5 11 11 1 32 3 48 5 15 1 27 -1 27 -7 0 -5 -5 -8 -11 -6 -15 3 -21
-36 -7 -44 22 -14 -11 -39 -43 -32 -18 3 -29 1 -29 -6 0 -6 10 -11 22 -11 21
0 21 0 2 -15 -18 -15 -18 -15 0 -8 15 5 17 3 10 -8 -4 -8 -7 -24 -6 -35 3 -18
-2 -22 -21 -20 -16 1 -23 6 -19 15 4 10 -2 13 -26 9 -27 -4 -30 -2 -21 14 12
23 -12 25 -31 3 -7 -8 -16 -12 -21 -9 -5 3 -6 -2 -3 -10 3 -9 11 -13 18 -9 8
5 8 3 1 -8 -6 -8 -10 -26 -9 -41 1 -24 -1 -26 -14 -15 -13 9 -14 9 -8 0 7 -12
-4 -17 -31 -14 -6 1 -13 -4 -16 -11 -2 -7 -3 -5 -1 5 2 13 -2 17 -12 13 -11
-4 -12 -2 -4 14 5 10 16 22 23 26 9 6 9 4 -1 -8 -10 -13 -10 -18 -1 -24 7 -4
18 0 25 10 8 11 18 15 26 10 10 -6 10 -4 -1 9 -9 12 -10 17 -2 17 7 0 9 5 6
10 -4 6 -11 8 -16 5 -5 -4 -9 1 -9 10 0 8 7 18 15 21 17 7 21 44 5 44 -5 0
-10 -9 -10 -20 0 -14 -5 -18 -17 -14 -12 4 -14 3 -6 -3 10 -7 7 -13 -8 -27
-13 -11 -19 -13 -16 -4 7 19 -11 48 -31 48 -14 0 -15 2 -2 10 8 5 11 13 6 17
-4 4 -14 -1 -23 -12 -15 -19 -15 -19 -8 5 4 14 12 31 17 38 7 8 7 12 -1 12 -6
0 -11 -4 -11 -10 0 -12 -40 -50 -65 -60 -18 -8 -17 -9 8 -9 15 -1 27 -6 27
-12 0 -5 -4 -8 -9 -5 -12 8 -35 -50 -25 -65 4 -8 3 -10 -4 -5 -7 4 -12 3 -12
-3 0 -8 -10 -8 -40 -1 -3 0 6 8 20 16 l25 15 -27 -6 c-30 -6 -40 11 -10 18 13
3 10 7 -12 16 -25 10 -32 9 -45 -5 -15 -15 -14 -16 7 -11 14 3 22 1 22 -7 0
-14 -28 -15 -47 -3 -7 5 -21 3 -32 -3 -30 -15 -38 -12 -13 6 29 20 28 29 -7
44 -24 9 -27 15 -18 25 7 7 14 9 15 4 2 -5 10 -9 17 -9 8 0 19 -9 25 -20 6
-11 16 -18 22 -14 7 5 7 9 -1 13 -19 12 10 61 37 61 22 0 28 10 15 23 -3 4
-12 2 -20 -4 -9 -9 -13 -8 -13 0 0 6 -9 11 -20 11 -11 0 -20 4 -20 9 0 5 12 8
26 5 24 -4 25 -3 11 11 -9 8 -21 15 -27 15 -7 0 -9 7 -6 15 3 8 9 23 12 33 5
16 5 16 -6 0 -6 -10 -17 -18 -25 -18 -8 0 -19 -8 -25 -17 -10 -16 -11 -16 -4
2 3 11 9 30 11 43 3 12 12 22 19 22 8 0 17 7 20 15 7 17 64 21 64 4 0 -6 9 -1
19 12 17 20 22 22 33 10 7 -8 8 -11 2 -8 -7 4 -17 0 -23 -7 -10 -12 -8 -14 11
-9 17 3 19 2 9 -5 -10 -8 -8 -13 10 -27 20 -15 21 -17 4 -11 -20 6 -20 6 -1
-9 11 -8 15 -15 8 -15 -6 0 2 -14 17 -30 23 -25 32 -29 51 -22 21 8 21 9 5 16
-10 4 -21 2 -25 -4 -5 -8 -9 -6 -13 5 -8 18 15 30 39 21 8 -3 12 -2 9 4 -3 6
2 10 12 10 15 0 16 2 3 10 -8 5 -10 10 -5 11 6 0 17 2 26 4 8 1 21 -6 28 -18
11 -17 11 -19 -3 -14 -8 3 -18 3 -20 -2 -7 -11 27 -10 42 2 8 6 18 5 30 -4 15
-11 15 -11 4 1 -10 12 -9 18 10 33 13 10 17 16 10 12 -7 -4 -19 -2 -26 4 -10
9 -15 8 -19 -3 -4 -11 -1 -13 10 -9 11 4 14 2 9 -5 -9 -15 -33 -16 -41 -1 -12
18 26 36 69 32 37 -3 39 -2 23 11 -13 10 -28 11 -55 5 -20 -5 -41 -9 -45 -9
-5 0 -5 -4 -2 -10 7 -11 5 -12 -45 -15 -19 -2 -42 -4 -50 -4 -10 -1 -7 -6 9
-15 l24 -13 -31 -5 c-23 -3 -29 -1 -22 7 5 7 7 14 5 17 -3 3 6 13 20 22 14 9
36 23 50 32 15 10 25 12 25 5 0 -6 -6 -11 -14 -11 -7 0 -19 -7 -26 -15 -17
-21 -2 -19 45 5 22 11 45 20 52 20 7 0 13 4 13 9 0 6 12 6 31 1 18 -5 36 -7
40 -4 5 3 9 1 9 -5 0 -13 33 -1 43 16 11 18 28 17 21 -2z m80 -71 c3 -8 2 -12
-4 -9 -6 3 -10 10 -10 16 0 14 7 11 14 -7z m-6507 -7 c13 4 11 0 -7 -16 -17
-15 -21 -24 -12 -27 6 -3 10 -10 6 -15 -3 -5 0 -9 7 -9 8 0 8 -4 -1 -15 -15
-18 -31 -10 -23 12 5 12 3 14 -8 8 -8 -4 -11 -5 -7 0 10 11 -11 37 -24 29 -12
-8 -6 29 6 38 6 4 18 2 27 -3 10 -5 26 -6 36 -2z m5933 -37 c0 -5 -4 -10 -10
-10 -5 0 -10 5 -10 10 0 6 5 10 10 10 6 0 10 -4 10 -10z m-19 -53 c-10 -9 -11
-8 -5 6 3 10 9 15 12 12 3 -3 0 -11 -7 -18z m-5983 -62 c14 5 15 4 5 -6 -7 -7
-13 -22 -14 -33 0 -12 -3 -15 -6 -8 -2 6 -9 12 -14 12 -4 0 -5 -7 -2 -17 4
-11 3 -14 -6 -9 -6 4 -9 20 -7 34 2 15 5 36 6 47 1 18 2 18 11 -4 6 -16 14
-21 27 -16z m6018 8 c-6 -6 -36 9 -36 18 0 5 9 4 20 -3 10 -7 18 -14 16 -15z
m-5453 -51 c-1 -20 1 -29 3 -19 3 9 10 15 15 12 5 -4 9 -2 9 2 0 5 9 9 19 9
15 0 17 -3 9 -13 -7 -9 -7 -13 0 -13 6 0 17 9 25 20 8 11 17 17 20 13 4 -3 7
0 7 8 1 10 4 9 11 -4 7 -11 17 -16 29 -12 16 5 18 1 14 -32 -3 -27 -1 -34 6
-23 8 13 10 12 10 -3 0 -11 5 -16 13 -12 6 4 4 0 -5 -8 -12 -9 -14 -17 -7 -24
14 -14 0 -65 -17 -59 -8 3 -11 0 -8 -9 3 -8 -5 -29 -18 -47 -12 -18 -22 -34
-20 -35 1 -2 2 -7 2 -13 0 -18 -18 -10 -23 10 -3 13 -10 18 -21 14 -9 -3 -16
-10 -16 -15 0 -4 7 -6 15 -3 11 5 14 2 8 -12 -3 -11 -11 -22 -16 -26 -16 -10
-39 3 -32 20 4 12 3 13 -10 2 -21 -17 -31 -5 -14 17 9 11 10 14 2 9 -13 -7
-17 3 -14 37 1 9 -4 18 -11 18 -7 1 -17 2 -23 4 -5 1 -18 3 -27 3 -22 2 -24
22 -3 22 8 0 15 7 15 15 0 9 -6 12 -15 9 -12 -5 -15 2 -15 30 0 20 5 36 10 36
6 0 10 7 10 15 0 8 7 15 15 15 8 0 15 4 15 10 0 5 -7 7 -15 4 -9 -4 -15 0 -15
7 0 12 -2 12 -9 0 -5 -7 -11 -9 -14 -4 -4 6 9 27 29 48 41 45 59 37 57 -23z
m-623 -3 c0 -18 -18 -9 -23 12 -4 16 -3 18 9 8 8 -6 14 -15 14 -20z m6590 26
c0 -2 -7 -8 -15 -15 -12 -10 -15 -10 -15 2 0 8 7 15 15 15 8 0 15 -1 15 -2z
m-290 -15 c12 -8 11 -10 -7 -10 -13 0 -23 5 -23 10 0 13 11 13 30 0z m-67 -30
c3 -11 1 -18 -4 -14 -5 3 -9 12 -9 20 0 20 7 17 13 -6z m-6189 -4 c9 3 16 1
16 -5 0 -11 -11 -14 -45 -12 -17 2 -17 0 -5 -8 13 -9 12 -11 -5 -12 -17 -1
-17 -2 -2 -6 21 -6 24 -58 2 -67 -10 -4 -14 1 -12 17 1 12 7 25 12 29 6 4 0 8
-12 8 -25 0 -30 19 -11 38 9 9 8 12 -7 13 -16 1 -15 3 5 8 14 4 30 4 36 -1 6
-4 19 -6 28 -2z m6051 -26 c3 -6 -5 -10 -19 -10 -13 0 -37 -5 -51 -10 -20 -8
-26 -7 -23 2 2 6 17 13 33 15 16 3 32 6 34 9 7 7 20 4 26 -6z m37 -7 c-6 -2
-10 -9 -6 -14 3 -5 1 -9 -5 -9 -5 0 -16 -3 -25 -6 -9 -3 -16 -2 -16 3 0 9 38
30 55 31 6 0 4 -2 -3 -5z m-83 -45 c-10 -6 -4 -7 17 -3 28 5 32 3 38 -21 4
-14 4 -29 1 -32 -3 -4 -38 -8 -78 -9 -56 -2 -68 0 -54 8 10 6 27 9 38 6 11 -3
34 2 52 11 25 13 28 17 14 20 -10 2 -26 -3 -35 -11 -13 -12 -22 -13 -35 -5
-10 5 -21 7 -24 4 -8 -7 -43 12 -43 24 0 6 7 10 15 10 8 0 15 -4 15 -9 0 -5 9
-11 19 -14 13 -3 18 0 15 8 -3 7 5 15 20 19 14 3 26 12 27 19 0 8 2 8 6 -2 3
-7 -1 -18 -8 -23z m194 -3 c-3 -9 -8 -14 -10 -11 -3 3 -2 9 2 15 9 16 15 13 8
-4z m-6313 -118 c0 -5 -4 -5 -10 -2 -5 3 -10 14 -10 23 0 15 2 15 10 2 5 -8
10 -19 10 -23z m-30 -2 c0 -8 -2 -15 -4 -15 -2 0 -6 7 -10 15 -3 8 -1 15 4 15
6 0 10 -7 10 -15z m33 -44 c3 -11 -1 -25 -9 -32 -11 -9 -13 -4 -12 25 1 37 12
40 21 7z m-42 -8 c-8 -15 -10 -15 -11 -2 0 17 10 32 18 25 2 -3 -1 -13 -7 -23z
m772 -46 c-3 -7 3 -4 14 6 23 20 40 8 29 -20 -4 -9 1 -21 11 -29 17 -12 16
-13 -4 -11 -12 0 -20 4 -17 8 2 4 -5 10 -16 14 -11 3 -20 9 -21 13 0 4 -2 15
-4 25 -2 9 1 15 6 11 5 -3 6 -11 2 -17z m-778 -57 c3 -6 -1 -7 -9 -4 -18 7
-21 14 -7 14 6 0 13 -4 16 -10z m1255 -175 c0 -2 -9 -3 -19 -2 -11 0 -18 5
-15 9 4 6 34 0 34 -7z m180 -43 c0 -15 -2 -15 -10 -2 -13 20 -13 33 0 25 6 -3
10 -14 10 -23z m-40 -102 c-8 -5 -22 -9 -30 -9 -10 0 -8 3 5 9 27 12 43 12 25
0z m-1145 -82 c5 4 5 1 1 -5 -4 -7 -20 -13 -37 -13 -16 0 -29 -5 -29 -12 0 -6
-3 -8 -7 -4 -12 12 40 46 53 35 6 -5 15 -5 19 -1z m181 -40 c4 -5 -10 -8 -32
-6 -20 2 -39 8 -41 14 -4 13 65 6 73 -8z m-301 2 c-3 -5 -12 -10 -18 -10 -7 0
-6 4 3 10 19 12 23 12 15 0z m595 -34 c0 -3 -4 -8 -10 -11 -5 -3 -10 -1 -10 4
0 6 5 11 10 11 6 0 10 -2 10 -4z m80 -47 c0 -6 -4 -7 -10 -4 -5 3 -10 11 -10
16 0 6 5 7 10 4 6 -3 10 -11 10 -16z m590 1 c0 -5 -5 -10 -11 -10 -5 0 -7 5
-4 10 3 6 8 10 11 10 2 0 4 -4 4 -10z m-610 -94 c0 -2 -7 -7 -16 -10 -8 -3
-12 -2 -9 4 6 10 25 14 25 6z m435 -366 c3 -5 -1 -10 -9 -10 -9 0 -16 5 -16
10 0 6 4 10 9 10 6 0 13 -4 16 -10z m35 -10 c0 -5 -4 -10 -10 -10 -5 0 -10 5
-10 10 0 6 5 10 10 10 6 0 10 -4 10 -10z m-33 -162 c-3 -8 -6 -5 -6 6 -1 11 2
17 5 13 3 -3 4 -12 1 -19z m-1117 -108 c0 -5 -9 -10 -21 -10 -11 0 -17 -4 -14
-10 9 -15 -4 -12 -21 4 -12 13 -10 15 18 19 18 2 34 5 36 5 1 1 2 -2 2 -8z
m-55 -79 c-3 -5 -1 -12 5 -16 15 -9 12 -32 -4 -38 -9 -4 -21 5 -31 20 -15 22
-15 25 -2 20 9 -3 18 1 21 9 3 8 8 14 11 14 4 0 4 -4 0 -9z m58 -142 c18 7 28
7 33 0 4 -6 11 -6 20 2 8 7 14 7 14 1 0 -5 -15 -17 -32 -26 -18 -8 -27 -16
-19 -16 10 0 11 -3 2 -13 -8 -10 -7 -17 1 -25 16 -16 4 -25 -20 -17 -17 5 -19
10 -12 36 8 28 7 31 -10 26 -16 -4 -20 0 -20 21 0 18 3 23 8 14 7 -9 15 -10
35 -3z m-88 -179 c3 -6 -1 -7 -9 -4 -18 7 -21 14 -7 14 6 0 13 -4 16 -10z
m605 -10 c0 -5 -5 -10 -11 -10 -5 0 -7 5 -4 10 3 6 8 10 11 10 2 0 4 -4 4 -10z
m236 -50 c0 -12 -4 -16 -9 -11 -5 5 -6 14 -3 20 10 15 12 14 12 -9z m-838 -9
c8 -5 12 -16 10 -24 -2 -13 -7 -12 -27 8 -23 25 -12 35 17 16z m-20 -33 c-2
-6 -10 -13 -16 -14 -7 -1 -8 0 -2 3 5 2 8 9 4 14 -3 5 0 9 6 9 7 0 10 -5 8
-12z m469 -20 c-3 -7 -5 -2 -5 12 0 14 2 19 5 13 2 -7 2 -19 0 -25z m3083 -28
c-12 -7 -12 -12 -3 -21 10 -10 14 -9 19 4 3 9 12 17 20 17 8 0 0 -13 -18 -30
-29 -28 -56 -44 -30 -18 8 8 8 15 1 24 -12 15 -4 34 14 34 7 0 6 -4 -3 -10z
m-3485 -20 c-3 -5 -13 -10 -21 -10 -8 0 -14 5 -14 10 0 6 9 10 21 10 11 0 17
-4 14 -10z m3549 -16 c3 -8 2 -12 -4 -9 -6 3 -10 10 -10 16 0 14 7 11 14 -7z
m-3185 -30 c11 -15 17 -31 13 -38 -4 -7 -8 -3 -10 11 -2 12 -12 25 -23 28 -10
4 -19 11 -19 16 0 17 18 9 39 -17z m-372 -30 c-3 -3 -12 -4 -19 -1 -8 3 -5 6
6 6 11 1 17 -2 13 -5z m273 -5 c0 -14 -29 -43 -36 -36 -8 7 15 47 26 47 6 0
10 -5 10 -11z m67 -14 c-11 -7 -25 -11 -33 -8 -21 8 -9 18 23 20 26 2 27 1 10
-12z m3276 -16 c-9 -9 -12 -7 -10 9 1 14 5 18 11 12 7 -7 6 -14 -1 -21z m-30
4 c-7 -2 -10 -10 -7 -18 3 -7 1 -16 -5 -20 -15 -9 -14 28 1 43 6 6 14 9 17 5
3 -3 1 -8 -6 -10z m-3493 -8 c11 -13 10 -14 -4 -9 -9 3 -16 10 -16 15 0 13 6
11 20 -6z m3424 7 c3 -5 -1 -9 -9 -9 -8 0 -12 4 -9 9 3 4 7 8 9 8 2 0 6 -4 9
-8z m-3393 -78 l24 -27 -27 18 c-17 10 -28 13 -28 6 0 -6 4 -11 9 -11 10 0 2
-48 -10 -56 -5 -3 -6 2 -3 10 3 9 2 16 -4 16 -17 0 -5 60 14 70 0 0 11 -12 25
-26z m226 -28 c-4 -9 -11 -16 -17 -16 -13 0 -13 17 0 25 6 4 7 12 4 18 -5 9
-4 9 6 0 7 -6 10 -19 7 -27z m-218 -72 c2 -2 -13 -3 -33 -2 -20 1 -36 5 -36 9
0 7 61 1 69 -7z m6928 -26 c-3 -8 -6 -5 -6 6 -1 11 2 17 5 13 3 -3 4 -12 1
-19z m-7052 -7 c3 -5 1 -12 -4 -15 -5 -3 -11 1 -15 9 -6 16 9 21 19 6z m192
-12 c-16 -26 -36 -31 -34 -10 1 12 6 17 16 13 8 -3 12 -1 8 5 -3 5 0 10 7 10
11 0 12 -4 3 -18z m-97 -48 c0 -4 -11 -13 -24 -19 -20 -9 -23 -8 -19 7 4 16
43 27 43 12z m81 -35 c19 11 8 -14 -16 -36 -14 -13 -25 -18 -25 -12 0 6 5 14
10 17 6 3 10 16 11 28 0 12 3 16 6 9 2 -6 9 -10 14 -6z m-239 -18 c-7 -7 -12
-8 -12 -2 0 14 12 26 19 19 2 -3 -1 -11 -7 -17z m203 4 c-3 -3 -11 0 -18 7 -9
10 -8 11 6 5 10 -3 15 -9 12 -12z m71 -50 c-6 -5 -36 23 -36 34 0 4 9 -1 20
-11 11 -10 18 -20 16 -23z m-86 -25 c0 -5 -7 -7 -15 -3 -9 3 -20 -3 -27 -14
-7 -11 -17 -20 -22 -20 -4 0 -2 8 5 17 12 15 12 16 -3 10 -10 -3 -20 -1 -24 4
-3 6 -18 8 -33 5 -22 -5 -21 -3 9 13 25 14 39 16 48 9 9 -8 11 -7 6 7 -7 17
-6 17 24 -1 18 -10 32 -22 32 -27z m76 -4 c-7 -7 -26 7 -26 19 0 6 6 6 15 -2
9 -7 13 -15 11 -17z m7349 -123 c3 -6 2 -10 -4 -10 -5 0 -13 5 -16 10 -3 6
-11 10 -16 10 -6 0 -8 -4 -4 -9 3 -5 1 -12 -4 -15 -5 -4 -8 2 -6 11 2 10 4 22
4 26 1 9 37 -9 46 -23z m28 12 c-3 -7 -9 -10 -12 -5 -3 4 -10 11 -15 15 -4 4
1 6 12 5 12 -1 18 -6 15 -15z m-118 -22 c3 -5 1 -10 -4 -10 -6 0 -11 5 -11 10
0 6 2 10 4 10 3 0 8 -4 11 -10z m135 -15 c5 3 12 0 16 -6 4 -8 3 -9 -4 -5 -7
4 -12 2 -12 -3 0 -6 5 -11 11 -11 6 0 8 -7 5 -16 -4 -12 -2 -15 9 -10 8 3 15
4 15 2 0 -3 3 -11 6 -20 3 -9 1 -16 -6 -16 -6 0 -8 5 -5 10 3 6 1 10 -4 10
-20 0 -11 -21 11 -29 l23 -8 -22 -7 c-28 -9 -28 -59 0 -83 11 -10 17 -12 13
-6 -12 22 -15 53 -5 53 5 0 9 -6 8 -12 -2 -22 13 -58 22 -52 5 3 9 -2 9 -10 0
-10 6 -13 15 -10 8 4 15 2 15 -4 0 -5 -7 -12 -15 -16 -8 -3 -15 -13 -15 -23 0
-14 2 -15 9 -4 14 23 32 8 52 -43 17 -46 16 -82 -2 -70 -5 3 -9 1 -9 -5 0 -5
6 -12 13 -14 7 -3 5 -6 -5 -6 -10 -1 -18 4 -18 9 0 17 -24 11 -37 -8 -6 -10
-10 -39 -9 -63 1 -32 -2 -46 -12 -46 -7 0 -10 7 -7 15 5 13 3 13 -11 1 -16
-13 -16 -12 -5 9 9 17 9 22 -1 20 -6 -2 -15 11 -19 27 -4 17 -8 23 -9 15 -1
-8 -5 -4 -10 10 -5 16 -2 33 8 49 14 23 12 26 -24 60 -21 20 -39 34 -40 31 -3
-11 -82 69 -104 106 -13 21 -30 45 -37 52 -7 7 -13 16 -12 20 2 19 17 47 25
47 5 0 20 10 33 22 13 12 28 20 33 17 4 -3 8 -1 8 4 0 5 7 9 15 9 8 0 15 -7
15 -14 0 -8 4 -12 9 -9 17 11 40 -6 50 -37 10 -30 10 -31 -5 -12 -8 11 -20 19
-26 17 -5 -1 -16 3 -24 9 -11 9 -14 8 -14 -5 0 -10 9 -16 25 -16 15 0 28 -7
32 -17 25 -72 46 -39 21 34 -16 50 -25 99 -11 65 2 -6 9 -10 13 -7z m-1077
-88 c11 -4 16 -3 12 3 -3 6 0 10 8 10 9 0 17 -14 21 -34 7 -36 0 -66 -16 -66
-6 0 -7 -7 -4 -16 3 -8 2 -12 -4 -9 -9 6 -14 -7 -11 -27 0 -4 -6 -5 -14 -2 -8
4 -15 11 -16 18 -1 6 -5 0 -9 -14 l-8 -25 -1 28 c-1 17 -5 26 -12 22 -6 -4 -8
-14 -5 -22 5 -11 2 -13 -10 -9 -14 5 -15 4 -4 -9 10 -12 9 -15 -6 -15 -16 0
-16 -2 -4 -10 9 -5 19 -5 27 2 9 7 13 7 13 0 0 -14 -29 -24 -51 -17 -18 6 -18
8 1 46 11 21 17 39 12 39 -14 0 -11 42 5 74 23 46 34 57 47 48 6 -5 19 -12 29
-15z m877 -51 c5 -13 14 -27 19 -31 16 -9 13 -22 -3 -22 -8 0 -15 3 -14 6 2
24 -6 31 -36 31 -57 0 -63 34 -7 38 25 2 33 -3 41 -22z m255 14 c3 -5 1 -10
-4 -10 -6 0 -11 5 -11 10 0 6 2 10 4 10 3 0 8 -4 11 -10z m-305 -118 c0 -2 -7
-10 -15 -18 -14 -14 -19 -11 -16 9 2 14 -8 7 -19 -14 -9 -15 -8 -24 0 -35 7
-7 10 -21 6 -29 -3 -9 -2 -13 4 -10 6 3 10 3 10 -2 0 -15 -15 -28 -33 -29 -14
-2 -15 1 -6 12 9 11 8 18 -2 30 -7 9 -9 18 -3 22 5 4 9 16 9 27 -1 23 23 44
47 42 10 -1 18 -3 18 -5z m38 -29 c-2 -10 3 -18 10 -19 6 -1 15 -3 20 -4 4 -1
10 -2 14 -1 4 0 5 -5 2 -13 -3 -8 -1 -17 5 -21 6 -3 11 -11 11 -17 0 -6 -11
-1 -25 12 -29 27 -66 35 -57 12 3 -10 1 -13 -6 -8 -7 4 -12 2 -12 -4 0 -6 -5
-8 -12 -4 -9 6 -9 9 1 12 9 3 4 12 -15 29 -16 13 -22 22 -14 20 8 -2 26 2 40
10 33 17 41 16 38 -4z m-972 -22 c-16 -6 -17 -8 -4 -13 9 -4 21 -1 28 5 7 7 3
-3 -9 -20 -25 -37 -27 -38 -37 -21 -4 7 -3 8 4 4 14 -9 15 3 3 24 -12 18 -5
30 17 29 14 0 14 -2 -2 -8z m989 -50 c-7 -13 -45 -21 -45 -10 0 5 7 9 15 9 8
0 15 5 15 11 0 5 5 7 10 4 6 -4 8 -10 5 -14z m136 -4 c-10 -9 -11 -8 -5 6 3
10 9 15 12 12 3 -3 0 -11 -7 -18z m-101 -17 c12 -8 11 -10 -7 -10 -13 0 -23 5
-23 10 0 13 11 13 30 0z m-43 -16 c-3 -3 -12 -4 -19 -1 -8 3 -5 6 6 6 11 1 17
-2 13 -5z m-3928 -166 c0 -13 -3 -17 -6 -10 -2 6 -10 9 -16 5 -7 -4 -6 1 2 10
18 22 21 21 20 -5z m20 -93 l0 -30 -14 27 c-16 28 -10 72 6 46 5 -7 9 -26 8
-43z m-33 -158 c-2 -17 -46 -64 -46 -50 0 10 38 63 45 63 2 0 2 -6 1 -13z
m-82 -108 c-27 -30 -37 -22 -12 12 12 16 24 25 26 19 2 -6 -4 -20 -14 -31z
m-80 -8 c3 -5 -3 -11 -14 -14 -20 -5 -26 3 -13 16 9 10 21 9 27 -2z m1951 -11
c0 -7 -7 -16 -15 -18 -13 -4 -13 -3 -2 10 9 11 9 18 2 21 -6 3 -5 4 2 3 7 -2
13 -9 13 -16z m2095 16 c0 -2 -7 -7 -16 -10 -8 -3 -12 -2 -9 4 6 10 25 14 25
6z m-1944 -25 c16 5 124 -22 124 -31 0 -4 11 -10 25 -12 14 -3 25 -1 25 5 0 5
10 3 23 -5 12 -8 52 -25 90 -37 37 -13 67 -26 67 -29 0 -4 25 -8 56 -9 56 -3
96 -20 142 -63 12 -11 22 -18 22 -14 0 4 9 -1 19 -10 11 -10 31 -19 45 -20 26
-1 29 -16 12 -45 -7 -10 -5 -12 5 -6 8 5 7 0 -3 -12 -10 -11 -18 -25 -18 -32
0 -8 -7 -11 -17 -7 -24 9 51 -57 109 -95 27 -17 45 -35 42 -40 -3 -5 0 -9 5
-9 6 0 11 5 11 10 0 6 5 10 12 10 6 0 8 -3 4 -7 -3 -4 17 -18 46 -32 40 -18
68 -24 114 -23 56 1 62 -1 73 -24 11 -25 1 -58 -24 -76 -16 -12 -27 -9 -19 4
5 7 -9 -4 -30 -25 -33 -33 -67 -54 -101 -61 -32 -7 -54 -19 -59 -32 -3 -8 -10
-12 -16 -9 -5 3 -10 1 -10 -4 0 -6 -7 -11 -15 -11 -8 0 -15 -4 -15 -10 0 -5
-6 -10 -14 -10 -7 0 -19 -7 -26 -15 -15 -17 -50 -20 -50 -4 0 8 -4 8 -13 1 -7
-6 -32 -14 -55 -18 -23 -4 -42 -10 -42 -15 0 -5 -15 -9 -34 -9 -49 0 -96 -11
-90 -21 3 -5 -2 -9 -10 -9 -9 0 -16 5 -16 10 0 15 -56 12 -70 -4 -14 -18 -72
-15 -95 4 -8 7 -15 9 -15 6 0 -4 -8 -2 -18 3 -16 9 -18 6 -14 -18 4 -26 2 -28
-25 -24 -15 2 -40 5 -54 7 -14 1 -31 6 -38 11 -7 4 -16 3 -20 -2 -5 -9 -91
-15 -357 -25 -26 -1 -30 -5 -27 -22 3 -15 2 -17 -5 -8 -7 10 -11 10 -22 -3
-11 -13 -15 -13 -21 -3 -7 11 -12 11 -29 0 -17 -11 -20 -10 -20 7 0 11 5 22
10 24 6 3 5 4 -2 3 -7 -1 -14 -12 -16 -24 -2 -12 -8 -22 -13 -22 -6 0 -7 4 -4
10 3 6 -1 7 -9 4 -19 -7 -21 -20 -3 -27 9 -4 9 -6 -1 -6 -7 -1 -15 6 -18 14
-8 21 -21 19 -29 -5 -3 -11 -14 -20 -23 -20 -13 0 -13 2 3 13 20 16 13 37 -13
37 -14 0 -15 -2 -2 -10 8 -5 11 -12 8 -15 -12 -12 -29 6 -23 25 7 22 -10 35
-33 24 -9 -4 -25 -6 -36 -5 -13 2 -16 -1 -10 -11 6 -11 5 -11 -9 0 -9 8 -21
11 -26 8 -5 -4 -13 -1 -17 5 -4 8 -9 7 -15 -2 -8 -11 -12 -11 -23 4 -8 10 -23
19 -34 20 -16 1 -18 5 -12 17 7 14 4 16 -23 13 -26 -3 -24 0 15 13 46 16 118
13 118 -5 0 -11 49 -11 55 -1 3 5 15 6 27 2 14 -3 19 -2 14 6 -4 7 -1 12 6 13
7 0 23 2 35 3 18 2 20 0 12 -11 -14 -16 3 -17 19 -1 9 9 12 8 12 -7 0 -12 3
-16 8 -10 4 6 18 11 32 11 33 1 165 13 182 16 7 2 15 6 18 10 3 4 21 10 40 13
19 3 55 11 80 16 52 12 166 10 194 -4 13 -6 35 -1 76 17 32 14 62 26 68 26 6
0 23 5 39 12 15 6 41 13 57 15 16 3 39 11 51 19 12 8 32 14 46 13 33 -2 116
16 164 36 82 33 105 49 105 72 0 21 -25 55 -46 64 -5 2 -31 35 -57 72 -27 37
-67 86 -90 108 -46 44 -159 105 -176 94 -6 -3 -11 -1 -11 4 0 6 -4 11 -10 11
-14 0 -13 -47 1 -56 6 -4 8 -20 5 -40 -5 -26 -2 -38 14 -54 l20 -20 -20 0
c-13 0 -25 11 -33 28 -6 15 -16 30 -21 33 -5 4 -5 13 -1 20 6 9 3 11 -9 6 -25
-10 -50 19 -87 97 -25 54 -35 67 -50 63 -12 -3 -26 4 -38 19 -10 13 -24 24
-30 24 -18 0 -12 -26 11 -46 12 -10 18 -13 13 -5 -5 10 -4 12 3 7 7 -4 12 -11
12 -15 0 -5 10 -30 22 -57 27 -60 30 -74 15 -71 -8 1 -12 -12 -11 -36 1 -33 0
-36 -14 -25 -13 11 -15 10 -9 -4 5 -13 1 -18 -12 -18 -11 0 -21 9 -25 23 -3
12 -17 35 -31 51 l-25 29 0 -26 c0 -14 4 -37 10 -52 8 -20 7 -27 -6 -32 -14
-5 -13 -8 6 -18 15 -8 19 -15 11 -19 -6 -4 -11 -1 -12 6 0 7 -4 4 -9 -7 -11
-26 -12 -44 -1 -27 5 8 17 -16 34 -71 29 -90 33 -112 17 -102 -5 3 -10 1 -10
-5 0 -6 -4 -9 -9 -6 -4 3 -6 16 -4 29 3 13 -4 44 -15 68 -11 24 -23 56 -26 71
-7 33 -80 108 -104 108 -10 0 -13 -3 -7 -8 12 -9 16 -44 4 -36 -5 3 -9 1 -9
-5 0 -5 5 -13 11 -16 5 -4 9 -14 7 -23 -2 -10 4 -26 14 -36 20 -22 24 -41 7
-30 -7 4 -10 1 -7 -7 3 -8 14 -13 25 -11 16 2 22 -4 25 -28 7 -48 -8 -46 -58
7 -51 54 -78 99 -71 117 3 7 -3 32 -14 56 -10 23 -19 47 -19 54 0 6 -9 17 -20
24 -18 11 -20 20 -15 59 3 25 8 49 11 54 3 5 -1 9 -8 9 -7 0 1 11 17 25 17 13
27 24 24 25 -3 0 -23 -14 -44 -30 -21 -17 -40 -29 -42 -27 -8 9 11 39 31 47
17 7 18 9 4 9 -10 1 -18 5 -18 11 0 5 6 7 14 4 8 -3 17 -1 21 5 3 6 -1 14 -9
17 -19 7 -21 31 -3 37 6 2 24 0 40 -4 15 -4 25 -4 22 1 -3 5 15 12 40 16 25 3
49 13 54 22 10 17 92 33 102 19 3 -4 10 -7 15 -6z m1104 -43 c0 -13 -5 -9 -31
19 l-24 26 27 -19 c15 -10 28 -22 28 -26z m-1440 -15 c0 -3 -9 -3 -20 0 -11 3
-23 1 -26 -4 -5 -8 9 -13 29 -10 4 0 7 -6 7 -14 0 -12 -4 -14 -16 -7 -27 15
-134 -23 -229 -83 l-30 -18 20 20 c22 23 86 62 155 95 25 11 52 24 60 28 15 7
50 2 50 -7z m35 -23 c3 -6 -4 -10 -17 -10 -18 0 -20 2 -8 10 19 12 18 12 25 0z
m1572 -46 c-3 -3 -12 -4 -19 -1 -8 3 -5 6 6 6 11 1 17 -2 13 -5z m58 -24 c22
-25 43 -27 24 -2 -13 16 -12 16 4 3 10 -8 16 -23 14 -32 -3 -10 0 -20 7 -22 6
-2 1 -9 -12 -16 -19 -10 -28 -10 -48 4 -14 9 -24 11 -24 5 0 -6 -4 -8 -10 -5
-5 3 -10 20 -10 36 0 17 -4 28 -8 25 -4 -2 -14 0 -22 5 -11 7 -7 8 13 5 15 -3
27 0 27 5 0 16 26 10 45 -11z m-1709 -39 c-3 -5 1 -11 9 -15 8 -3 15 -14 15
-25 0 -24 -15 -36 -51 -40 -6 0 -9 -8 -6 -15 4 -10 1 -13 -9 -9 -7 3 -14 0
-14 -6 0 -6 6 -11 13 -11 7 0 4 -7 -7 -15 -11 -8 -16 -15 -10 -15 5 0 4 -4 -3
-8 -21 -13 -51 -95 -43 -117 5 -14 2 -27 -11 -41 -24 -26 -20 -87 5 -92 11 -2
16 -11 14 -23 -2 -11 -6 -18 -9 -17 -3 2 -14 -3 -23 -11 -12 -10 -20 -11 -24
-4 -4 6 -17 13 -30 17 -12 4 -20 12 -17 17 4 5 1 9 -4 9 -6 0 -21 17 -35 38
-13 20 -43 48 -66 62 -23 14 -59 40 -80 58 -32 27 -39 30 -44 16 -3 -9 -13
-14 -21 -11 -10 4 -12 1 -8 -10 5 -13 2 -15 -16 -10 -18 4 -20 3 -10 -9 9 -11
7 -14 -12 -15 -13 -1 -28 -2 -34 -4 -5 -1 -18 -3 -27 -3 -11 -1 -15 -8 -12
-16 3 -8 -4 -19 -16 -26 -24 -13 -43 -4 -20 10 7 5 15 16 16 25 2 15 1 15 -15
1 -10 -9 -21 -13 -24 -9 -4 3 -7 -1 -7 -10 0 -9 -7 -17 -15 -17 -8 0 -20 -9
-27 -20 -13 -20 -48 -28 -48 -10 0 5 6 7 14 4 7 -3 16 2 19 10 4 9 1 16 -5 16
-7 0 -7 4 1 13 6 8 7 18 3 22 -4 5 -2 5 5 1 6 -3 14 -2 18 4 3 5 1 10 -6 10
-7 0 -5 8 7 21 14 16 16 23 6 26 -10 4 -10 8 -2 18 9 11 7 18 -9 31 -19 16
-19 18 -3 30 16 12 16 14 -3 29 -20 16 -20 16 3 12 12 -3 22 -2 22 2 0 4 26 9
57 10 31 1 61 5 65 8 5 2 19 6 31 8 12 2 41 9 65 15 24 6 48 7 54 4 7 -5 8 -2
3 6 -6 10 -4 12 9 7 10 -4 29 -7 42 -7 16 0 23 -4 18 -11 -4 -8 10 -10 49 -7
30 1 53 0 50 -4 -6 -11 1 -10 34 3 15 7 40 11 55 10 15 -1 30 4 33 9 5 8 11 8
20 0 9 -8 12 -5 10 13 -2 20 2 23 29 23 17 0 34 -5 38 -11 4 -5 8 0 8 11 0 12
-7 24 -15 28 -8 3 -15 1 -15 -4 0 -6 -5 -10 -12 -10 -6 0 -3 9 7 20 19 21 30
27 21 11z m1109 -20 c19 -8 19 -8 -3 -20 -12 -6 -22 -9 -22 -6 0 3 -9 1 -20
-5 -18 -10 -19 -9 -8 15 12 26 20 29 53 16z m-2268 -43 c-3 -8 -6 -5 -6 6 -1
11 2 17 5 13 3 -3 4 -12 1 -19z m868 12 c3 -5 1 -10 -4 -10 -6 0 -11 5 -11 10
0 6 2 10 4 10 3 0 8 -4 11 -10z m1805 -14 c0 -3 -4 -8 -10 -11 -5 -3 -10 -1
-10 4 0 6 5 11 10 11 6 0 10 -2 10 -4z m-2642 -31 c-6 -14 -13 -24 -14 -22 -6
6 9 47 17 47 5 0 3 -11 -3 -25z m2253 -15 c11 0 19 -7 19 -17 0 -14 2 -15 9
-4 7 10 12 8 25 -10 25 -37 3 -34 -49 5 -26 20 -50 36 -55 36 -4 0 -11 7 -14
16 -4 11 1 10 20 -5 15 -12 35 -21 45 -21z m-2283 -5 c0 -27 -13 -34 -21 -11
-3 7 0 19 6 25 15 15 15 15 15 -14z m-3265 -26 c-6 -6 -9 -18 -6 -25 4 -10 0
-12 -11 -8 -9 3 -16 9 -16 13 0 10 23 31 34 31 6 0 5 -5 -1 -11z m5618 -56
c13 -16 12 -17 -3 -4 -10 7 -18 15 -18 17 0 8 8 3 21 -13z m-746 -4 c11 -16 1
-19 -13 -3 -7 8 -8 14 -3 14 5 0 13 -5 16 -11z m46 -52 c-10 -10 -3 -47 9 -47
5 0 6 9 3 20 -3 11 -1 20 5 20 5 0 13 10 17 23 4 14 8 17 12 9 3 -7 -3 -22
-12 -32 -16 -18 -16 -20 -1 -26 14 -5 14 -9 4 -22 -11 -13 -11 -14 2 -7 13 7
13 6 2 -7 -7 -9 -9 -18 -5 -20 4 -3 2 -3 -4 -2 -7 2 -13 -1 -13 -7 0 -6 -5 -7
-11 -3 -6 3 -10 -1 -9 -12 4 -33 0 -54 -9 -54 -10 0 -43 129 -36 140 3 5 1 11
-5 15 -13 8 -13 35 0 35 6 0 10 -7 10 -16 0 -8 4 -13 10 -9 5 3 6 13 3 21 -5
14 -3 14 15 3 12 -8 18 -17 13 -22z m2503 -10 c3 4 6 1 6 -5 0 -15 -36 -10
-53 7 -10 10 -7 10 14 2 15 -5 30 -7 33 -4z m-5339 -47 c6 -5 28 -11 48 -12
20 -2 37 -7 37 -11 0 -4 14 -13 31 -19 22 -7 27 -14 20 -21 -16 -16 -14 -32 2
-19 10 9 17 6 30 -8 20 -24 21 -30 5 -30 -7 0 -14 -12 -14 -26 -3 -35 -38 -57
-95 -58 -26 0 -46 -3 -44 -5 8 -7 -21 -27 -62 -44 -24 -9 -43 -12 -43 -7 0 13
-47 13 -55 0 -12 -19 -25 -10 -26 18 -2 23 -2 24 -6 5 -5 -27 -21 -31 -19 -5
2 25 42 55 66 47 11 -3 28 -1 37 5 15 9 14 10 -9 5 -17 -3 -28 -1 -28 5 0 6
-6 8 -12 5 -7 -4 -2 3 12 14 14 11 30 21 35 20 6 0 1 -6 -9 -14 -24 -18 -14
-20 14 -3 18 12 18 13 2 32 -9 11 -11 16 -4 12 6 -4 12 -2 12 3 0 15 -21 13
-43 -3 -10 -8 -26 -12 -37 -9 -16 4 -17 8 -7 25 44 73 130 125 162 98z m565
-55 c-6 -8 -9 -18 -6 -24 3 -5 -1 -11 -9 -15 -8 -3 -15 -12 -15 -21 0 -8 -7
-15 -15 -15 -22 0 -65 22 -65 33 0 5 -8 16 -17 23 -17 13 -17 13 2 14 17 0 17
2 5 10 -13 8 -12 10 4 10 11 0 34 5 53 12 38 14 52 5 35 -22 -8 -14 -9 -20 -1
-20 6 0 16 14 22 31 8 21 13 26 15 15 2 -10 -2 -23 -8 -31z m1040 -10 c0 -26
-40 -56 -101 -74 -45 -14 -58 -16 -45 -6 16 12 17 15 4 20 -18 7 -13 42 10 64
12 12 28 15 95 20 5 1 5 7 1 14 -4 6 2 3 14 -7 12 -11 22 -24 22 -31z m-1190
5 c0 -5 -8 -10 -17 -10 -15 0 -16 2 -3 10 19 12 20 12 20 0z m2290 -22 c0 -26
-9 -19 -15 11 -2 12 0 19 6 16 5 -4 9 -16 9 -27z m-1274 -22 c2 -13 -3 -15
-17 -11 -20 7 -49 -9 -49 -26 0 -5 7 -9 16 -9 8 0 13 4 10 9 -3 4 7 8 23 7 24
-1 26 -4 17 -18 -5 -9 -12 -15 -14 -13 -3 2 -17 -2 -33 -10 -15 -8 -34 -15
-41 -14 -7 0 -4 4 7 9 15 7 16 9 4 9 -9 1 -22 -6 -29 -14 -8 -10 -22 -13 -39
-9 -16 4 -21 2 -14 -3 9 -6 0 -9 -25 -10 -95 -3 -118 -6 -133 -13 -8 -5 -21
-4 -30 2 -11 8 -9 8 6 3 16 -5 18 -4 8 6 -10 10 -16 10 -25 1 -7 -7 -17 -8
-29 -2 -12 7 -20 6 -24 0 -5 -8 -12 -7 -23 2 -9 7 -13 8 -10 3 4 -6 -2 -16
-13 -23 -15 -10 -19 -10 -17 0 2 7 -3 13 -9 12 -39 -3 -44 -5 -39 -13 3 -5 -1
-14 -9 -21 -12 -10 -15 -10 -15 0 0 7 -7 10 -17 6 -15 -5 -15 -4 1 9 14 11 16
15 5 15 -18 0 -62 -47 -55 -59 3 -5 0 -14 -8 -20 -11 -9 -18 -8 -30 4 -13 14
-19 14 -50 1 -19 -8 -37 -12 -40 -8 -3 3 -6 1 -6 -5 0 -5 -7 -10 -15 -10 -8 0
-12 4 -9 9 6 10 -44 9 -71 -1 -11 -4 -34 -5 -51 -1 -17 4 -39 3 -49 -3 -13 -7
-16 -6 -11 2 4 6 1 11 -8 11 -9 0 -16 -4 -16 -10 0 -5 -11 -10 -25 -10 -14 0
-25 4 -25 8 0 7 -51 9 -57 2 -2 -1 -9 -3 -15 -4 -26 -4 -28 6 -6 25 13 12 17
18 11 14 -7 -3 -21 -1 -30 4 -17 10 -17 10 -1 11 10 0 17 3 16 8 0 4 2 15 5
25 4 9 9 24 12 33 3 8 9 13 14 10 5 -3 11 1 15 9 7 18 62 20 69 3 3 -7 6 -3 6
10 1 26 16 28 68 7 21 -8 47 -16 58 -18 11 -2 28 -8 39 -12 10 -5 32 -3 50 3
41 15 53 15 39 1 -6 -6 -31 -13 -55 -16 -74 -7 -110 -14 -103 -21 10 -10 109
-10 116 0 3 4 27 10 54 13 28 2 51 9 53 15 5 13 29 13 34 0 2 -6 19 -7 48 -1
25 5 36 10 25 11 l-20 1 20 8 c20 8 39 -5 29 -20 -2 -4 5 -7 16 -6 11 1 19 6
16 12 -2 7 5 11 16 10 55 -4 278 45 278 60 0 4 -3 4 -7 2 -5 -3 -14 2 -21 9
-12 13 -10 14 14 8 15 -4 25 -3 21 2 -3 5 6 10 19 10 13 1 22 -1 19 -5 -6 -11
26 -5 64 11 29 13 39 13 64 3 17 -7 32 -20 33 -29z m-2771 -26 c3 -5 1 -10 -4
-10 -6 0 -11 5 -11 10 0 6 2 10 4 10 3 0 8 -4 11 -10z m-412 -52 c3 -11 10
-17 15 -14 5 3 31 -5 57 -19 27 -13 52 -22 57 -19 4 3 8 1 8 -5 0 -5 9 -12 19
-16 28 -9 91 -71 91 -90 0 -9 5 -13 10 -10 6 3 10 1 10 -4 0 -6 -4 -11 -10
-11 -5 0 -10 -7 -10 -15 0 -9 -8 -19 -17 -22 -10 -4 -21 -11 -25 -17 -5 -7 -8
-3 -8 9 0 14 -3 16 -8 7 -9 -13 -42 -6 -42 9 0 11 17 12 23 2 2 -5 2 -2 1 5
-2 6 1 12 7 12 6 0 7 4 4 10 -4 6 -18 1 -35 -11 -16 -12 -36 -19 -44 -16 -9 4
-21 -2 -30 -14 -9 -14 -16 -17 -21 -9 -4 6 -4 14 -1 17 3 3 1 12 -5 19 -8 9
-5 11 13 8 23 -5 23 -4 1 5 -20 9 -43 39 -43 57 0 3 8 0 17 -7 12 -9 10 -3 -5
18 -13 18 -29 36 -36 40 -24 16 -51 68 -48 95 3 24 5 26 27 16 13 -6 26 -19
28 -30z m435 12 c13 0 13 -3 -4 -16 -16 -13 -16 -15 -2 -10 24 7 78 -13 78
-30 0 -7 6 -11 13 -9 6 3 30 -11 51 -30 22 -19 43 -35 48 -35 4 0 8 -7 8 -15
0 -8 4 -15 10 -15 5 0 7 8 3 18 -5 14 -3 14 10 -3 8 -10 13 -25 10 -32 -4 -9
0 -11 11 -7 9 3 16 11 16 18 0 7 4 6 9 -3 9 -15 2 -58 -8 -44 -7 11 -51 12
-45 1 3 -4 -6 -8 -20 -8 -14 0 -26 5 -26 11 0 5 -4 7 -10 4 -5 -3 -10 -1 -10
5 0 6 -4 8 -10 5 -6 -3 -10 5 -10 19 0 14 -8 30 -17 35 -10 6 -13 11 -6 11 6
0 14 -4 18 -10 3 -5 12 -7 21 -3 19 7 10 16 -19 19 -33 2 -40 -6 -21 -27 16
-18 15 -18 -9 -6 -14 6 -23 15 -21 19 3 5 0 8 -5 8 -6 0 -11 -7 -11 -15 0 -8
5 -15 10 -15 6 0 10 -8 10 -17 0 -14 -2 -15 -9 -4 -5 8 -16 11 -29 7 -11 -4
-23 -2 -27 3 -4 7 1 8 12 4 15 -5 15 -3 -3 15 -12 11 -27 41 -35 65 -8 29 -22
50 -36 58 -23 12 -31 29 -14 29 6 0 13 -4 16 -10 3 -5 11 -10 17 -10 6 0 5 7
-3 17 -12 15 -12 16 4 10 10 -4 26 -7 35 -7z m997 1 c-3 -5 -1 -12 5 -16 5 -3
10 1 10 9 0 9 7 16 15 16 8 0 15 -5 15 -12 0 -6 -3 -8 -7 -5 -3 4 -13 -2 -20
-13 -12 -17 -18 -18 -36 -8 -20 10 -21 10 -8 -5 12 -15 11 -17 -3 -17 -10 0
-14 -5 -11 -10 4 -6 12 -7 18 -3 7 4 6 0 -2 -10 -7 -9 -20 -17 -27 -17 -8 0
-14 -4 -14 -9 0 -5 -11 -8 -25 -7 -13 2 -22 0 -20 -4 2 -4 -20 -6 -50 -5 -30
1 -53 -3 -52 -8 1 -5 -4 -12 -11 -14 -7 -3 -10 1 -6 10 3 9 -3 16 -16 20 -16
4 -20 2 -16 -9 3 -8 1 -14 -4 -14 -6 0 -10 14 -10 30 0 21 5 30 18 32 32 2 37
4 49 11 13 8 97 28 130 30 11 1 19 5 16 10 -2 4 7 7 21 7 14 0 26 5 26 10 0 6
5 10 11 10 5 0 8 -4 4 -9z m952 -7 c-3 -3 -12 -4 -19 -1 -8 3 -5 6 6 6 11 1
17 -2 13 -5z m-877 -14 c0 -5 -10 -10 -22 -10 -19 0 -20 2 -8 10 19 13 30 13
30 0z m-370 -70 c-11 -7 -12 -10 -2 -10 23 0 8 -35 -16 -36 -22 -1 -30 20 -12
31 6 4 8 11 5 16 -4 5 4 9 17 9 18 0 20 -2 8 -10z m345 0 c3 -6 -1 -7 -9 -4
-18 7 -21 14 -7 14 6 0 13 -4 16 -10z m-1065 -20 c0 -5 -2 -10 -4 -10 -3 0 -8
5 -11 10 -3 6 -1 10 4 10 6 0 11 -4 11 -10z m543 -40 c-38 -35 -40 -41 -13
-58 11 -7 20 -8 20 -3 0 6 -4 13 -10 16 -15 9 -12 22 6 29 12 4 15 2 10 -9
-15 -40 38 -61 83 -33 13 8 31 9 60 2 40 -9 41 -10 20 -22 -15 -10 -19 -10
-13 -1 5 9 1 10 -17 4 -23 -7 -67 -8 -176 -3 -48 3 -51 4 -36 20 14 16 14 18
0 24 -14 5 -14 8 -2 20 7 8 18 14 24 14 6 0 11 6 11 13 0 9 3 9 9 -1 7 -12 11
-11 22 2 8 8 19 15 24 15 6 0 -5 -13 -22 -29z m2892 0 c-3 -5 -12 -10 -18 -10
-7 0 -6 4 3 10 19 12 23 12 15 0z m-3304 -52 c11 -21 11 -22 -4 -9 -10 7 -17
17 -17 22 0 15 9 10 21 -13z m624 12 c-27 -12 -43 -12 -25 0 8 5 22 9 30 9 10
0 8 -3 -5 -9z m-687 -17 c2 -7 -1 -13 -8 -13 -6 0 -9 4 -5 9 3 5 -3 12 -12 15
-15 4 -15 5 1 3 11 -1 21 -8 24 -14z m709 1 c-3 -3 -12 -4 -19 -1 -8 3 -5 6 6
6 11 1 17 -2 13 -5z m83 -36 c0 -5 -21 -8 -47 -8 -27 0 -43 4 -36 8 15 9 83 9
83 0z m70 8 c0 -2 -7 -6 -15 -10 -8 -3 -15 -1 -15 4 0 6 7 10 15 10 8 0 15 -2
15 -4z m-370 -10 c0 -2 -7 -7 -16 -10 -8 -3 -12 -2 -9 4 6 10 25 14 25 6z m83
-9 c4 3 7 1 7 -6 0 -9 -8 -11 -22 -7 -13 3 -30 6 -38 7 -10 0 -8 3 5 8 11 5
25 5 31 0 6 -5 14 -6 17 -2z m2797 -1 c0 -3 -4 -8 -10 -11 -5 -3 -10 -1 -10 4
0 6 5 11 10 11 6 0 10 -2 10 -4z m-2913 -22 c-3 -3 -12 -4 -19 -1 -8 3 -5 6 6
6 11 1 17 -2 13 -5z m20 -20 c-3 -3 -12 -4 -19 -1 -8 3 -5 6 6 6 11 1 17 -2
13 -5z m6136 -29 c-7 -21 -13 -19 -13 6 0 11 4 18 10 14 5 -3 7 -12 3 -20z
m-2058 3 c33 -15 32 -28 -3 -25 -19 1 -29 8 -29 20 -2 20 -1 20 32 5z m55 -8
c0 -5 -2 -10 -4 -10 -3 0 -8 5 -11 10 -3 6 -1 10 4 10 6 0 11 -4 11 -10z
m-100 -14 c0 -2 -8 -10 -17 -17 -16 -13 -17 -12 -4 4 13 16 21 21 21 13z m126
-48 c4 -24 7 -49 7 -55 0 -7 3 -10 8 -7 5 3 9 14 9 25 0 22 21 21 28 -1 3 -7
0 -10 -6 -6 -12 7 -22 -16 -16 -41 2 -10 -5 -31 -16 -48 l-20 -30 -7 35 -7 35
-7 -50 c-3 -27 -3 -52 1 -55 10 -7 19 -61 13 -77 -3 -7 -10 -13 -15 -13 -6 0
-7 8 -4 17 6 15 4 15 -16 -2 -34 -29 -68 -47 -68 -35 0 5 4 10 9 10 5 0 11 9
14 20 3 13 14 20 28 20 l22 0 -21 19 c-12 10 -19 20 -16 23 3 3 -2 8 -11 11
-10 5 -15 0 -16 -16 -1 -12 -2 -26 -4 -32 -1 -5 -3 -17 -4 -25 -1 -11 -3 -12
-9 -3 -4 7 -7 53 -7 103 0 77 3 94 18 105 11 8 17 23 15 37 -2 17 2 23 15 22
30 -3 18 14 -15 22 -32 7 -32 8 -8 14 14 4 37 6 53 4 15 -2 27 1 27 6 0 6 4
10 9 10 5 0 12 -19 17 -42z m1969 5 c0 -39 -11 -34 -17 7 -3 19 -1 29 6 27 6
-2 11 -17 11 -34z m-1790 7 c3 -5 -1 -10 -9 -10 -23 0 -19 -15 7 -29 12 -6 15
-10 6 -7 -9 2 -22 -1 -29 -7 -10 -9 -12 -8 -7 4 3 9 0 22 -6 28 -9 9 -8 14 3
21 19 12 27 12 35 0z m-1640 -122 c3 -11 -2 -27 -10 -34 -8 -8 -12 -21 -9 -29
4 -8 1 -15 -5 -15 -6 0 -11 -7 -11 -16 0 -14 3 -14 15 -4 16 13 16 2 0 -70 -2
-8 -4 -21 -4 -28 -1 -7 -5 -11 -10 -7 -5 3 -13 1 -16 -5 -4 -6 -1 -9 5 -8 16
4 20 -25 10 -60 -8 -27 -8 -26 -10 8 l-1 35 -13 -30 c-7 -16 -11 -33 -9 -37 2
-5 -1 -8 -6 -8 -6 0 -11 -7 -11 -16 0 -16 -41 -117 -45 -112 -2 2 0 22 5 46 6
33 5 41 -4 32 -6 -6 -12 -15 -12 -20 -1 -6 -3 -12 -4 -15 -3 -6 -7 -21 -9 -33
0 -4 -13 -7 -28 -6 -39 2 -40 3 -20 15 9 5 22 7 29 3 7 -5 8 -3 4 5 -5 7 -14
10 -21 7 -9 -3 -13 2 -12 14 1 11 7 22 14 24 8 3 13 22 13 46 0 25 4 39 10 35
9 -6 14 11 13 43 -1 7 5 11 12 8 9 -3 12 0 9 9 -7 17 22 49 36 40 5 -3 10 -1
10 4 0 6 -7 11 -15 11 -8 0 -15 5 -15 10 0 6 7 10 15 10 17 0 18 2 9 24 -3 9
-10 13 -15 10 -5 -3 -9 -1 -9 4 0 6 7 13 16 16 8 3 12 11 9 16 -4 6 -1 17 5
25 6 8 9 22 6 32 -6 22 18 58 33 48 6 -3 11 -1 11 4 0 6 -4 11 -10 11 -5 0
-10 7 -10 15 0 20 51 -32 55 -57z m832 50 c17 -14 93 -114 93 -122 0 -3 18
-33 40 -67 22 -35 45 -81 52 -103 6 -23 17 -48 25 -57 19 -22 16 -32 -7 -26
-11 3 -20 1 -20 -4 0 -12 -41 10 -57 30 -7 9 -13 24 -13 35 0 12 -5 16 -15 12
-8 -3 -14 0 -12 7 1 6 -8 13 -21 15 -17 3 -21 8 -17 21 3 11 -3 28 -14 42 -17
20 -20 21 -21 7 0 -10 5 -18 10 -18 6 0 10 -4 10 -10 0 -23 -21 -7 -26 20 -4
17 -10 30 -14 30 -4 0 -11 7 -14 16 -6 15 -4 15 11 4 10 -8 6 -1 -8 14 -35 37
-57 26 -29 -15 12 -16 18 -29 13 -29 -4 0 -2 -4 6 -9 9 -6 10 -11 2 -15 -5 -4
-17 7 -26 24 -8 16 -21 30 -27 30 -6 0 -9 3 -5 6 3 3 -6 17 -20 30 -17 16 -29
21 -33 14 -10 -16 -39 66 -33 92 4 23 4 23 -13 3 -15 -19 -16 -19 -10 -1 5 16
4 17 -9 6 -12 -10 -15 -10 -15 3 0 17 15 20 133 25 46 2 73 -1 84 -10z m963
-9 c0 -4 -7 -6 -15 -3 -8 4 -15 10 -15 15 0 4 7 6 15 3 8 -4 15 -10 15 -15z
m-1687 4 c-14 -5 -18 -24 -5 -22 21 4 23 -3 7 -27 -9 -15 -12 -23 -6 -20 6 4
11 0 11 -11 1 -17 1 -17 14 -1 7 10 16 15 19 11 4 -3 7 -2 7 4 0 6 7 13 14 16
11 4 13 1 9 -10 -4 -10 -2 -14 5 -9 7 4 10 -1 9 -14 -1 -11 -5 -20 -10 -20 -5
0 -6 -8 -3 -17 4 -11 -2 -8 -13 7 -16 19 -23 22 -32 13 -9 -9 -9 -35 -1 -110
6 -54 9 -107 7 -118 -2 -11 -4 -23 -4 -27 -1 -5 -11 -8 -23 -8 -18 0 -20 2 -9
9 12 8 12 12 2 24 -8 10 -9 17 -1 22 5 3 10 20 10 38 0 29 -1 30 -14 12 -14
-19 -14 -19 -14 5 0 14 -3 46 -7 72 -4 28 -2 49 4 53 7 4 11 -8 11 -32 0 -26
3 -34 9 -24 10 16 4 64 -9 69 -5 2 -6 10 -4 17 3 8 -1 27 -9 44 -13 26 -13 31
1 45 9 9 21 16 27 15 5 0 4 -3 -2 -6z m1587 -30 c0 -28 -25 -59 -35 -43 -3 5
-1 10 4 10 6 0 11 5 11 10 0 7 -6 7 -20 0 -16 -9 -18 -8 -14 5 4 8 13 15 21
15 10 0 14 7 10 19 -3 14 -1 18 9 14 8 -3 14 -16 14 -30z m-653 -13 c5 -22 6
-40 2 -40 -5 0 -9 5 -9 12 0 6 -8 3 -20 -7 -11 -10 -17 -22 -14 -26 3 -5 0 -9
-5 -9 -6 0 -11 5 -11 11 0 6 -11 24 -25 41 -38 45 -30 55 27 33 12 -5 20 -2
24 9 10 26 19 19 31 -24z m46 23 c10 4 16 -2 20 -19 2 -13 0 -24 -4 -24 -21 0
-24 2 -21 15 1 7 -4 15 -13 19 -8 3 -15 11 -15 18 0 10 3 9 9 -1 5 -8 16 -11
24 -8z m565 -4 c-19 -13 -28 -11 -28 5 0 9 7 12 21 9 16 -4 17 -8 7 -14z
m-1878 -10 c0 -5 -4 -9 -10 -9 -5 0 -10 7 -10 16 0 8 5 12 10 9 6 -3 10 -10
10 -16z m834 5 c4 -9 4 -19 1 -22 -3 -3 -5 0 -5 6 0 7 -3 11 -7 11 -5 -1 -15
-1 -23 0 -13 1 -13 2 0 11 21 14 27 12 34 -6z m626 6 c0 -5 -4 -10 -10 -10 -5
0 -10 5 -10 10 0 6 5 10 10 10 6 0 10 -4 10 -10z m315 -47 c7 -31 0 -40 -20
-23 -13 11 -14 10 -9 -6 6 -15 4 -17 -6 -7 -11 10 -16 9 -27 -5 -12 -15 -13
-14 -11 13 2 19 9 30 18 30 10 0 15 9 14 28 -1 26 0 27 16 12 10 -9 21 -28 25
-42z m-415 37 c0 -5 -4 -10 -10 -10 -5 0 -10 5 -10 10 0 6 5 10 10 10 6 0 10
-4 10 -10z m-1350 -24 c0 -11 -19 -15 -25 -6 -3 5 1 10 9 10 9 0 16 -2 16 -4z
m244 -12 c3 -8 2 -12 -4 -9 -6 3 -10 10 -10 16 0 14 7 11 14 -7z m3456 -4 c0
-5 -8 -10 -17 -10 -15 0 -16 2 -3 10 19 12 20 12 20 0z m-1777 -31 c3 -12 2
-31 -2 -43 -5 -11 -6 -26 -4 -32 2 -6 -3 -14 -12 -17 -18 -7 -45 1 -45 14 0 4
7 6 15 3 20 -8 19 6 -2 23 -13 9 -14 13 -4 11 8 -2 17 6 19 17 3 16 2 17 -10
8 -8 -7 -19 -8 -28 -3 -9 6 -20 4 -30 -3 -13 -10 -13 -10 -1 5 9 12 18 15 28
9 11 -6 22 -2 34 10 25 25 35 24 42 -2z m-143 -30 c0 -13 4 -18 12 -13 7 4 8
3 4 -5 -4 -6 -11 -9 -16 -6 -5 3 -10 -18 -12 -47 -2 -39 -7 -53 -18 -53 -8 0
-16 9 -17 20 -1 11 -3 37 -6 59 -2 24 2 43 10 52 21 21 43 17 43 -7z m-1350 7
c0 -3 -4 -8 -10 -11 -5 -3 -10 -1 -10 4 0 6 5 11 10 11 6 0 10 -2 10 -4z
m-1270 -32 c0 -8 -4 -12 -10 -9 -5 3 -10 10 -10 16 0 5 5 9 10 9 6 0 10 -7 10
-16z m1490 -24 c0 -4 -6 -10 -14 -13 -10 -4 -12 0 -9 14 5 18 23 18 23 -1z
m-113 4 c-3 -3 -12 -4 -19 -1 -8 3 -5 6 6 6 11 1 17 -2 13 -5z m292 -20 c-18
-22 -20 -44 -3 -44 8 0 14 -8 14 -17 0 -12 -3 -14 -8 -6 -5 8 -19 1 -47 -22
-21 -19 -42 -30 -45 -25 -3 5 -11 5 -20 0 -11 -7 -11 -10 -2 -10 10 0 10 -3 1
-13 -24 -25 -45 -15 -46 23 -1 19 3 42 8 50 7 12 8 10 9 -7 0 -13 5 -23 10
-23 6 0 10 9 10 20 0 11 6 20 14 20 7 0 19 7 26 15 7 8 21 15 32 15 10 0 16 5
13 10 -3 6 4 14 17 19 32 13 32 13 17 -5z m1078 -56 c-10 -16 -12 -16 -15 -3
-2 9 -1 24 3 33 5 13 8 14 15 3 5 -9 3 -22 -3 -33z m-1552 -137 c10 -17 -12
-21 -25 -6 -10 12 -10 15 3 15 9 0 18 -4 22 -9z m3408 -41 c3 -11 1 -18 -4
-14 -5 3 -9 12 -9 20 0 20 7 17 13 -6z m-3608 -95 c-15 -76 -33 -132 -34 -103
-2 39 36 185 45 176 1 -2 -3 -35 -11 -73z m1432 55 c8 -12 9 -21 3 -25 -6 -3
-10 -17 -10 -31 0 -13 -5 -24 -11 -24 -11 0 -3 37 13 57 7 9 5 15 -6 19 -9 3
-16 10 -16 15 0 15 15 10 27 -11z m-1627 -20 c0 -5 -5 -10 -11 -10 -5 0 -7 5
-4 10 3 6 8 10 11 10 2 0 4 -4 4 -10z m118 -31 c-6 -16 -12 -29 -13 -27 -6 6
8 58 16 58 4 0 3 -14 -3 -31z m1347 15 c10 -10 13 -24 9 -36 -4 -14 -2 -18 5
-14 7 4 9 1 5 -8 -3 -8 2 -16 13 -19 14 -4 14 -5 -4 -6 -14 -1 -23 5 -23 13 0
8 -7 22 -16 30 -8 9 -12 21 -8 27 4 8 3 9 -4 5 -13 -8 -17 6 -5 17 9 9 9 9 28
-9z m-1468 -72 c7 -7 13 -10 13 -5 0 5 -5 14 -12 21 -9 9 -9 12 0 12 7 0 12
-4 12 -9 0 -5 7 -17 16 -25 14 -15 14 -16 -5 -16 -12 0 -21 -6 -21 -15 0 -8
-8 -15 -17 -15 -14 0 -15 -2 -4 -9 8 -6 11 -16 6 -31 -5 -15 -10 -19 -14 -11
-8 12 -41 5 -41 -9 0 -5 8 -11 18 -13 10 -3 6 -5 -11 -6 -33 -1 -43 19 -28 57
6 15 12 42 13 60 2 23 7 32 20 32 9 0 20 5 24 12 6 9 9 8 12 -2 3 -8 11 -21
19 -28z m116 -19 c-3 -10 -9 -22 -12 -28 -3 -5 -6 -14 -6 -19 0 -5 -6 -11 -12
-13 -16 -6 -16 0 1 42 15 35 41 51 29 18z m1515 -15 c-2 -12 -9 -23 -16 -26
-10 -3 -11 16 -3 46 1 1 6 2 12 2 6 0 9 -10 7 -22z m-1512 -148 c-7 -41 -19
-90 -24 -109 -11 -33 -11 -33 9 -15 11 10 17 24 15 31 -3 7 1 13 9 13 8 0 20
10 26 22 6 12 21 31 32 42 l19 21 -11 -23 c-14 -25 -7 -42 16 -42 20 0 -21
-34 -53 -44 -25 -8 -46 -47 -34 -65 6 -10 12 -10 29 0 11 8 21 17 21 21 0 5 4
8 9 8 5 0 8 -8 6 -17 -1 -12 -9 -17 -21 -15 -15 3 -16 1 -7 -9 8 -8 9 -18 2
-31 -5 -10 -7 -18 -4 -18 4 0 -4 -18 -16 -40 -13 -22 -27 -40 -31 -40 -5 0 -6
6 -2 13 4 6 -1 5 -12 -4 -22 -19 -104 -62 -104 -55 0 3 -25 -4 -57 -15 -66
-23 -85 -24 -59 -4 20 15 20 15 0 16 -10 0 -27 2 -36 4 -10 2 -18 -5 -22 -19
-5 -19 -11 -22 -36 -18 -28 4 -30 6 -15 21 8 10 15 23 15 29 0 6 10 18 23 26
69 43 103 63 110 65 4 0 16 10 28 22 11 11 27 18 34 15 9 -3 12 0 8 10 -4 10
2 14 22 14 14 0 24 4 21 8 -3 5 9 25 25 45 17 20 27 37 23 37 -5 0 -3 5 4 12
7 7 12 21 12 33 0 28 34 161 38 144 1 -8 -4 -48 -12 -89z m-19 84 c-3 -3 -12
-4 -19 -1 -8 3 -5 6 6 6 11 1 17 -2 13 -5z m60 -36 c-3 -8 -6 -5 -6 6 -1 11 2
17 5 13 3 -3 4 -12 1 -19z m-17 -65 c-11 -17 -11 -17 -6 0 3 10 7 26 7 35 1
15 2 15 6 0 2 -10 -1 -25 -7 -35z m80 -13 c0 -5 -4 -10 -10 -10 -5 0 -10 5
-10 10 0 6 5 10 10 10 6 0 10 -4 10 -10z m-60 -90 c0 -5 -5 -10 -11 -10 -5 0
-7 5 -4 10 3 6 8 10 11 10 2 0 4 -4 4 -10z m-420 -271 c0 -12 -5 -16 -15 -13
-8 4 -15 1 -15 -5 0 -6 -7 -11 -16 -11 -9 0 -12 5 -8 12 5 8 0 9 -14 6 -12 -4
-20 -2 -16 3 3 5 10 9 15 9 6 0 17 7 25 15 18 18 44 9 44 -16z m1242 -121 c-9
-9 -15 -9 -24 0 -9 9 -7 12 12 12 19 0 21 -3 12 -12z m2549 -81 c-10 -9 -11
-8 -5 6 3 10 9 15 12 12 3 -3 0 -11 -7 -18z m-2824 -83 c-3 -3 -12 -4 -19 -1
-8 3 -5 6 6 6 11 1 17 -2 13 -5z m3022 -54 c0 -10 -3 -8 -9 5 -12 27 -12 43 0
25 5 -8 9 -22 9 -30z m-2741 -30 c-6 -22 -14 -37 -19 -34 -12 7 -11 44 1 44 6
0 10 7 10 15 0 8 4 15 9 15 5 0 4 -17 -1 -40z m27 -19 c0 -16 -2 -29 -5 -28
-3 1 -15 -4 -26 -11 -18 -9 -24 -8 -40 10 -19 21 -19 21 3 7 18 -11 25 -11 35
-1 7 7 14 17 14 23 1 5 2 14 3 19 3 23 16 8 16 -19z m-19 -73 c4 -7 3 -8 -5
-4 -6 4 -14 0 -17 -8 -7 -19 -34 -21 -34 -3 0 8 3 17 7 20 10 11 41 8 49 -5z"/>
<path d="M8044 10188 c-3 -4 4 -8 15 -8 12 0 21 4 21 8 0 5 -7 9 -15 9 -9 0
-18 -4 -21 -9z"/>
<path d="M7945 10180 c-3 -6 1 -7 9 -4 18 7 21 14 7 14 -6 0 -13 -4 -16 -10z"/>
<path d="M7990 10179 c0 -5 10 -9 22 -9 12 0 18 3 14 7 -10 11 -36 12 -36 2z"/>
<path d="M8108 10178 c5 -5 16 -8 23 -6 8 3 3 7 -10 11 -17 4 -21 3 -13 -5z"/>
<path d="M8053 10132 c-1 -19 3 -29 12 -29 8 0 12 4 9 8 -2 4 5 13 16 19 25
13 17 30 -13 30 -17 0 -22 -6 -24 -28z m44 12 c-3 -3 -12 -4 -19 -1 -8 3 -5 6
6 6 11 1 17 -2 13 -5z"/>
<path d="M7930 10060 c0 -5 5 -10 11 -10 5 0 7 5 4 10 -3 6 -8 10 -11 10 -2 0
-4 -4 -4 -10z"/>
<path d="M8055 10050 c-19 -8 -19 -9 2 -9 12 -1 25 4 28 9 7 12 -2 12 -30 0z"/>
<path d="M8050 9910 c0 -16 17 -20 28 -7 8 10 6 13 -9 14 -10 1 -19 -2 -19 -7z"/>
<path d="M8060 9860 c0 -5 5 -10 11 -10 5 0 7 5 4 10 -3 6 -8 10 -11 10 -2 0
-4 -4 -4 -10z"/>
<path d="M8066 9829 c3 -5 10 -6 16 -3 8 5 9 1 5 -10 -4 -10 -3 -15 3 -11 6 3
10 1 10 -4 0 -6 5 -11 11 -11 18 0 -14 43 -34 46 -9 1 -15 -2 -11 -7z"/>
<path d="M8055 9690 c4 -6 11 -8 16 -5 14 9 11 15 -7 15 -8 0 -12 -5 -9 -10z"/>
<path d="M8096 9682 c-3 -5 1 -9 9 -9 8 0 15 4 15 9 0 4 -4 8 -9 8 -6 0 -12
-4 -15 -8z"/>
<path d="M8086 9641 c-4 -5 -2 -12 3 -15 5 -4 12 -2 15 3 4 5 2 12 -3 15 -5 4
-12 2 -15 -3z"/>
<path d="M8030 9623 c0 -7 72 -34 78 -29 3 3 3 9 -1 12 -7 7 -77 23 -77 17z"/>
<path d="M8105 9430 c-4 -6 -10 -8 -14 -6 -4 3 -7 -5 -8 -17 0 -12 1 -16 4 -9
4 10 9 10 23 -3 16 -15 18 -14 23 5 4 17 2 20 -14 15 -27 -9 -24 4 4 15 16 6
17 9 5 9 -9 1 -20 -4 -23 -9z"/>
<path d="M8065 9370 l-30 -8 27 -1 c15 0 30 4 33 9 3 6 5 9 3 9 -2 -1 -16 -5
-33 -9z"/>
<path d="M6810 10030 c-12 -8 -11 -10 8 -10 12 0 22 5 22 10 0 13 -11 13 -30
0z"/>
<path d="M6812 9987 c-12 -13 -22 -27 -22 -32 0 -5 7 0 15 11 15 19 15 19 31
-1 14 -16 16 -17 11 -2 -4 10 -1 17 7 17 7 0 13 7 13 15 0 13 -4 12 -20 -2
-19 -17 -20 -17 -14 0 8 23 5 22 -21 -6z"/>
<path d="M6810 9939 c0 -16 -4 -18 -18 -10 -10 5 -24 6 -31 2 -9 -6 -3 -10 18
-13 17 -2 34 -1 38 3 5 4 16 9 25 11 14 2 13 5 -7 15 -22 10 -25 9 -25 -8z"/>
<path d="M7018 9883 c7 -3 16 -2 19 1 4 3 -2 6 -13 5 -11 0 -14 -3 -6 -6z"/>
<path d="M7010 9844 c0 -16 27 -37 39 -30 12 8 3 36 -11 36 -6 0 -5 -6 2 -15
8 -10 9 -15 2 -15 -6 0 -16 8 -21 18 -6 9 -11 12 -11 6z"/>
<path d="M6730 9809 c0 -5 -4 -7 -10 -4 -5 3 -10 2 -10 -3 0 -19 26 -20 27 -1
1 10 0 19 -3 19 -2 0 -4 -5 -4 -11z"/>
<path d="M7025 9780 c3 -5 8 -10 11 -10 2 0 4 5 4 10 0 6 -5 10 -11 10 -5 0
-7 -4 -4 -10z"/>
<path d="M6781 9714 c0 -11 3 -14 6 -6 3 7 2 16 -1 19 -3 4 -6 -2 -5 -13z"/>
<path d="M6610 9680 c0 -5 5 -10 11 -10 5 0 7 5 4 10 -3 6 -8 10 -11 10 -2 0
-4 -4 -4 -10z"/>
<path d="M6655 9670 c3 -5 17 -7 30 -6 38 4 38 12 0 13 -19 0 -32 -3 -30 -7z"/>
<path d="M6982 9661 c-10 -6 -7 -10 12 -13 21 -4 24 -3 15 8 -13 16 -11 16
-27 5z"/>
<path d="M6635 9630 c-14 -16 -14 -18 5 -23 16 -4 20 -2 16 9 -3 9 -1 12 4 9
5 -3 18 -1 27 4 10 6 16 11 13 12 -30 6 -53 3 -65 -11z"/>
<path d="M6845 9630 c-13 -5 -14 -9 -5 -9 8 0 24 4 35 9 13 5 14 9 5 9 -8 0
-24 -4 -35 -9z"/>
<path d="M6952 9631 c-11 -7 -11 -9 0 -14 9 -3 15 1 15 9 0 8 -1 14 -1 14 -1
0 -7 -4 -14 -9z"/>
<path d="M6890 9599 c0 -5 9 -9 20 -9 11 0 20 2 20 4 0 2 -9 6 -20 9 -11 3
-20 1 -20 -4z"/>
<path d="M6975 9600 c-4 -6 -12 -7 -18 -4 -9 5 -9 4 -1 -5 11 -12 44 -5 44 10
0 12 -17 11 -25 -1z"/>
<path d="M7030 9596 c0 -2 7 -6 15 -10 8 -3 15 -1 15 4 0 6 -7 10 -15 10 -8 0
-15 -2 -15 -4z"/>
<path d="M6878 9535 c6 -36 17 -38 19 -4 1 18 -3 29 -11 29 -9 0 -12 -9 -8
-25z"/>
<path d="M6950 9540 c0 -11 4 -20 10 -20 5 0 6 8 3 18 -6 14 -4 15 8 5 13 -10
16 -10 16 2 0 8 -9 15 -19 15 -11 0 -18 -7 -18 -20z"/>
<path d="M7051 9548 c-1 -20 14 -24 25 -6 4 6 3 8 -4 4 -5 -3 -13 0 -15 6 -3
8 -6 6 -6 -4z"/>
<path d="M1138 9473 c7 -3 16 -2 19 1 4 3 -2 6 -13 5 -11 0 -14 -3 -6 -6z"/>
<path d="M1145 9440 c-3 -6 1 -7 9 -4 18 7 21 14 7 14 -6 0 -13 -4 -16 -10z"/>
<path d="M1038 9253 c7 -3 16 -2 19 1 4 3 -2 6 -13 5 -11 0 -14 -3 -6 -6z"/>
<path d="M1425 9080 c-3 -5 -1 -10 4 -10 6 0 11 5 11 10 0 6 -2 10 -4 10 -3 0
-8 -4 -11 -10z"/>
<path d="M1640 9079 c0 -5 5 -7 10 -4 6 3 10 8 10 11 0 2 -4 4 -10 4 -5 0 -10
-5 -10 -11z"/>
<path d="M1465 9060 c-3 -6 1 -7 9 -4 18 7 21 14 7 14 -6 0 -13 -4 -16 -10z"/>
<path d="M1656 8943 c-6 -14 -5 -15 5 -6 7 7 10 15 7 18 -3 3 -9 -2 -12 -12z"/>
<path d="M1138 8563 c7 -3 16 -2 19 1 4 3 -2 6 -13 5 -11 0 -14 -3 -6 -6z"/>
<path d="M1640 8500 c0 -5 5 -10 11 -10 5 0 7 5 4 10 -3 6 -8 10 -11 10 -2 0
-4 -4 -4 -10z"/>
<path d="M1121 8336 c2 -2 18 -6 34 -10 22 -5 26 -4 15 4 -14 9 -59 15 -49 6z"/>
<path d="M1485 8190 c3 -5 8 -10 11 -10 2 0 4 5 4 10 0 6 -5 10 -11 10 -5 0
-7 -4 -4 -10z"/>
<path d="M1508 7983 c7 -3 16 -2 19 1 4 3 -2 6 -13 5 -11 0 -14 -3 -6 -6z"/>
<path d="M960 7963 c0 -19 21 -27 33 -13 9 10 9 11 -2 5 -8 -4 -17 -2 -22 6
-6 9 -9 10 -9 2z"/>
<path d="M6645 9460 c-3 -6 1 -7 9 -4 18 7 21 14 7 14 -6 0 -13 -4 -16 -10z"/>
<path d="M7043 9411 c0 -11 5 -18 9 -15 4 3 5 11 1 19 -7 21 -12 19 -10 -4z"/>
<path d="M6852 9312 c-29 -4 -23 -27 7 -26 11 0 21 -2 21 -6 0 -3 19 -4 43 -1
41 6 50 23 14 28 -10 2 -15 -1 -12 -7 9 -14 -16 -12 -34 3 -9 7 -26 11 -39 9z"/>
<path d="M7065 9290 c-3 -5 -1 -10 4 -10 6 0 11 5 11 10 0 6 -2 10 -4 10 -3 0
-8 -4 -11 -10z"/>
<path d="M7010 9269 c0 -5 5 -7 10 -4 6 3 10 8 10 11 0 2 -4 4 -10 4 -5 0 -10
-5 -10 -11z"/>
<path d="M6508 9373 c-10 -2 -18 -9 -18 -14 0 -14 20 -11 36 6 16 15 13 16
-18 8z"/>
<path d="M6687 9203 c-4 -3 -7 -11 -7 -17 0 -6 5 -5 12 2 6 6 9 14 7 17 -3 3
-9 2 -12 -2z"/>
<path d="M5760 9190 c0 -5 7 -10 15 -10 8 0 15 5 15 10 0 6 -7 10 -15 10 -8 0
-15 -4 -15 -10z"/>
<path d="M6020 9020 c0 -5 5 -10 11 -10 5 0 7 5 4 10 -3 6 -8 10 -11 10 -2 0
-4 -4 -4 -10z"/>
<path d="M5958 9003 c7 -3 16 -2 19 1 4 3 -2 6 -13 5 -11 0 -14 -3 -6 -6z"/>
<path d="M6103 8893 c0 -7 6 -13 12 -13 6 0 12 6 12 13 0 8 -6 14 -12 14 -6 0
-12 -6 -12 -14z"/>
<path d="M6155 8880 c3 -5 8 -10 11 -10 2 0 4 5 4 10 0 6 -5 10 -11 10 -5 0
-7 -4 -4 -10z"/>
<path d="M2350 8800 c0 -5 10 -15 23 -21 22 -12 22 -12 3 10 -21 23 -26 26
-26 11z"/>
<path d="M2353 8755 c0 -7 6 -11 14 -8 7 3 13 6 13 8 0 2 -6 5 -13 8 -8 3 -14
-1 -14 -8z"/>
<path d="M5933 8730 c-11 -16 -10 -18 1 -14 15 6 30 34 18 34 -4 0 -13 -9 -19
-20z"/>
<path d="M6256 8682 c-3 -5 8 -8 24 -8 16 0 27 3 24 8 -3 4 -14 8 -24 8 -10 0
-21 -4 -24 -8z"/>
<path d="M6250 8525 c6 -16 6 -25 0 -25 -6 0 -10 -4 -10 -10 0 -5 7 -7 15 -3
9 3 15 2 14 -3 -4 -17 13 -44 29 -44 11 0 9 5 -8 20 -13 11 -18 20 -12 20 7 0
3 15 -9 35 -25 41 -32 45 -19 10z"/>
<path d="M6282 8530 c0 -14 2 -19 5 -12 2 6 2 18 0 25 -3 6 -5 1 -5 -13z"/>
<path d="M6200 8519 c0 -5 5 -7 10 -4 6 3 10 8 10 11 0 2 -4 4 -10 4 -5 0 -10
-5 -10 -11z"/>
<path d="M6517 8468 c-6 -4 -16 -4 -22 -2 -5 3 -2 -1 8 -9 17 -15 25 -43 8
-32 -5 3 -12 2 -15 -3 -6 -10 50 -9 60 0 3 4 12 4 19 2 9 -4 12 1 11 13 -2 11
6 22 23 29 23 9 20 10 -27 10 -29 0 -58 -4 -65 -8z m48 -29 c-4 -5 -13 -9 -22
-9 -13 0 -13 3 -3 15 13 15 35 11 25 -6z"/>
<path d="M6355 8460 c3 -5 8 -10 11 -10 2 0 4 5 4 10 0 6 -5 10 -11 10 -5 0
-7 -4 -4 -10z"/>
<path d="M6620 8450 c-9 -6 -10 -10 -3 -10 6 0 15 5 18 10 8 12 4 12 -15 0z"/>
<path d="M6371 8413 l1 -28 8 25 c7 21 8 22 9 5 1 -16 3 -17 11 -5 6 9 5 17
-3 22 -21 13 -27 9 -26 -19z"/>
<path d="M6645 8430 c3 -5 0 -11 -7 -11 -7 -1 5 -5 27 -9 22 -5 44 -4 50 1 5
5 -1 9 -17 9 -15 0 -30 5 -33 10 -3 6 -11 10 -16 10 -6 0 -7 -4 -4 -10z"/>
<path d="M6330 8420 c0 -6 7 -10 15 -10 8 0 15 2 15 4 0 2 -7 6 -15 10 -8 3
-15 1 -15 -4z"/>
<path d="M6260 8378 c0 -4 7 -8 15 -8 8 0 15 4 15 8 0 5 -7 9 -15 9 -8 0 -15
-4 -15 -9z"/>
<path d="M6496 8375 c-3 -8 -1 -15 3 -15 5 0 11 7 15 15 3 8 1 15 -3 15 -5 0
-11 -7 -15 -15z"/>
<path d="M6550 8375 c0 -16 16 -20 24 -6 3 5 -1 11 -9 15 -9 3 -15 0 -15 -9z"/>
<path d="M6244 8353 c10 -11 36 -12 36 -2 0 5 -10 9 -22 9 -12 0 -18 -3 -14
-7z"/>
<path d="M6610 8340 c0 -5 5 -10 10 -10 6 0 10 5 10 10 0 6 -4 10 -10 10 -5 0
-10 -4 -10 -10z"/>
<path d="M6303 8333 c9 -2 25 -2 35 0 9 3 1 5 -18 5 -19 0 -27 -2 -17 -5z"/>
<path d="M222 8508 c5 -15 28 -23 28 -10 0 5 -7 13 -16 16 -10 4 -14 1 -12 -6z"/>
<path d="M175 8350 c3 -5 8 -10 11 -10 2 0 4 5 4 10 0 6 -5 10 -11 10 -5 0 -7
-4 -4 -10z"/>
<path d="M738 8153 c7 -3 16 -2 19 1 4 3 -2 6 -13 5 -11 0 -14 -3 -6 -6z"/>
<path d="M7560 5351 c0 -5 5 -13 10 -16 6 -3 10 -2 10 4 0 5 -4 13 -10 16 -5
3 -10 2 -10 -4z"/>
<path d="M7527 5326 c11 -15 21 -20 25 -13 4 6 -1 17 -10 24 -27 20 -34 15
-15 -11z"/>
<path d="M5265 4420 c-3 -6 1 -7 9 -4 18 7 21 14 7 14 -6 0 -13 -4 -16 -10z"/>
<path d="M5737 4344 c-3 -5 1 -15 9 -22 16 -14 18 -5 5 17 -5 7 -11 9 -14 5z"/>
<path d="M5602 3710 c10 -18 10 -24 1 -27 -7 -3 -13 -12 -13 -21 0 -13 3 -12
19 4 22 23 21 43 -3 56 -15 9 -16 7 -4 -12z"/>
<path d="M5230 3660 c0 -6 7 -10 15 -10 8 0 15 2 15 4 0 2 -7 6 -15 10 -8 3
-15 1 -15 -4z"/>
<path d="M4967 3605 c3 -8 9 -12 14 -9 12 7 11 11 -5 17 -10 4 -13 1 -9 -8z"/>
<path d="M5071 4271 c-8 -6 -9 -11 -3 -15 6 -3 14 -1 17 5 9 14 2 20 -14 10z"/>
<path d="M5613 4005 c0 -8 4 -15 9 -15 4 0 8 7 8 15 0 8 -4 15 -8 15 -5 0 -9
-7 -9 -15z"/>
<path d="M2727 3867 c-3 -8 -1 -20 4 -28 5 -8 9 -12 10 -9 0 3 2 13 4 22 4 22
-11 33 -18 15z"/>
<path d="M2760 3860 c0 -11 2 -20 4 -20 14 0 36 14 36 22 0 5 -4 6 -10 3 -5
-3 -10 -1 -10 4 0 6 -4 11 -10 11 -5 0 -10 -9 -10 -20z"/>
<path d="M2630 3790 c-8 -5 -10 -10 -5 -10 6 0 17 5 25 10 8 5 11 10 5 10 -5
0 -17 -5 -25 -10z"/>
<path d="M3237 3863 c-11 -11 -8 -23 6 -23 8 0 14 7 14 15 0 16 -9 19 -20 8z"/>
<path d="M3868 3843 c6 -2 18 -2 25 0 6 3 1 5 -13 5 -14 0 -19 -2 -12 -5z"/>
<path d="M3168 3798 c5 -5 16 -8 23 -6 8 3 3 7 -10 11 -17 4 -21 3 -13 -5z"/>
<path d="M1540 3750 c-8 -5 -10 -10 -5 -10 6 0 17 5 25 10 8 5 11 10 5 10 -5
0 -17 -5 -25 -10z"/>
<path d="M1591 3684 c0 -11 3 -14 6 -6 3 7 2 16 -1 19 -3 4 -6 -2 -5 -13z"/>
<path d="M2210 3759 c0 -5 5 -7 10 -4 6 3 10 8 10 11 0 2 -4 4 -10 4 -5 0 -10
-5 -10 -11z"/>
<path d="M6065 3420 c4 -6 10 -8 14 -5 5 2 13 -7 20 -22 6 -14 14 -23 17 -21
11 11 -20 58 -38 58 -11 0 -16 -5 -13 -10z"/>
<path d="M4640 3209 c0 -11 4 -18 10 -14 5 3 7 12 3 20 -7 21 -13 19 -13 -6z"/>
<path d="M4610 3186 c0 -2 7 -9 15 -16 9 -7 15 -8 15 -2 0 5 -7 12 -15 16 -8
3 -15 4 -15 2z"/>
<path d="M5360 3359 c0 -5 5 -7 10 -4 6 3 10 8 10 11 0 2 -4 4 -10 4 -5 0 -10
-5 -10 -11z"/>
<path d="M4390 2785 c0 -9 6 -12 15 -9 8 4 15 7 15 9 0 2 -7 5 -15 9 -9 3 -15
0 -15 -9z"/>
<path d="M4596 2572 c-3 -6 -1 -14 5 -17 14 -9 20 -2 10 14 -6 8 -11 9 -15 3z"/>
<path d="M4562 2434 c-7 -8 -8 -14 -3 -14 10 0 25 19 20 25 -2 1 -10 -3 -17
-11z"/>
<path d="M4504 2424 c-18 -14 -18 -15 4 -4 12 6 22 13 22 15 0 8 -5 6 -26 -11z"/>
<path d="M4419 2353 c-13 -15 -17 -22 -8 -15 9 6 19 10 22 7 4 -3 5 -2 2 2 -3
3 0 12 6 20 21 25 3 13 -22 -14z"/>
<path d="M4315 2309 c-4 -6 -2 -16 5 -22 10 -9 11 -9 6 0 -3 6 -1 13 6 15 9 3
9 6 1 11 -7 4 -15 2 -18 -4z"/>
<path d="M680 9040 c0 -5 5 -10 11 -10 5 0 7 5 4 10 -3 6 -8 10 -11 10 -2 0
-4 -4 -4 -10z"/>
<path d="M502 8930 c0 -19 2 -27 5 -17 2 9 2 25 0 35 -3 9 -5 1 -5 -18z"/>
<path d="M530 8930 c0 -5 5 -10 11 -10 5 0 7 5 4 10 -3 6 -8 10 -11 10 -2 0
-4 -4 -4 -10z"/>
<path d="M380 8780 c0 -5 5 -10 11 -10 5 0 7 -6 3 -12 -5 -10 -4 -10 6 -1 7 6
9 16 6 22 -9 14 -26 14 -26 1z"/>
<path d="M440 8701 c0 -6 5 -13 10 -16 6 -3 10 1 10 9 0 9 -4 16 -10 16 -5 0
-10 -4 -10 -9z"/>
<path d="M230 8390 c0 -5 5 -10 10 -10 6 0 10 5 10 10 0 6 -4 10 -10 10 -5 0
-10 -4 -10 -10z"/>
<path d="M548 8258 c5 -5 16 -8 23 -6 8 3 3 7 -10 11 -17 4 -21 3 -13 -5z"/>
<path d="M255 8250 c3 -5 8 -10 11 -10 2 0 4 5 4 10 0 6 -5 10 -11 10 -5 0 -7
-4 -4 -10z"/>
<path d="M299 8223 c-13 -16 -12 -17 4 -4 16 13 21 21 13 21 -2 0 -10 -8 -17
-17z"/>
<path d="M260 8200 c-8 -6 -11 -10 -6 -10 5 0 3 -8 -5 -17 -7 -10 -2 -8 11 4
25 24 25 39 0 23z"/>
<path d="M270 8166 c0 -2 8 -10 18 -17 15 -13 16 -12 3 4 -13 16 -21 21 -21
13z"/>
<path d="M260 8130 c0 -5 5 -10 10 -10 6 0 10 5 10 10 0 6 -4 10 -10 10 -5 0
-10 -4 -10 -10z"/>
<path d="M210 8096 c7 -7 13 -7 20 0 6 6 3 10 -10 10 -13 0 -16 -4 -10 -10z"/>
<path d="M279 8073 c-13 -16 -12 -17 4 -4 16 13 21 21 13 21 -2 0 -10 -8 -17
-17z"/>
<path d="M141 8031 c-10 -6 -3 -9 22 -8 22 1 32 4 24 9 -16 10 -29 10 -46 -1z"/>
<path d="M225 8030 c-16 -7 -17 -9 -3 -9 9 -1 20 4 23 9 7 11 7 11 -20 0z"/>
<path d="M130 7880 c-9 -6 -10 -10 -3 -10 6 0 15 5 18 10 8 12 4 12 -15 0z"/>
<path d="M560 7815 c0 -9 6 -12 15 -9 8 4 15 7 15 9 0 2 -7 5 -15 9 -9 3 -15
0 -15 -9z"/>
<path d="M88 7813 c6 -2 18 -2 25 0 6 3 1 5 -13 5 -14 0 -19 -2 -12 -5z"/>
<path d="M126 7801 c-4 -5 3 -7 14 -4 23 6 26 13 6 13 -8 0 -17 -4 -20 -9z"/>
<path d="M324 7781 c0 -11 5 -17 13 -14 10 4 11 9 2 19 -15 18 -15 18 -15 -5z"/>
<path d="M77 7726 c-4 -10 -1 -13 8 -9 8 3 12 9 9 14 -7 12 -11 11 -17 -5z"/>
<path d="M25 7700 c3 -5 1 -10 -4 -10 -6 0 -11 -4 -11 -10 0 -12 22 -9 32 5 8
11 1 25 -13 25 -6 0 -7 -4 -4 -10z"/>
<path d="M185 7670 c-8 -13 3 -30 18 -29 8 0 8 2 -1 6 -10 4 -10 8 -1 19 8 9
8 14 1 14 -6 0 -14 -4 -17 -10z"/>
<path d="M225 7670 c-4 -6 -3 -16 3 -22 13 -13 23 4 13 21 -7 10 -10 10 -16 1z"/>
<path d="M33 7643 c9 -2 23 -2 30 0 6 3 -1 5 -18 5 -17 0 -22 -2 -12 -5z"/>
<path d="M107 7619 c7 -7 15 -10 18 -7 3 3 -2 9 -12 12 -14 6 -15 5 -6 -5z"/>
<path d="M30 7586 c0 -4 7 -14 15 -22 8 -9 15 -11 15 -6 0 5 -7 15 -15 22 -8
7 -15 9 -15 6z"/>
<path d="M74 7542 c3 -5 0 -13 -6 -15 -10 -4 -10 -6 0 -6 7 -1 10 -6 6 -13 -4
-7 -3 -8 4 -4 15 9 15 33 0 42 -6 4 -8 3 -4 -4z"/>
<path d="M340 7490 c-13 -8 -12 -10 3 -10 9 0 17 5 17 10 0 12 -1 12 -20 0z"/>
<path d="M280 7486 c0 -2 7 -6 15 -10 8 -3 15 -1 15 4 0 6 -7 10 -15 10 -8 0
-15 -2 -15 -4z"/>
<path d="M490 7480 c0 -5 5 -10 11 -10 5 0 7 5 4 10 -3 6 -8 10 -11 10 -2 0
-4 -4 -4 -10z"/>
<path d="M104 7418 c-3 -4 -9 -6 -14 -3 -4 3 -11 -2 -14 -11 -4 -12 -1 -14 14
-9 12 4 20 2 20 -5 0 -6 5 -8 10 -5 6 4 8 10 6 14 -3 4 4 7 16 7 12 -1 23 4
24 9 5 12 -54 16 -62 3z"/>
<path d="M5 7410 c3 -5 8 -10 11 -10 2 0 4 5 4 10 0 6 -5 10 -11 10 -5 0 -7
-4 -4 -10z"/>
<path d="M1005 7410 c-3 -5 -1 -10 4 -10 6 0 11 5 11 10 0 6 -2 10 -4 10 -3 0
-8 -4 -11 -10z"/>
<path d="M40 7400 c0 -5 5 -10 11 -10 5 0 7 5 4 10 -3 6 -8 10 -11 10 -2 0 -4
-4 -4 -10z"/>
<path d="M126 7375 c-3 -8 -1 -15 3 -15 5 0 11 7 15 15 3 8 1 15 -3 15 -5 0
-11 -7 -15 -15z"/>
<path d="M40 7359 c0 -5 5 -7 10 -4 6 3 10 8 10 11 0 2 -4 4 -10 4 -5 0 -10
-5 -10 -11z"/>
<path d="M597 7359 c7 -7 15 -10 18 -7 3 3 -2 9 -12 12 -14 6 -15 5 -6 -5z"/>
<path d="M108 7343 c6 -2 18 -2 25 0 6 3 1 5 -13 5 -14 0 -19 -2 -12 -5z"/>
<path d="M587 7335 c3 -8 9 -12 14 -9 12 7 11 11 -5 17 -10 4 -13 1 -9 -8z"/>
<path d="M650 7341 c0 -6 4 -13 10 -16 6 -3 7 1 4 9 -7 18 -14 21 -14 7z"/>
<path d="M1050 7340 c-8 -5 -10 -10 -5 -10 6 0 17 5 25 10 8 5 11 10 5 10 -5
0 -17 -5 -25 -10z"/>
<path d="M10 7309 c0 -5 9 -9 20 -9 11 0 20 2 20 4 0 2 -9 6 -20 9 -11 3 -20
1 -20 -4z"/>
<path d="M25 7280 c3 -5 8 -10 11 -10 2 0 4 5 4 10 0 6 -5 10 -11 10 -5 0 -7
-4 -4 -10z"/>
<path d="M4 7253 c2 -21 9 -28 27 -30 15 -1 17 0 7 3 -10 3 -18 14 -18 24 0
10 -4 21 -9 25 -5 3 -8 -7 -7 -22z"/>
<path d="M8 7153 c7 -3 16 -2 19 1 4 3 -2 6 -13 5 -11 0 -14 -3 -6 -6z"/>
<path d="M110 7109 c0 -5 -5 -7 -11 -3 -7 4 -10 1 -7 -6 7 -23 28 -23 28 -1 0
12 -2 21 -5 21 -3 0 -5 -5 -5 -11z"/>
<path d="M1113 7009 c-2 -23 3 -25 10 -4 4 8 3 16 -1 19 -4 3 -9 -4 -9 -15z"/>
<path d="M1150 7015 c0 -8 2 -15 4 -15 2 0 6 7 10 15 3 8 1 15 -4 15 -6 0 -10
-7 -10 -15z"/>
<path d="M170 6991 c0 -13 12 -20 26 -14 20 8 17 19 -6 20 -11 1 -20 -2 -20
-6z"/>
<path d="M100 6970 c0 -5 5 -10 11 -10 5 0 7 5 4 10 -3 6 -8 10 -11 10 -2 0
-4 -4 -4 -10z"/>
<path d="M136 6959 c3 -5 -3 -9 -13 -9 -15 -1 -16 -2 -3 -10 9 -4 31 -5 50 -1
35 8 31 14 -18 24 -12 3 -20 1 -16 -4z"/>
<path d="M50 6950 c0 -5 5 -10 11 -10 5 0 7 5 4 10 -3 6 -8 10 -11 10 -2 0 -4
-4 -4 -10z"/>
<path d="M1036 6952 c-3 -5 1 -9 9 -9 8 0 12 4 9 9 -3 4 -7 8 -9 8 -2 0 -6 -4
-9 -8z"/>
<path d="M101 6911 c-7 -5 -9 -11 -5 -14 5 -3 15 1 22 9 14 16 5 18 -17 5z"/>
<path d="M50 6899 c0 -5 5 -7 10 -4 6 3 10 8 10 11 0 2 -4 4 -10 4 -5 0 -10
-5 -10 -11z"/>
<path d="M150 6900 c-13 -8 -12 -10 3 -10 9 0 17 5 17 10 0 12 -1 12 -20 0z"/>
<path d="M937 6891 c-3 -11 1 -22 8 -24 8 -4 10 3 7 19 -5 29 -8 30 -15 5z"/>
<path d="M1051 6874 c0 -11 3 -14 6 -6 3 7 2 16 -1 19 -3 4 -6 -2 -5 -13z"/>
<path d="M90 6870 c0 -5 5 -10 11 -10 5 0 7 5 4 10 -3 6 -8 10 -11 10 -2 0 -4
-4 -4 -10z"/>
<path d="M953 6811 c0 -11 5 -18 9 -15 4 3 5 11 1 19 -7 21 -12 19 -10 -4z"/>
<path d="M990 6770 c0 -5 5 -10 10 -10 6 0 10 5 10 10 0 6 -4 10 -10 10 -5 0
-10 -4 -10 -10z"/>
<path d="M690 6761 c0 -6 -8 -11 -17 -12 -10 0 -13 -3 -6 -5 18 -8 49 11 34
20 -6 4 -11 2 -11 -3z"/>
<path d="M965 6760 c-3 -5 -1 -10 4 -10 6 0 11 5 11 10 0 6 -2 10 -4 10 -3 0
-8 -4 -11 -10z"/>
<path d="M936 6751 c-4 -6 -13 -8 -21 -4 -8 3 -15 0 -15 -7 0 -6 5 -8 12 -4 7
4 8 3 4 -5 -4 -6 -12 -9 -17 -6 -16 11 -30 -5 -17 -19 10 -10 18 -8 42 15 17
15 28 31 24 34 -3 4 -9 2 -12 -4z"/>
<path d="M340 6695 c0 -17 2 -18 24 -9 23 9 20 24 -4 24 -11 0 -20 -7 -20 -15z"/>
<path d="M667 6699 c7 -7 15 -10 18 -7 3 3 -2 9 -12 12 -14 6 -15 5 -6 -5z"/>
<path d="M856 6687 c3 -10 9 -15 12 -12 3 3 0 11 -7 18 -10 9 -11 8 -5 -6z"/>
<path d="M406 6653 c-6 -14 -5 -15 5 -6 7 7 10 15 7 18 -3 3 -9 -2 -12 -12z"/>
<path d="M430 6649 c0 -5 5 -7 10 -4 6 3 10 8 10 11 0 2 -4 4 -10 4 -5 0 -10
-5 -10 -11z"/>
<path d="M638 6648 c5 -5 16 -8 23 -6 8 3 3 7 -10 11 -17 4 -21 3 -13 -5z"/>
<path d="M527 6639 c7 -7 15 -10 18 -7 3 3 -2 9 -12 12 -14 6 -15 5 -6 -5z"/>
<path d="M790 6640 c-8 -5 -10 -10 -5 -10 6 0 17 5 25 10 8 5 11 10 5 10 -5 0
-17 -5 -25 -10z"/>
<path d="M340 6630 c-12 -7 -10 -9 8 -7 12 0 22 5 22 9 0 11 -12 10 -30 -2z"/>
<path d="M810 6621 c0 -5 6 -12 13 -14 9 -4 8 -8 -3 -17 -13 -10 -12 -11 4 -6
11 4 23 1 28 -6 6 -10 8 -9 8 3 0 9 -8 23 -18 32 -21 19 -32 22 -32 8z"/>
<path d="M395 6606 c-23 -16 -30 -50 -9 -42 8 3 14 1 14 -5 0 -6 5 -7 11 -3 6
3 15 0 20 -7 7 -11 9 -11 9 -1 0 7 -14 18 -31 24 -37 13 -26 29 20 30 40 1 48
12 11 15 -15 1 -36 -4 -45 -11z"/>
<path d="M629 6597 c5 -5 19 -7 32 -5 20 3 19 5 -9 9 -20 3 -29 2 -23 -4z"/>
<path d="M530 6579 c0 -5 5 -7 10 -4 6 3 10 8 10 11 0 2 -4 4 -10 4 -5 0 -10
-5 -10 -11z"/>
<path d="M349 6573 c-1 -5 -1 -11 -1 -14 2 -11 -36 -40 -55 -43 -10 -2 -17 -6
-15 -9 1 -4 2 -10 2 -13 0 -3 10 2 21 10 12 8 26 13 33 12 6 -2 7 -1 3 2 -4 2
-2 11 5 19 12 15 20 43 12 43 -2 0 -5 -3 -5 -7z"/>
<path d="M612 6567 c-7 -9 -8 -17 -1 -27 9 -13 10 -13 6 0 -2 8 3 20 12 27 9
7 11 13 5 13 -6 0 -16 -6 -22 -13z"/>
<path d="M310 6554 c0 -8 5 -12 10 -9 6 3 10 10 10 16 0 5 -4 9 -10 9 -5 0
-10 -7 -10 -16z"/>
<path d="M140 6550 c0 -5 5 -10 10 -10 6 0 10 5 10 10 0 6 -4 10 -10 10 -5 0
-10 -4 -10 -10z"/>
<path d="M630 6550 c0 -4 7 -11 16 -14 21 -8 21 -8 27 7 3 7 -5 13 -19 13 -13
1 -24 -2 -24 -6z"/>
<path d="M365 6540 c-3 -5 1 -10 10 -10 9 0 13 5 10 10 -3 6 -8 10 -10 10 -2
0 -7 -4 -10 -10z"/>
<path d="M423 6505 c0 -9 4 -14 9 -13 5 2 10 8 10 13 0 5 -5 11 -10 13 -5 1
-9 -4 -9 -13z"/>
<path d="M805 6511 c-6 -11 13 -26 22 -17 4 3 0 6 -8 6 -11 0 -11 2 1 10 9 6
10 10 3 10 -6 0 -14 -4 -18 -9z"/>
<path d="M653 6503 c-15 -6 -17 -42 -3 -63 10 -17 -7 -43 -22 -34 -6 4 -5 -3
1 -15 7 -11 17 -21 24 -21 8 0 7 4 -3 10 -12 7 -11 10 5 16 26 10 37 27 23 35
-9 6 -8 12 3 25 13 16 12 17 -9 12 -15 -4 -20 -3 -15 5 7 11 14 38 10 36 -1 0
-8 -3 -14 -6z"/>
<path d="M420 6470 c0 -5 5 -10 10 -10 6 0 10 5 10 10 0 6 -4 10 -10 10 -5 0
-10 -4 -10 -10z"/>
<path d="M585 6460 c-3 -5 -1 -10 4 -10 6 0 11 5 11 10 0 6 -2 10 -4 10 -3 0
-8 -4 -11 -10z"/>
<path d="M320 6456 c0 -2 9 -6 20 -9 11 -3 20 -1 20 4 0 5 -9 9 -20 9 -11 0
-20 -2 -20 -4z"/>
<path d="M508 6453 c6 -2 18 -2 25 0 6 3 1 5 -13 5 -14 0 -19 -2 -12 -5z"/>
<path d="M688 6443 c6 -2 18 -2 25 0 6 3 1 5 -13 5 -14 0 -19 -2 -12 -5z"/>
<path d="M590 6410 c-9 -6 -10 -10 -3 -10 6 0 15 5 18 10 8 12 4 12 -15 0z"/>
<path d="M490 6400 c0 -5 5 -10 10 -10 6 0 10 5 10 10 0 6 -4 10 -10 10 -5 0
-10 -4 -10 -10z"/>
<path d="M400 6354 l-35 -13 36 2 c21 1 36 7 36 15 0 6 -1 11 -1 11 -1 -1 -17
-7 -36 -15z"/>
<path d="M417 6277 c-3 -9 6 -13 32 -14 20 0 29 2 21 5 -8 2 -22 9 -32 13 -10
6 -18 4 -21 -4z"/>
<path d="M238 6273 c6 -2 18 -2 25 0 6 3 1 5 -13 5 -14 0 -19 -2 -12 -5z"/>
<path d="M310 6260 c0 -5 5 -10 10 -10 6 0 10 5 10 10 0 6 -4 10 -10 10 -5 0
-10 -4 -10 -10z"/>
<path d="M245 6230 c4 -6 11 -8 16 -5 14 9 11 15 -7 15 -8 0 -12 -5 -9 -10z"/>
<path d="M540 6229 c0 -5 5 -7 10 -4 6 3 10 8 10 11 0 2 -4 4 -10 4 -5 0 -10
-5 -10 -11z"/>
<path d="M370 6219 c0 -5 5 -7 10 -4 6 3 10 8 10 11 0 2 -4 4 -10 4 -5 0 -10
-5 -10 -11z"/>
<path d="M265 6210 c-4 -6 -11 -7 -17 -4 -7 4 -8 2 -4 -5 6 -9 11 -9 22 0 14
11 18 19 10 19 -3 0 -8 -5 -11 -10z"/>
<path d="M290 6191 c0 -6 -11 -13 -24 -17 -14 -3 -27 -12 -30 -20 -5 -13 -2
-12 16 1 13 8 30 15 40 15 19 0 24 15 8 25 -5 3 -10 2 -10 -4z"/>
<path d="M335 6192 c-5 -4 -11 -12 -12 -19 -3 -16 39 -1 45 15 4 13 -17 16
-33 4z"/>
<path d="M573 6188 c-30 -14 -29 -26 0 -21 13 3 24 11 24 19 0 8 -1 14 -1 13
-1 0 -11 -5 -23 -11z"/>
<path d="M262 6147 c-7 -8 -6 -18 4 -31 8 -11 14 -15 14 -10 0 6 -5 15 -12 22
-8 8 -9 12 -1 12 6 0 19 3 29 7 11 4 15 3 10 -5 -3 -6 -1 -14 5 -18 8 -4 9 -3
5 4 -4 7 -1 12 6 12 9 0 9 3 -2 10 -21 13 -46 12 -58 -3z"/>
<path d="M310 6098 c0 -4 4 -8 9 -8 6 0 12 4 15 8 3 5 -1 9 -9 9 -8 0 -15 -4
-15 -9z"/>
</g>
</svg>
